<svg width="77" height="23" viewBox="0 0 77 23" fill="none" xmlns="http://www.w3.org/2000/svg">
<path d="M11.0777 0C4.98898 0 0 4.9908 0 11.0777C0 17.1652 4.99018 22.1554 11.0777 22.1554C17.1652 22.1554 22.1554 17.1652 22.1554 11.0777C22.1554 4.99018 17.1652 0 11.0777 0ZM38.3459 0C32.2572 0 27.2682 4.9908 27.2682 11.0777C27.2682 17.1652 32.2584 22.1554 38.3459 22.1554C44.4334 22.1554 49.4236 17.1652 49.4236 11.0777C49.4236 4.99018 44.4334 0 38.3459 0ZM65.6141 0C59.5254 0 54.5364 4.9908 54.5364 11.0777C54.5364 17.1652 59.5266 22.1554 65.6141 22.1554C71.7028 22.1554 76.6918 17.1646 76.6918 11.0777C76.6918 4.99018 71.7016 0 65.6141 0ZM11.0777 5.11278C14.4011 5.11278 17.0426 7.75428 17.0426 11.0777C17.0426 14.4011 14.4011 17.0426 11.0777 17.0426C7.75428 17.0426 5.11278 14.4011 5.11278 11.0777C5.11278 7.75367 7.75208 5.11278 11.0777 5.11278ZM38.3459 5.11278C41.6693 5.11278 44.3108 7.75428 44.3108 11.0777C44.3108 14.4011 41.6693 17.0426 38.3459 17.0426C35.0225 17.0426 32.381 14.4011 32.381 11.0777C32.381 7.75367 35.0203 5.11278 38.3459 5.11278ZM65.6141 5.11278C68.9375 5.11278 71.579 7.75428 71.579 11.0777C71.579 14.4017 68.9397 17.0426 65.6141 17.0426C62.2907 17.0426 59.6492 14.4011 59.6492 11.0777C59.6492 7.75367 62.2884 5.11278 65.6141 5.11278Z" fill="#F35E84"/>
</svg>
