<svg width="269" height="1200" viewBox="0 0 269 1200" fill="none" xmlns="http://www.w3.org/2000/svg">
<g clip-path="url(#clip0)">
<path fill-rule="evenodd" clip-rule="evenodd" d="M1.00003 0L43 50C85 100 169 200 217 300C265 400 277 500 265 600C253 700 217 800 163 900C109 1000 37 1100 1.00003 1150L-35 1200V1150C-35 1100 -35 1000 -35 900C-35 800 -35 700 -35 600C-35 500 -35 400 -35 300C-35 200 -35 100 -35 50V0H1.00003Z" fill="url(#paint0_radial)"/>
</g>
<defs>
<radialGradient id="paint0_radial" cx="0" cy="0" r="1" gradientUnits="userSpaceOnUse" gradientTransform="translate(117.164 600) rotate(180) scale(152.164 600)">
<stop stop-color="#862DF7" stop-opacity="0.1"/>
<stop offset="1" stop-color="#9FFBCE" stop-opacity="0.5"/>
</radialGradient>
<clipPath id="clip0">
<rect width="269" height="1200" fill="white"/>
</clipPath>
</defs>
</svg>
