<svg width="50" height="50" viewBox="0 0 50 50" fill="none" xmlns="http://www.w3.org/2000/svg">
<rect width="50" height="50" fill="#FFDD00"/>
<path d="M36.637 13.584L36.6077 13.5668L36.54 13.5461C36.5673 13.5691 36.6014 13.5824 36.637 13.584Z" fill="#0D0C22"/>
<path d="M37.0629 16.6299L37.0303 16.6391L37.0629 16.6299Z" fill="#0D0C22"/>
<path d="M36.6491 13.5793C36.6449 13.5788 36.6409 13.5778 36.6369 13.5764C36.6367 13.5791 36.6367 13.5818 36.6369 13.5845C36.6414 13.5839 36.6456 13.5822 36.6491 13.5793Z" fill="#0D0C22"/>
<path d="M36.6367 13.5843H36.6411V13.5815L36.6367 13.5843Z" fill="#0D0C22"/>
<path d="M37.0371 16.6243L37.0865 16.5962L37.1048 16.5859L37.1215 16.5681C37.0902 16.5816 37.0616 16.6006 37.0371 16.6243Z" fill="#0D0C22"/>
<path d="M36.7225 13.6503L36.6743 13.6044L36.6416 13.5867C36.6592 13.6177 36.6882 13.6405 36.7225 13.6503Z" fill="#0D0C22"/>
<path d="M24.601 43.2061C24.5625 43.2227 24.5288 43.2487 24.5029 43.2817L24.5333 43.2624C24.554 43.2434 24.5832 43.2211 24.601 43.2061Z" fill="#0D0C22"/>
<path d="M31.6399 41.821C31.6399 41.7777 31.6187 41.7857 31.6238 41.9404C31.6238 41.928 31.629 41.9154 31.6313 41.9034C31.6342 41.8757 31.6365 41.8487 31.6399 41.821Z" fill="#0D0C22"/>
<path d="M30.9096 43.2061C30.8711 43.2227 30.8374 43.2487 30.8115 43.2817L30.8419 43.2624C30.8626 43.2434 30.8918 43.2211 30.9096 43.2061Z" fill="#0D0C22"/>
<path d="M19.6433 43.5354C19.614 43.5101 19.5783 43.4934 19.54 43.4871C19.571 43.5021 19.602 43.5171 19.6226 43.5284L19.6433 43.5354Z" fill="#0D0C22"/>
<path d="M18.528 42.467C18.5235 42.422 18.5096 42.3783 18.4873 42.3386C18.5031 42.3796 18.5163 42.422 18.5269 42.4646L18.528 42.467Z" fill="#0D0C22"/>
<path d="M26.0209 23.3611C24.4895 24.0167 22.7517 24.76 20.4993 24.76C19.5571 24.7581 18.6195 24.6289 17.7119 24.3757L19.2697 40.3693C19.3248 41.0376 19.6293 41.6609 20.1228 42.1153C20.6162 42.5696 21.2625 42.8216 21.9332 42.8216C21.9332 42.8216 24.1419 42.9363 24.879 42.9363C25.6722 42.9363 28.0507 42.8216 28.0507 42.8216C28.7213 42.8216 29.3674 42.5693 29.8608 42.1149C30.3541 41.6606 30.6585 41.0376 30.7137 40.3693L32.3821 22.6958C31.6365 22.4412 30.884 22.272 30.0357 22.272C28.5686 22.2714 27.3865 22.7767 26.0209 23.3611Z" fill="white"/>
<path d="M12.8896 16.5378L12.916 16.5625L12.9332 16.5728C12.92 16.5597 12.9054 16.5479 12.8896 16.5378Z" fill="#0D0C22"/>
<path d="M39.5855 15.0617L39.3509 13.8785C39.1404 12.8168 38.6627 11.8137 37.5729 11.43C37.2236 11.3072 36.8273 11.2545 36.5595 11.0004C36.2916 10.7463 36.2125 10.3517 36.1505 9.98581C36.0358 9.31418 35.928 8.64198 35.8104 7.97151C35.7089 7.39508 35.6286 6.74756 35.3642 6.21875C35.0201 5.50869 34.306 5.09344 33.5959 4.81871C33.2321 4.68289 32.8608 4.568 32.4838 4.47459C30.7098 4.00657 28.8447 3.83451 27.0196 3.73643C24.8291 3.61556 22.6327 3.65197 20.4473 3.8454C18.8208 3.99338 17.1076 4.17233 15.5619 4.73498C14.9969 4.94088 14.4148 5.18808 13.9852 5.62455C13.4581 6.16082 13.286 6.99017 13.6709 7.65891C13.9445 8.13381 14.4079 8.46935 14.8994 8.69131C15.5397 8.97731 16.2083 9.19495 16.8942 9.34058C18.8041 9.76271 20.7823 9.92845 22.7335 9.99901C24.8962 10.0863 27.0623 10.0155 29.2146 9.78735C29.7469 9.72885 30.2782 9.65868 30.8085 9.57688C31.4331 9.48108 31.834 8.66435 31.6499 8.09538C31.4296 7.41518 30.8377 7.15135 30.1684 7.25401C30.0698 7.26948 29.9717 7.28381 29.873 7.29815L29.8019 7.30848C29.5752 7.33718 29.3484 7.36391 29.1217 7.38878C28.6533 7.43925 28.1838 7.48055 27.7131 7.51268C26.6589 7.58608 25.6018 7.61991 24.5454 7.62165C23.5072 7.62165 22.4685 7.59238 21.4327 7.52415C20.9601 7.49318 20.4886 7.45378 20.0183 7.40598C19.8044 7.38361 19.591 7.36011 19.3777 7.33371L19.1746 7.30791L19.1305 7.30161L18.92 7.27121C18.4898 7.20638 18.0597 7.13185 17.6341 7.04178C17.5912 7.03225 17.5527 7.00838 17.5252 6.97406C17.4977 6.93975 17.4827 6.89708 17.4827 6.85309C17.4827 6.8091 17.4977 6.76643 17.5252 6.73212C17.5527 6.69781 17.5912 6.67392 17.6341 6.66439H17.6421C18.0109 6.58582 18.3826 6.51871 18.7554 6.46021C18.8797 6.44071 19.0043 6.42159 19.1293 6.40285H19.1328C19.3662 6.38737 19.6008 6.3455 19.8331 6.31797C21.8541 6.10775 23.8871 6.03608 25.9179 6.10346C26.9038 6.13214 27.8891 6.19007 28.8705 6.28986C29.0815 6.31166 29.2915 6.3346 29.5014 6.36041C29.5817 6.37016 29.6625 6.38163 29.7434 6.39138L29.9063 6.4149C30.3812 6.48564 30.8536 6.57148 31.3235 6.67242C32.0198 6.82384 32.914 6.87316 33.2237 7.63598C33.3224 7.87801 33.3671 8.14701 33.4216 8.40108L33.491 8.72515C33.4928 8.73095 33.4941 8.73691 33.495 8.74291C33.659 9.50765 33.8233 10.2724 33.9877 11.0371C33.9997 11.0936 34 11.152 33.9885 11.2086C33.977 11.2652 33.954 11.3188 33.9208 11.3661C33.8877 11.4134 33.8451 11.4534 33.7958 11.4835C33.7465 11.5137 33.6916 11.5333 33.6344 11.5413H33.6298L33.5294 11.555L33.4302 11.5682C33.1159 11.6091 32.8012 11.6474 32.4861 11.6829C31.8655 11.7537 31.244 11.8148 30.6215 11.8665C29.3846 11.9693 28.1451 12.0368 26.9032 12.0689C26.2704 12.0857 25.6378 12.0936 25.0053 12.0924C22.488 12.0905 19.9729 11.9441 17.4724 11.6542C17.2016 11.6221 16.9309 11.5877 16.6602 11.5527C16.8701 11.5797 16.5076 11.5321 16.4342 11.5218C16.2622 11.4977 16.0901 11.4726 15.918 11.4466C15.3405 11.36 14.7664 11.2533 14.1899 11.1598C13.4931 11.0451 12.8266 11.1025 12.1963 11.4466C11.6789 11.7298 11.2601 12.1639 10.9959 12.6912C10.724 13.2533 10.6431 13.8653 10.5215 14.4692C10.3999 15.0732 10.2107 15.723 10.2824 16.343C10.4366 17.6811 11.3721 18.7685 12.7176 19.0117C13.9835 19.2411 15.2562 19.427 16.5323 19.5853C21.5453 20.1992 26.6097 20.2727 31.6384 19.8044C32.0479 19.7661 32.4569 19.7245 32.8652 19.6793C32.9928 19.6653 33.1219 19.68 33.243 19.7223C33.3641 19.7647 33.4743 19.8336 33.5653 19.924C33.6564 20.0144 33.7261 20.124 33.7693 20.2448C33.8125 20.3656 33.8281 20.4946 33.815 20.6222L33.6877 21.86C33.4311 24.361 33.1746 26.8619 32.918 29.3625C32.6504 31.9886 32.381 34.6145 32.1099 37.2401C32.0334 37.9797 31.9569 38.7191 31.8805 39.4581C31.807 40.1861 31.7967 40.9367 31.6585 41.6561C31.4405 42.7871 30.6749 43.4817 29.5576 43.7357C28.534 43.9687 27.4883 44.0911 26.4386 44.1004C25.2749 44.1067 24.1118 44.0551 22.948 44.0614C21.7057 44.0684 20.1841 43.9537 19.2251 43.0291C18.3826 42.2171 18.2661 40.9454 18.1514 39.8457C17.9985 38.3901 17.8469 36.9347 17.6966 35.4794L16.8535 27.3872L16.3081 22.1513C16.2989 22.0647 16.2897 21.9793 16.2811 21.8921C16.2157 21.2675 15.7735 20.6561 15.0766 20.6876C14.4802 20.714 13.8022 21.221 13.8722 21.8921L14.2765 25.7739L15.1128 33.8035C15.351 36.0843 15.5886 38.3654 15.8257 40.6471C15.8716 41.0841 15.9146 41.5224 15.9628 41.9594C16.2249 44.3477 18.0488 45.6347 20.3074 45.9971C21.6266 46.2094 22.9778 46.2531 24.3165 46.2747C26.0326 46.3024 27.7658 46.3684 29.4538 46.0574C31.955 45.5984 33.8317 43.9284 34.0995 41.3377C34.176 40.5897 34.2525 39.8417 34.3289 39.0934C34.5832 36.6187 34.8371 34.1438 35.0906 31.6688L35.92 23.5818L36.3002 19.8755C36.3192 19.6917 36.3968 19.5189 36.5216 19.3827C36.6463 19.2464 36.8117 19.154 36.9931 19.119C37.7083 18.9796 38.392 18.7416 38.9007 18.1973C39.7105 17.3307 39.8717 16.2008 39.5855 15.0617ZM12.6809 15.8612C12.6918 15.8561 12.6718 15.9495 12.6632 15.9931C12.6614 15.9272 12.6649 15.8687 12.6809 15.8612ZM12.7503 16.3981C12.7561 16.394 12.7733 16.417 12.7911 16.4445C12.7641 16.4193 12.7469 16.4004 12.7498 16.3981H12.7503ZM12.8186 16.4881C12.8433 16.53 12.8564 16.5564 12.8186 16.4881V16.4881ZM12.9557 16.5994H12.9591C12.9591 16.6034 12.9654 16.6074 12.9677 16.6114C12.9639 16.607 12.9597 16.603 12.9551 16.5994H12.9557ZM36.9598 16.433C36.7029 16.6774 36.3157 16.7909 35.9331 16.8477C31.643 17.4844 27.2904 17.8067 22.9532 17.6645C19.8491 17.5584 16.7778 17.2136 13.7047 16.7795C13.4036 16.737 13.0773 16.682 12.8702 16.46C12.4802 16.0413 12.6718 15.1982 12.7733 14.6923C12.8662 14.2289 13.044 13.6112 13.5952 13.5452C14.4555 13.4443 15.4546 13.8073 16.3058 13.9364C17.3305 14.0928 18.3591 14.218 19.3914 14.3121C23.7974 14.7136 28.2774 14.651 32.6639 14.0637C33.4634 13.9563 34.2601 13.8314 35.0539 13.6892C35.7611 13.5624 36.5451 13.3244 36.9724 14.0568C37.2655 14.5558 37.3045 15.2234 37.2592 15.7872C37.2452 16.0329 37.1379 16.2639 36.9592 16.433H36.9598Z" fill="#0D0C22"/>
</svg>
