<svg width="70" height="70" viewBox="0 0 70 70" fill="none" xmlns="http://www.w3.org/2000/svg">
<g id="bowie-bolt" clip-path="url(#clip0_1519_1671)">
<path id="purple" d="M21.3555 77.3948C21.1045 77.3948 20.8534 77.3419 20.6221 77.223C19.8557 76.853 19.4857 75.9742 19.7499 75.1681L32.5418 36.7991H19.6641C19.0958 36.7991 18.5738 36.515 18.2567 36.0459C17.9395 35.5768 17.8867 34.9821 18.1047 34.4601L35.0196 -6.13552C35.2773 -6.76983 35.8984 -7.17949 36.5789 -7.17949H52.648C53.2229 -7.17949 53.7581 -6.88877 54.0686 -6.40643C54.3791 -5.92409 54.4254 -5.32282 54.1941 -4.80084L40.8803 24.9587H53.4938C54.1149 24.9587 54.6831 25.3023 54.9804 25.8441C55.2778 26.3925 55.2513 27.0533 54.9077 27.5752L22.7695 76.6283C22.4458 77.1239 21.9106 77.3948 21.3555 77.3948V77.3948Z" fill="#6E82F9"/>
<path id="pink" d="M17.7423 77.3948C17.4912 77.3948 17.2401 77.3419 17.0088 77.223C16.2424 76.853 15.8724 75.9742 16.1367 75.1681L28.9285 36.7991H16.0508C15.4825 36.7991 14.9606 36.515 14.6434 36.0459C14.3262 35.5768 14.2734 34.9821 14.4914 34.4601L31.4063 -6.13552C31.664 -6.76983 32.2851 -7.17949 32.9656 -7.17949H49.0347C49.6096 -7.17949 50.1448 -6.88877 50.4553 -6.40643C50.7659 -5.92409 50.8121 -5.32282 50.5809 -4.80084L37.267 24.9587H49.8805C50.5016 24.9587 51.0698 25.3023 51.3671 25.8441C51.6645 26.3925 51.638 27.0533 51.2945 27.5752L19.1562 76.6283C18.8325 77.1239 18.2973 77.3948 17.7423 77.3948V77.3948Z" fill="#F35E84"/>
</g>
<defs>
<clipPath id="clip0_1519_1671">
<rect width="70" height="70" fill="white"/>
</clipPath>
</defs>
</svg>
