<svg width="117" height="117" viewBox="0 0 117 117" fill="none" xmlns="http://www.w3.org/2000/svg">
<g clip-path="url(#clip0_1511_1771)">
<path d="M43.4396 117C43.0923 117 42.745 116.927 42.425 116.762C41.3647 116.25 40.8528 115.035 41.2185 113.92L58.9147 60.84H41.0996C40.3136 60.84 39.5914 60.447 39.1527 59.798C38.7139 59.149 38.6408 58.3263 38.9425 57.6042L62.3425 1.44423C62.6989 0.56673 63.5582 7.62939e-06 64.4996 7.62939e-06H86.7296C87.5249 7.62939e-06 88.2653 0.402195 88.6949 1.06946C89.1245 1.73673 89.1885 2.56852 88.8685 3.29063L70.4502 44.46H87.8996C88.7589 44.46 89.545 44.9353 89.9563 45.6849C90.3676 46.4435 90.331 47.3576 89.8557 48.0797L45.3957 115.94C44.9478 116.625 44.2075 117 43.4396 117V117Z" fill="#6E82F9"/>
<path d="M37.4396 117C37.0923 117 36.745 116.927 36.425 116.762C35.3647 116.25 34.8528 115.035 35.2185 113.92L52.9147 60.84H35.0996C34.3136 60.84 33.5914 60.447 33.1527 59.798C32.7139 59.149 32.6408 58.3263 32.9425 57.6042L56.3425 1.44423C56.6989 0.56673 57.5582 7.62939e-06 58.4996 7.62939e-06H80.7296C81.5249 7.62939e-06 82.2653 0.402195 82.6949 1.06946C83.1245 1.73673 83.1885 2.56852 82.8685 3.29063L64.4502 44.46H81.8996C82.7589 44.46 83.545 44.9353 83.9563 45.6849C84.3676 46.4435 84.331 47.3576 83.8557 48.0797L39.3957 115.94C38.9478 116.625 38.2075 117 37.4396 117V117Z" fill="#F35E84"/>
</g>
<defs>
<clipPath id="clip0_1511_1771">
<rect width="117" height="117" fill="white"/>
</clipPath>
</defs>
</svg>
