<svg width="100" height="101" viewBox="0 0 100 101" fill="none" xmlns="http://www.w3.org/2000/svg">
<path d="M35.4168 89.9643H4.16683C3.01683 89.9643 2.0835 89.0309 2.0835 87.8809C2.0835 86.7309 3.01683 85.7976 4.16683 85.7976H35.4168C36.5668 85.7976 37.5002 86.7309 37.5002 87.8809C37.5002 89.0309 36.5668 89.9643 35.4168 89.9643Z" fill="#B31523"/>
<path d="M97.9167 10.7976L85.9 29.6768L83.3333 29.5434L64.5833 21.2143L63.6562 19.1351L66.6667 10.7976H97.9167Z" fill="url(#paint0_linear)"/>
<path d="M69.8418 71.2393C66.4897 82.8559 51.2481 89.9643 35.9918 89.9643C30.421 89.9643 20.8335 89.9643 20.8335 89.9643C20.8335 89.9643 37.5002 82.7809 37.3939 69.1309C37.3085 58.0726 42.0668 48.2976 53.1252 48.2976C60.0085 48.2976 65.5127 51.7059 68.7502 56.6309C70.8335 59.7997 70.8835 67.6309 69.8418 71.2393H69.8418Z" fill="url(#paint1_linear)"/>
<path opacity="0.05" d="M64.3375 17.2476L63.6562 19.1351L85.9 29.6768L86.9729 27.9955L64.3375 17.2476Z" fill="#231F20"/>
<path opacity="0.07" d="M63.9979 18.1872L63.6562 19.1351L85.9 29.6768L86.4313 28.8434L63.9979 18.1872Z" fill="#231F20"/>
<path d="M85.9 29.6768L68.75 56.631L53.125 48.2976L63.6562 19.1351L85.9 29.6768Z" fill="url(#paint2_linear)"/>
<defs>
<linearGradient id="paint0_linear" x1="71.3542" y1="6.11011" x2="90.4104" y2="25.1664" gradientUnits="userSpaceOnUse">
<stop stop-color="#2AA4F4"/>
<stop offset="1" stop-color="#007AD9"/>
</linearGradient>
<linearGradient id="paint1_linear" x1="28.0585" y1="91.7414" x2="69.4502" y2="50.3518" gradientUnits="userSpaceOnUse">
<stop stop-color="#F44F5A"/>
<stop offset="0.532" stop-color="#EE3D4A"/>
<stop offset="1" stop-color="#E52030"/>
</linearGradient>
<linearGradient id="paint2_linear" x1="56.6583" y1="26.133" x2="77.9521" y2="47.4268" gradientUnits="userSpaceOnUse">
<stop stop-color="#C3CDD9"/>
<stop offset="1" stop-color="#9FA7B0"/>
</linearGradient>
</defs>
</svg>
