<svg width="40" height="40" viewBox="0 0 40 40" fill="none" xmlns="http://www.w3.org/2000/svg">
<path d="M23.8491 1.65735C23.5257 1.66208 23.2168 1.79269 22.9882 2.02145L14.651 10.3587C14.5799 10.4047 14.5138 10.4578 14.4535 10.5173L9.9645 15.0047C9.54602 15.4229 9.48036 16.0782 9.80753 16.5711C9.80753 16.5711 10.6609 17.8623 11.3255 19.2801C11.6577 19.9889 11.9326 20.7299 12.0326 21.2576C12.1309 21.776 12.0134 21.8962 12.1054 21.8045C12.0064 21.8829 10.124 23.3736 7.94493 25.1381C5.70934 26.9485 3.34538 28.8794 2.3911 29.8327C0.31755 31.9062 0.31755 35.305 2.3911 37.3786C4.46432 39.4518 7.86173 39.4511 9.93537 37.3786C10.8911 36.4238 12.8226 34.062 14.6331 31.8264C16.398 29.6472 17.8884 27.7633 17.9667 27.6642C18.0002 27.6325 18.1375 27.5506 18.6432 27.6367C19.1561 27.724 19.8743 27.9957 20.5576 28.3374C21.2408 28.6791 21.899 29.0832 22.3781 29.3974C22.6176 29.5544 22.8129 29.6884 22.9461 29.7825C23.0127 29.8296 23.0632 29.8667 23.0966 29.8909C23.1106 29.9012 23.1199 29.9081 23.1273 29.9136C23.1287 29.9146 23.1327 29.916 23.1338 29.9168C23.1376 29.9195 23.1413 29.9222 23.1451 29.9249C23.3593 30.0844 23.6192 30.1706 23.8863 30.1709C23.8863 30.1709 23.9616 29.9366 23.985 29.865L24.765 29.8084L29.254 25.3194C29.3184 25.2541 29.3754 25.1819 29.4239 25.1041L37.7417 16.7815C38.2269 16.2961 38.2269 15.5094 37.7417 15.0241L24.7456 2.02145C24.5082 1.78397 24.1848 1.65264 23.8491 1.65735L23.8491 1.65735ZM23.273 9.21457C23.485 9.21457 23.6972 9.29532 23.8588 9.4573C24.1827 9.78127 24.1827 10.3058 23.8588 10.6289C23.0501 11.4376 23.0501 12.7501 23.8588 13.5596C24.6674 14.3682 25.9783 14.3682 26.7878 13.5596L27.0823 13.2667C27.7294 12.6196 28.7785 12.6196 29.4256 13.2667C30.0727 13.9138 30.0727 14.9628 29.4256 15.6099L28.8398 16.1957C27.8687 17.1667 27.8687 18.7395 28.8398 19.7105C29.3195 20.1903 29.946 20.4314 30.5745 20.4371L28.3527 22.6606L17.1091 11.4154L19.0186 9.50585C19.0824 9.81006 19.229 10.1014 19.4652 10.3376C20.1123 10.9847 21.1614 10.9847 21.8085 10.3376L22.6872 9.45731C22.8492 9.29533 23.061 9.21457 23.273 9.21457V9.21457ZM15.35 13.1744L26.5936 24.418L26.0871 24.9261C26.0228 24.9909 25.9658 25.0625 25.9172 25.1397L23.7407 27.3179H23.739C23.2045 26.9674 22.4774 26.5197 21.6693 26.1156C20.8607 25.7112 19.9821 25.3419 19.0607 25.1851C18.1393 25.0282 17.0099 25.0965 16.1996 25.9068C16.1658 25.9405 16.1339 25.9762 16.1041 26.0136C16.1041 26.0136 14.5024 28.0392 12.7026 30.2615C10.9028 32.4838 8.82292 34.9785 8.17958 35.6211C7.05495 36.7458 5.27314 36.7458 4.14852 35.6211C3.02423 34.4968 3.02489 32.7164 4.14852 31.5917C4.79332 30.9476 7.28738 28.8683 9.50978 27.0687C11.7322 25.2691 13.7561 23.6671 13.7561 23.6671C13.7934 23.6379 13.8291 23.6066 13.8629 23.5733C14.6794 22.7577 14.642 21.6777 14.4746 20.7948C14.3071 19.9118 13.9584 19.0398 13.5764 18.225C13.0404 17.0814 12.7072 16.6129 12.3854 16.1002L14.6283 13.8573C14.7071 13.8064 14.7798 13.7466 14.8451 13.6793L15.35 13.1744ZM6.20693 32.3134C5.5209 32.3134 4.96412 32.8702 4.96412 33.5563C4.96412 34.2423 5.5209 34.7991 6.20693 34.7991C6.89297 34.7991 7.44975 34.2423 7.44975 33.5563C7.44975 32.8702 6.89297 32.3134 6.20693 32.3134Z" fill="#F35E84"/>
</svg>
