<svg width="30" height="30" viewBox="0 0 30 30" fill="none" xmlns="http://www.w3.org/2000/svg">
<path d="M0 15C0 6.71573 6.71573 0 15 0V0C23.2843 0 30 6.71573 30 15V15C30 23.2843 23.2843 30 15 30V30C6.71573 30 0 23.2843 0 15V15Z" fill="#FFB5D2"/>
<path d="M15.0752 6.30019C19.9352 6.30019 23.8502 10.2152 23.8502 15.0752C23.8502 19.9352 19.9352 23.8502 15.0752 23.8502C10.2152 23.8502 6.30019 19.9352 6.30019 15.0752C6.30019 10.2152 10.2152 6.30019 15.0752 6.30019ZM15.0752 4.9502C9.54019 4.9502 4.9502 9.54019 4.9502 15.0752C4.9502 20.6102 9.54019 25.2002 15.0752 25.2002C20.6102 25.2002 25.2002 20.6102 25.2002 15.0752C25.2002 9.54019 20.6102 4.9502 15.0752 4.9502Z" fill="#EA4C89"/>
<path d="M18.8549 24.12C18.8549 23.985 17.2349 13.05 10.7549 6.16501L11.9249 5.625C18.6749 12.78 20.0249 23.22 20.0249 23.625L18.8549 24.12Z" fill="#EA4C89"/>
<path d="M7.10987 14.6704C5.89487 14.6704 5.21996 14.6479 5.08496 14.5129L5.39983 13.2754C5.53483 13.2754 17.6398 14.1304 21.5548 7.65039L22.7248 8.55039C19.3498 14.2204 11.1599 14.6704 7.10987 14.6704ZM9.13486 22.9054L8.09987 22.0504C8.09987 21.9154 12.7799 11.1154 25.1998 15.3004L24.9298 16.6954C13.7249 12.9154 9.40486 22.5004 9.13486 22.9054Z" fill="#EA4C89"/>
</svg>
