<svg width="85" height="85" viewBox="0 0 85 85" fill="none" xmlns="http://www.w3.org/2000/svg">
<path d="M75.9688 17.7083H72.1615H12.8385H9.03125C6.98594 17.7083 5.3125 19.2844 5.3125 21.25V40.7292V42.5V44.2708V46.0417V65.5208C5.3125 67.4865 6.98594 69.0625 9.03125 69.0625H12.8385H72.1615H75.9688C78.0141 69.0625 79.6875 67.4865 79.6875 65.5208V46.0417V44.2708V42.5V40.7292V21.25C79.6875 19.2844 78.0141 17.7083 75.9688 17.7083V17.7083Z" fill="url(#paint0_linear_1520_1693)"/>
<path d="M28.3337 56.6667H10.6253C9.64782 56.6667 8.85449 55.8733 8.85449 54.8958V33.6458C8.85449 32.6683 9.64782 31.875 10.6253 31.875H28.3337C29.3112 31.875 30.1045 32.6683 30.1045 33.6458V54.8958C30.1045 55.8733 29.3112 56.6667 28.3337 56.6667V56.6667Z" fill="url(#paint1_linear_1520_1693)"/>
<path d="M49.583 56.6667H35.4163C34.4388 56.6667 33.6455 55.8733 33.6455 54.8958V49.5833H51.3538V54.8958C51.3538 55.8733 50.5605 56.6667 49.583 56.6667Z" fill="url(#paint2_linear_1520_1693)"/>
<path d="M51.3538 49.5833H33.6455V33.6458C33.6455 32.6683 34.4388 31.875 35.4163 31.875H49.583C50.5605 31.875 51.3538 32.6683 51.3538 33.6458V49.5833Z" fill="url(#paint3_linear_1520_1693)"/>
<path d="M76.1455 33.6458V54.8958C76.1455 55.8733 75.3522 56.6667 74.3747 56.6667H56.6663C55.6888 56.6667 54.8955 55.8733 54.8955 54.8958V33.6458C54.8955 32.6683 55.6888 31.875 56.6663 31.875H74.3747C75.3522 31.875 76.1455 32.6683 76.1455 33.6458Z" fill="url(#paint4_linear_1520_1693)"/>
<path d="M69.0622 44.2708C69.0622 49.6188 66.1049 54.276 61.7309 56.6667H56.6663C55.6888 56.6667 54.8955 55.8733 54.8955 54.8958V33.6458C54.8955 32.6683 55.6888 31.875 56.6663 31.875H61.7309C66.1049 34.2656 69.0622 38.9229 69.0622 44.2708Z" fill="url(#paint5_linear_1520_1693)"/>
<path d="M30.1042 33.6458V54.8958C30.1042 55.8733 29.3108 56.6667 28.3333 56.6667H23.2688C18.8948 54.276 15.9375 49.6187 15.9375 44.2708C15.9375 38.9229 18.8948 34.2656 23.2688 31.875H28.3333C29.3108 31.875 30.1042 32.6683 30.1042 33.6458V33.6458Z" fill="url(#paint6_linear_1520_1693)"/>
<path d="M30.1042 40.7292V47.8125C28.1563 47.8125 26.5625 46.2187 26.5625 44.2708C26.5625 42.3229 28.1563 40.7292 30.1042 40.7292V40.7292Z" fill="url(#paint7_linear_1520_1693)"/>
<path d="M58.4372 44.2708C58.4372 46.2187 56.8434 47.8125 54.8955 47.8125V40.7292C56.8434 40.7292 58.4372 42.3229 58.4372 44.2708V44.2708Z" fill="url(#paint8_linear_1520_1693)"/>
<defs>
<linearGradient id="paint0_linear_1520_1693" x1="42.5" y1="16.7822" x2="42.5" y2="90.463" gradientUnits="userSpaceOnUse">
<stop stop-color="#199AE0"/>
<stop offset="1" stop-color="#0782D8"/>
</linearGradient>
<linearGradient id="paint1_linear_1520_1693" x1="19.4795" y1="29.3392" x2="19.4795" y2="67.0384" gradientUnits="userSpaceOnUse">
<stop stop-color="#F9F9F9"/>
<stop offset="0.276" stop-color="#EFF0F1"/>
<stop offset="0.746" stop-color="#D3D8DA"/>
<stop offset="1" stop-color="#C2C8CC"/>
</linearGradient>
<linearGradient id="paint2_linear_1520_1693" x1="42.4997" y1="45.2767" x2="42.4997" y2="59.7656" gradientUnits="userSpaceOnUse">
<stop stop-color="#F44F5A"/>
<stop offset="0.443" stop-color="#EE3D4A"/>
<stop offset="1" stop-color="#E52030"/>
</linearGradient>
<linearGradient id="paint3_linear_1520_1693" x1="42.4997" y1="30.5469" x2="42.4997" y2="56.8951" gradientUnits="userSpaceOnUse">
<stop stop-color="#F9F9F9"/>
<stop offset="0.276" stop-color="#EFF0F1"/>
<stop offset="0.746" stop-color="#D3D8DA"/>
<stop offset="1" stop-color="#C2C8CC"/>
</linearGradient>
<linearGradient id="paint4_linear_1520_1693" x1="65.5205" y1="29.3392" x2="65.5205" y2="67.0384" gradientUnits="userSpaceOnUse">
<stop stop-color="#F9F9F9"/>
<stop offset="0.276" stop-color="#EFF0F1"/>
<stop offset="0.746" stop-color="#D3D8DA"/>
<stop offset="1" stop-color="#C2C8CC"/>
</linearGradient>
<linearGradient id="paint5_linear_1520_1693" x1="61.9788" y1="30.1856" x2="61.9788" y2="60.7608" gradientUnits="userSpaceOnUse">
<stop stop-color="#4C4C4C"/>
<stop offset="1" stop-color="#343434"/>
</linearGradient>
<linearGradient id="paint6_linear_1520_1693" x1="23.0208" y1="30.1856" x2="23.0208" y2="60.7608" gradientUnits="userSpaceOnUse">
<stop stop-color="#4C4C4C"/>
<stop offset="1" stop-color="#343434"/>
</linearGradient>
<linearGradient id="paint7_linear_1520_1693" x1="28.3333" y1="40.568" x2="28.3333" y2="49.748" gradientUnits="userSpaceOnUse">
<stop stop-color="#F9F9F9"/>
<stop offset="0.276" stop-color="#EFF0F1"/>
<stop offset="0.746" stop-color="#D3D8DA"/>
<stop offset="1" stop-color="#C2C8CC"/>
</linearGradient>
<linearGradient id="paint8_linear_1520_1693" x1="56.6663" y1="40.568" x2="56.6663" y2="49.748" gradientUnits="userSpaceOnUse">
<stop stop-color="#F9F9F9"/>
<stop offset="0.276" stop-color="#EFF0F1"/>
<stop offset="0.746" stop-color="#D3D8DA"/>
<stop offset="1" stop-color="#C2C8CC"/>
</linearGradient>
</defs>
</svg>
