<svg width="100" height="100" viewBox="0 0 100 100" fill="none" xmlns="http://www.w3.org/2000/svg">
<g clip-path="url(#clip0)">
<path d="M49.9993 8.33337L47.916 10.4167V50H52.9452L79.4577 23.4875V20.5417C71.916 13 61.4993 8.33338 49.9993 8.33338V8.33337Z" fill="url(#paint0_linear)"/>
<path d="M79.4625 20.5376L50 50.0001L52.0833 52.0834H89.5771L91.6604 50.0001C91.6604 39.3355 87.5937 28.6689 79.4625 20.5376V20.5376Z" fill="url(#paint1_linear)"/>
<path d="M91.6667 50H50V52.9458L76.5125 79.4583H79.4583C87 71.9167 91.6667 61.5 91.6667 50Z" fill="url(#paint2_linear)"/>
<path d="M79.4618 79.4625L49.9993 50L47.916 52.0833V89.5771L49.9993 91.6604C60.6639 91.6604 71.3306 87.5937 79.4619 79.4625H79.4618Z" fill="url(#paint3_linear)"/>
<path d="M50.0003 91.6667V50H47.0545L20.542 76.5125V79.4583C28.0837 87 38.5003 91.6667 50.0003 91.6667Z" fill="url(#paint4_linear)"/>
<path d="M20.5368 79.4626L49.9993 50.0001L47.9159 47.9167H10.4222L8.33887 50.0001C8.33887 60.6647 12.4055 71.3313 20.5368 79.4626L20.5368 79.4626Z" fill="url(#paint5_linear)"/>
<path d="M8.33301 50H49.9997V47.0541L23.4872 20.5416H20.5413C12.9997 28.0833 8.33301 38.5 8.33301 50H8.33301Z" fill="url(#paint6_linear)"/>
<path d="M20.5381 20.5376L50.0006 50.0001V8.33972C39.336 8.33972 28.6693 12.4064 20.5381 20.5376L20.5381 20.5376Z" fill="url(#paint7_linear)"/>
<path d="M70.8327 50.0001C70.8327 61.5042 61.5035 70.8334 49.9993 70.8334C38.4952 70.8334 29.166 61.5042 29.166 50.0001C29.166 38.4959 38.4952 29.1667 49.9993 29.1667C61.5035 29.1667 70.8327 38.4959 70.8327 50.0001Z" fill="url(#paint8_linear)"/>
</g>
<defs>
<linearGradient id="paint0_linear" x1="34.9118" y1="6.49588" x2="64.3389" y2="35.9209" gradientUnits="userSpaceOnUse">
<stop stop-color="#F44F5A"/>
<stop offset="0.443" stop-color="#EE3D4A"/>
<stop offset="1" stop-color="#E52030"/>
</linearGradient>
<linearGradient id="paint1_linear" x1="70.8242" y1="0.208988" x2="70.821" y2="99.4971" gradientUnits="userSpaceOnUse">
<stop stop-color="#FED100"/>
<stop offset="1" stop-color="#E36001"/>
</linearGradient>
<linearGradient id="paint2_linear" x1="85.5625" y1="43.8958" x2="63.2563" y2="66.2021" gradientUnits="userSpaceOnUse">
<stop stop-color="#FFD747"/>
<stop offset="0.482" stop-color="#FFD645"/>
<stop offset="1" stop-color="#F5BC00"/>
</linearGradient>
<linearGradient id="paint3_linear" x1="79.4715" y1="70.8398" x2="47.9257" y2="70.8403" gradientUnits="userSpaceOnUse">
<stop stop-color="#33C481"/>
<stop offset="1" stop-color="#21A366"/>
</linearGradient>
<linearGradient id="paint4_linear" x1="56.1045" y1="85.5625" x2="33.7982" y2="63.2563" gradientUnits="userSpaceOnUse">
<stop stop-color="#28AFEA"/>
<stop offset="1" stop-color="#0B88DA"/>
</linearGradient>
<linearGradient id="paint5_linear" x1="29.1726" y1="83.9675" x2="29.1746" y2="52.4202" gradientUnits="userSpaceOnUse">
<stop offset="0.002" stop-color="#427FDB"/>
<stop offset="0.397" stop-color="#2668CB"/>
<stop offset="0.763" stop-color="#1358BF"/>
<stop offset="1" stop-color="#0C52BB"/>
</linearGradient>
<linearGradient id="paint6_linear" x1="14.4372" y1="56.1041" x2="36.7434" y2="33.7979" gradientUnits="userSpaceOnUse">
<stop stop-color="#A235D4"/>
<stop offset="0.441" stop-color="#A033D1"/>
<stop offset="0.702" stop-color="#982CC9"/>
<stop offset="0.915" stop-color="#8B21BB"/>
<stop offset="1" stop-color="#831BB3"/>
</linearGradient>
<linearGradient id="paint7_linear" x1="20.5347" y1="29.1889" x2="101.101" y2="29.1875" gradientUnits="userSpaceOnUse">
<stop stop-color="#E83C67"/>
<stop offset="0.423" stop-color="#C5214A"/>
<stop offset="0.773" stop-color="#B01038"/>
<stop offset="1" stop-color="#A80A31"/>
</linearGradient>
<linearGradient id="paint8_linear" x1="46.3806" y1="29.4792" x2="53.6181" y2="70.5209" gradientUnits="userSpaceOnUse">
<stop stop-color="#FAFAFB"/>
<stop offset="0.293" stop-color="#F6F7F8"/>
<stop offset="0.566" stop-color="#EBECEE"/>
<stop offset="0.832" stop-color="#D8DCDF"/>
<stop offset="1" stop-color="#C8CDD1"/>
</linearGradient>
<clipPath id="clip0">
<rect width="100" height="100" fill="white"/>
</clipPath>
</defs>
</svg>
