<svg width="100" height="100" viewBox="0 0 100 100" fill="none" xmlns="http://www.w3.org/2000/svg">
<g clip-path="url(#clip0)">
<path d="M87.5 68.75H16.6667C14.3646 68.75 12.5 70.6146 12.5 72.9167V85.4167C12.5 87.7167 14.3646 89.5833 16.6667 89.5833H37.5H87.5C89.8021 89.5833 91.6667 87.7167 91.6667 85.4167V72.9167C91.6667 70.6146 89.8021 68.75 87.5 68.75Z" fill="#D7DFE2"/>
<path d="M49.9996 68.75V89.5833H27.9746L33.3329 68.75H49.9996Z" fill="#184686"/>
<path d="M75 89.5833V68.75H87.5C89.8021 68.75 91.6667 70.6146 91.6667 72.9167V85.4167C91.6667 87.7187 89.8021 89.5833 87.5 89.5833H75Z" fill="#3CCBF4"/>
<path d="M70.8337 68.75V89.5833H54.167V68.75H70.8337Z" fill="#0A68B6"/>
<path opacity="0.05" d="M27.5273 68.75V89.5L62.7336 68.75H27.5273Z" fill="black"/>
<path opacity="0.05" d="M27.5273 68.75V89.5833H29.4378L64.7836 68.75H27.5273Z" fill="black"/>
<path d="M86.1667 48.8936L79.8188 38.1249C78.65 36.1415 76.0958 35.4832 74.1125 36.6499L13.0917 72.6165C12.875 72.7436 12.6833 72.8936 12.5 73.0499V79.8186L17.9646 89.0894C18.0708 89.2707 18.1979 89.4269 18.325 89.5832H25.3354L84.6937 54.5999C86.675 53.4311 87.3354 50.8769 86.1667 48.8936H86.1667Z" fill="#D7DFE2"/>
<path d="M59.7558 45.1146L70.335 63.0625L55.9766 71.525L45.3975 53.5771L59.7558 45.1146Z" fill="#23B368"/>
<path opacity="0.05" d="M46.7692 52.7687L25.915 89.2417L35.363 83.6729L57.7234 46.3125L46.7692 52.7687Z" fill="black"/>
<path d="M73.9229 60.9457L63.3438 42.9978L74.1125 36.6499C76.0958 35.4811 78.65 36.1416 79.8187 38.1228L86.1667 48.8916C87.3354 50.8749 86.675 53.4291 84.6938 54.5978L73.9229 60.9457Z" fill="#30DC80"/>
<path opacity="0.05" d="M46.7692 52.7687L25.915 89.2416L33.4859 84.7791L55.8484 47.4166L46.7692 52.7687Z" fill="black"/>
<path d="M41.8084 55.6917L52.3876 73.6396L30.2709 86.6687L27.4521 64.1542L41.8084 55.6917Z" fill="#0A8645"/>
<path d="M64.4667 22.8708L53.7396 16.4542C51.7646 15.2729 49.2062 15.9167 48.025 17.8917L12.5 77.2917V83.9479C12.6875 84.1104 12.8854 84.2667 13.1042 84.3979L21.775 89.5833H29.3937C29.4417 89.5125 29.5021 89.4521 29.5479 89.3771L65.9042 28.5854C67.0854 26.6104 66.4417 24.0521 64.4667 22.8708L64.4667 22.8708Z" fill="#D7DFE2"/>
<path d="M39.4682 32.1958L57.3474 42.8895L48.7932 57.1937L30.9141 46.5L39.4682 32.1958Z" fill="#F8BE00"/>
<path d="M28.7768 50.077L46.656 60.7708L33.0622 83.4791L20.2227 64.3812L28.7768 50.077Z" fill="#FF8F3B"/>
<path opacity="0.05" d="M28.7227 89.5833H29.3935H33.7914C34.7914 88.475 35.4164 87.0229 35.4164 85.4166V38.9729L28.7227 50.1646V89.5833Z" fill="black"/>
<path opacity="0.05" d="M28.7227 89.5832H29.3935H32.2602C33.5372 88.6332 34.3747 87.127 34.3747 85.4166V40.7145L28.7227 50.1645V89.5832Z" fill="black"/>
<path d="M59.4866 39.3125L41.6074 28.6187L48.0241 17.8917C49.2053 15.9167 51.7637 15.2729 53.7387 16.4542L64.4658 22.8708C66.4408 24.0521 67.0845 26.6104 65.9033 28.5854L59.4866 39.3125Z" fill="#FEDE00"/>
<path d="M29.1667 89.5833H16.6667C14.3646 89.5833 12.5 87.7187 12.5 85.4166V14.5833C12.5 12.2812 14.3646 10.4166 16.6667 10.4166H29.1667C31.4688 10.4166 33.3333 12.2812 33.3333 14.5833V85.4166C33.3333 87.7187 31.4688 89.5833 29.1667 89.5833Z" fill="url(#paint0_linear)"/>
<path d="M33.3333 27.0833H12.5V14.5833C12.5 12.2812 14.3646 10.4166 16.6667 10.4166H29.1667C31.4688 10.4166 33.3333 12.2812 33.3333 14.5833V27.0833Z" fill="#FF8DB6"/>
<path d="M12.5 31.25H33.3333V47.9167H12.5V31.25Z" fill="#F95568"/>
<path d="M12.5 52.0833H33.3333V68.7499H12.5V52.0833Z" fill="#CE0D24"/>
<path d="M22.9163 77.0833C21.7663 77.0833 20.833 78.0166 20.833 79.1666C20.833 80.3166 21.7663 81.2499 22.9163 81.2499C24.0663 81.2499 24.9997 80.3166 24.9997 79.1666C24.9997 78.0166 24.0663 77.0833 22.9163 77.0833Z" fill="#455A64"/>
</g>
<defs>
<linearGradient id="paint0_linear" x1="22.9167" y1="50" x2="22.9167" y2="95.5666" gradientUnits="userSpaceOnUse">
<stop stop-color="#C8CDD1"/>
<stop offset="1" stop-color="#B3B3B3"/>
</linearGradient>
<clipPath id="clip0">
<rect width="100" height="100" fill="white"/>
</clipPath>
</defs>
</svg>
