<svg width="48" height="48" viewBox="0 0 48 48" fill="none" xmlns="http://www.w3.org/2000/svg">
<g clip-path="url(#clip0_1340_2356)">
<path d="M34 9H14C8.47699 9 4 13.477 4 19V40C4 41.105 4.895 42 6 42H34V9Z" fill="#007AD9"/>
<path d="M42 41C42.551 41 43 40.552 43 40V19C43 14.037 38.962 10 34 10C29.038 10 25 14.037 25 19V40C25 40.552 25.449 41 26 41H42Z" fill="url(#paint0_linear_1340_2356)"/>
<path d="M18 3H20V18H18V3Z" fill="#CF1928"/>
<path d="M15 6H20V3C20 2.448 19.552 2 19 2H15C14.448 2 14 2.448 14 3V5C14 5.552 14.448 6 15 6H15Z" fill="#CF1928"/>
<path d="M18 20C16.8954 20 16 19.1046 16 18C16 16.8954 16.8954 16 18 16C19.1046 16 20 16.8954 20 18C20 19.1046 19.1046 20 18 20Z" fill="#D9414F"/>
<path d="M35.4385 31.688L14.0635 23.193V38.813C14.0635 39.469 14.5945 40.001 15.2505 40.001H35.4385V31.688Z" fill="url(#paint1_linear_1340_2356)"/>
<path d="M38 23.192V38.812C38 39.469 37.469 40 36.813 40H14.25C13.958 40 13.695 39.891 13.488 39.716L38 23.192Z" fill="url(#paint2_linear_1340_2356)"/>
<path opacity="0.05" d="M38 22.781H13.063V23.786L23.347 31.772C24.632 32.77 26.432 32.77 27.717 31.772L38 23.786L38 22.781Z" fill="black"/>
<path opacity="0.07" d="M38 22.484H13.063V23.489L23.77 31.274C24.816 32.048 26.246 32.048 27.292 31.274L38 23.489V22.484Z" fill="black"/>
<path d="M36.813 21H14.25C13.594 21 13.063 21.531 13.063 22.188V23.193L24.195 30.778C25.002 31.328 26.063 31.328 26.869 30.778L38 23.192V22.187C38 21.531 37.469 21 36.813 21L36.813 21Z" fill="#FABB62"/>
<path d="M34 11C29.589 11 26 14.589 26 19V40H42V19C42 14.589 38.411 11 34 11H34ZM34 9C39.523 9 44 13.477 44 19V40C44 41.105 43.105 42 42 42H26C24.895 42 24 41.105 24 40V19C24 13.477 28.477 9 34 9H34Z" fill="url(#paint3_linear_1340_2356)"/>
<path d="M26 42H47C47.552 42 48 41.552 48 41C48 40.448 47.552 40 47 40H24C24 41.105 24.895 42 26 42V42Z" fill="url(#paint4_linear_1340_2356)"/>
<path d="M10 20H24V41H10V20Z" fill="#007AD9"/>
<path opacity="0.3" d="M26 21H30V40H26V21Z" fill="url(#paint5_linear_1340_2356)"/>
</g>
<defs>
<linearGradient id="paint0_linear_1340_2356" x1="75.075" y1="66.393" x2="29.075" y2="23.143" gradientUnits="userSpaceOnUse">
<stop offset="0.266" stop-color="#0071D4"/>
<stop offset="0.446" stop-color="#006FD2"/>
<stop offset="0.595" stop-color="#0068CA"/>
<stop offset="0.712" stop-color="#005DBD"/>
<stop offset="0.793" stop-color="#004DAA"/>
<stop offset="0.884" stop-color="#003891"/>
<stop offset="1" stop-color="#002B82"/>
</linearGradient>
<linearGradient id="paint1_linear_1340_2356" x1="35.2895" y1="31.596" x2="14.1055" y2="31.596" gradientUnits="userSpaceOnUse">
<stop stop-color="#F7AB40"/>
<stop offset="0.32" stop-color="#F4A73C"/>
<stop offset="0.671" stop-color="#ED992F"/>
<stop offset="1" stop-color="#E2861D"/>
</linearGradient>
<linearGradient id="paint2_linear_1340_2356" x1="36.226" y1="20.375" x2="24" y2="42.587" gradientUnits="userSpaceOnUse">
<stop stop-color="#EBA84B"/>
<stop offset="1" stop-color="#D97218"/>
</linearGradient>
<linearGradient id="paint3_linear_1340_2356" x1="44" y1="25.5" x2="24" y2="25.5" gradientUnits="userSpaceOnUse">
<stop stop-color="#42A3F2"/>
<stop offset="1" stop-color="#42A4EB"/>
</linearGradient>
<linearGradient id="paint4_linear_1340_2356" x1="48" y1="41" x2="24" y2="41" gradientUnits="userSpaceOnUse">
<stop stop-color="#42A3F2"/>
<stop offset="1" stop-color="#42A4EB"/>
</linearGradient>
<linearGradient id="paint5_linear_1340_2356" x1="-75.4744" y1="109.292" x2="-14.7083" y2="109.292" gradientUnits="userSpaceOnUse">
<stop offset="0.702"/>
<stop offset="0.936" stop-opacity="0.098"/>
<stop offset="1" stop-opacity="0"/>
</linearGradient>
<clipPath id="clip0_1340_2356">
<rect width="48" height="48" fill="white" transform="matrix(-1 0 0 1 48 0)"/>
</clipPath>
</defs>
</svg>
