<svg width="25" height="25" viewBox="0 0 25 25" fill="none" xmlns="http://www.w3.org/2000/svg">
<path d="M12.4879 3.11387C12.0568 3.1206 11.7126 3.47522 11.7188 3.90631V15.0412L9.92745 13.2498C9.78033 13.0983 9.57813 13.0128 9.36694 13.0128C9.0489 13.0128 8.76264 13.2057 8.6431 13.5004C8.52356 13.7951 8.59459 14.1329 8.82271 14.3545L11.9477 17.4795C12.2528 17.7845 12.7473 17.7845 13.0525 17.4795L16.1775 14.3545C16.3815 14.1586 16.4637 13.8676 16.3924 13.5938C16.321 13.32 16.1072 13.1062 15.8334 13.0348C15.5596 12.9635 15.2687 13.0457 15.0727 13.2498L13.2813 15.0412V3.9063C13.2844 3.69504 13.2017 3.49156 13.0522 3.34226C12.9027 3.19296 12.6991 3.11056 12.4879 3.11387ZM3.89413 16.1347C3.46305 16.1414 3.1189 16.4961 3.12508 16.9271V19.0105C3.12508 20.5833 4.41687 21.8751 5.98967 21.8751H19.0105C20.5833 21.8751 21.8751 20.5833 21.8751 19.0105V16.9271C21.8791 16.6454 21.731 16.3833 21.4877 16.2413C21.2443 16.0993 20.9433 16.0993 20.7 16.2413C20.4566 16.3833 20.3086 16.6454 20.3126 16.9271V19.0105C20.3126 19.7387 19.7387 20.3126 19.0105 20.3126H5.98966C5.26142 20.3126 4.68758 19.7387 4.68758 19.0105V16.9271C4.69061 16.7159 4.60796 16.5124 4.45846 16.3631C4.30897 16.2138 4.10538 16.1314 3.89412 16.1347H3.89413Z" fill="white"/>
</svg>
