<svg width="48" height="48" viewBox="0 0 48 48" fill="none" xmlns="http://www.w3.org/2000/svg">
<g clip-path="url(#clip0_1516_1656)">
<path d="M24 7C16.51 7 10.3301 12.71 9.58008 20H9C4.04 20 0 24.04 0 29C0 33.96 4.04 38 9 38H19.0098L15.8008 35H9C5.69 35 3 32.31 3 29C3 25.69 5.69 23 9 23H11C11.83 23 12.5 22.33 12.5 21.5C12.5 15.16 17.66 10 24 10C30.34 10 35.5 15.16 35.5 21.5C35.5 22.33 36.17 23 37 23H39C42.31 23 45 25.69 45 29C45 32.31 42.31 35 39 35H32.1992L28.9902 38H39C43.96 38 48 33.96 48 29C48 24.04 43.96 20 39 20H38.4199C37.6699 12.71 31.49 7 24 7V7ZM23.9766 17.9785C23.1489 17.9914 22.4881 18.6723 22.5 19.5V33.0469L17.5234 28.4043C17.231 28.1231 16.8371 27.9723 16.4316 27.9863C15.822 28.0082 15.2864 28.3971 15.0767 28.9699C14.8671 29.5427 15.0251 30.1855 15.4766 30.5957L22.9766 37.5957C23.5529 38.1335 24.4471 38.1335 25.0234 37.5957L32.5234 30.5957C32.9359 30.2352 33.1191 29.6786 33.0013 29.1436C32.8835 28.6087 32.4835 28.1804 31.9578 28.0265C31.4321 27.8725 30.8643 28.0174 30.4766 28.4043L25.5 33.0469V19.5C25.5058 19.0944 25.3471 18.7037 25.0601 18.417C24.7731 18.1304 24.3822 17.9722 23.9766 17.9785L23.9766 17.9785Z" fill="white"/>
</g>
<defs>
<clipPath id="clip0_1516_1656">
<rect width="48" height="48" fill="white"/>
</clipPath>
</defs>
</svg>
