<svg width="50" height="50" viewBox="0 0 50 50" fill="none" xmlns="http://www.w3.org/2000/svg">
<rect width="50" height="50" fill="#FFB5D2"/>
<path d="M25.125 10.5C33.2249 10.5 39.7499 17.025 39.7499 25.125C39.7499 33.2249 33.2249 39.7499 25.125 39.7499C17.025 39.7499 10.5 33.2249 10.5 25.125C10.5 17.025 17.025 10.5 25.125 10.5ZM25.125 8.25C15.9 8.25 8.25 15.9 8.25 25.125C8.25 34.3499 15.9 41.9999 25.125 41.9999C34.3499 41.9999 41.9999 34.3499 41.9999 25.125C41.9999 15.9 34.3499 8.25 25.125 8.25Z" fill="#EA4C89"/>
<path d="M31.4248 40.1999C31.4248 39.9749 28.7248 21.75 17.9248 10.275L19.8749 9.375C31.1248 21.3 33.3748 38.6999 33.3748 39.3749L31.4248 40.1999Z" fill="#EA4C89"/>
<path d="M11.8499 24.45C9.82495 24.45 8.7001 24.4125 8.4751 24.1875L8.99988 22.125C9.22488 22.125 29.3999 23.55 35.9249 12.75L37.8749 14.25C32.2499 23.7 18.5999 24.45 11.8499 24.45ZM15.2249 38.1749L13.4999 36.75C13.4999 36.525 21.2999 18.525 41.9999 25.5L41.5499 27.825C22.8749 21.525 15.6749 37.5 15.2249 38.1749Z" fill="#EA4C89"/>
</svg>
