<svg width="35" height="35" viewBox="0 0 35 35" fill="none" xmlns="http://www.w3.org/2000/svg">
<path opacity="0.35" d="M17.5003 32.0837C25.5545 32.0837 32.0837 25.5545 32.0837 17.5003C32.0837 9.44618 25.5545 2.91699 17.5003 2.91699C9.44618 2.91699 2.91699 9.44618 2.91699 17.5003C2.91699 25.5545 9.44618 32.0837 17.5003 32.0837Z" fill="#F35E84"/>
<path d="M17.5003 2.91699C9.44595 2.91699 2.91699 9.44595 2.91699 17.5003C2.91699 25.5547 9.44595 32.0837 17.5003 32.0837C25.5547 32.0837 32.0837 25.5547 32.0837 17.5003C32.0837 9.44595 25.5547 2.91699 17.5003 2.91699V2.91699ZM29.1378 16.9126C26.2416 16.0624 23.6312 15.9603 21.311 16.3497C21.028 15.7212 20.7378 15.1116 20.4403 14.521C22.8918 13.4549 25.0618 12.0053 26.4589 10.038C28.0295 11.9207 29.0066 14.3066 29.1378 16.9126V16.9126ZM24.2918 8.03283C23.2476 9.71866 21.3299 10.9903 19.0535 11.9455C17.6578 9.5422 16.2403 7.56908 15.0722 6.09179C15.8568 5.92554 16.6676 5.83366 17.5003 5.83366C20.0349 5.83366 22.377 6.6547 24.2918 8.03283ZM12.1672 7.13595C13.2843 8.48199 14.7645 10.4493 16.2432 12.9241C12.7491 13.9347 8.95303 14.3868 6.23178 14.5268C7.08199 11.3082 9.26803 8.63366 12.1672 7.13595H12.1672ZM5.83366 17.5003C5.83366 17.4872 5.83512 17.4755 5.83512 17.4624C8.21804 17.3589 13.0991 16.9724 17.6885 15.5389C17.948 16.0464 18.2018 16.5685 18.4512 17.1066C13.5643 18.9003 10.2903 22.7401 8.65845 25.0924C6.90262 23.0493 5.83366 20.3995 5.83366 17.5003L5.83366 17.5003ZM10.8241 27.0539C12.1176 25.056 15.0299 21.3416 19.5857 19.7739C20.5789 22.3741 21.3605 25.2557 21.7587 28.3518C20.436 28.871 19.0039 29.167 17.5003 29.167C15.0168 29.167 12.717 28.381 10.8241 27.0539H10.8241ZM24.4974 26.8147C24.057 24.0628 23.3278 21.4962 22.4499 19.1293C24.3793 18.9149 26.5362 19.103 28.9205 19.8891C28.3314 22.7051 26.717 25.142 24.4974 26.8147Z" fill="#F35E84"/>
</svg>
