<svg width="85" height="85" viewBox="0 0 85 85" fill="none" xmlns="http://www.w3.org/2000/svg">
<path d="M66.8419 3.60511C57.8629 26.4586 41.9256 29.4199 28.9834 29.4199V37.8568C40.1813 37.8568 49.502 35.3152 57.0656 30.1961L39.3587 78.2485C39.1562 78.7948 39.4367 79.4023 39.9851 79.6026L45.9247 81.7878C46.471 81.9882 47.0763 81.7098 47.2788 81.1635L74.7684 6.55591C74.9687 6.00962 74.6903 5.40427 74.1461 5.20179L68.1834 2.9871C67.6455 2.78883 67.0528 3.07147 66.8419 3.6051L66.8419 3.60511Z" fill="url(#paint0_linear_1521_1735)"/>
<path d="M27.9284 2C18.0298 2 10 10.0298 10 19.9284C10 29.827 18.0298 37.8568 27.9284 37.8568C37.827 37.8568 45.8568 29.827 45.8568 19.9284C45.8568 10.0298 37.827 2 27.9284 2Z" fill="url(#paint1_linear_1521_1735)"/>
<defs>
<linearGradient id="paint0_linear_1521_1735" x1="38.418" y1="-8.82878" x2="69.1114" y2="75.5023" gradientUnits="userSpaceOnUse">
<stop stop-color="#ED3675"/>
<stop offset="1" stop-color="#CA1B4D"/>
</linearGradient>
<linearGradient id="paint1_linear_1521_1735" x1="18.226" y1="-6.73009" x2="50.6659" y2="82.3974" gradientUnits="userSpaceOnUse">
<stop stop-color="#ED3675"/>
<stop offset="1" stop-color="#CA1B4D"/>
</linearGradient>
</defs>
</svg>
