<svg width="120" height="120" viewBox="0 0 120 120" fill="none" xmlns="http://www.w3.org/2000/svg">
<g clip-path="url(#clip0)">
<path d="M22.5 64.9999L112.5 29.2499V94.9999C112.5 97.7499 110.25 99.9999 107.5 99.9999H22.5V64.9999Z" fill="url(#paint0_linear)"/>
<path d="M7.5 29.2499V94.9999C7.5 97.7499 9.75 99.9999 12.5 99.9999H107.5C108.75 99.9999 109.75 99.4999 110.75 98.7499L7.5 29.2499Z" fill="url(#paint1_linear)"/>
<path opacity="0.05" d="M7.50001 27.5H112.5V31.75L69.25 65.25C63.75 69.5 56.25 69.5 50.75 65.25L7.5 31.75L7.50001 27.5Z" fill="black"/>
<path opacity="0.07" d="M7.5 26.25H112.5V30.5L67.5 63.25C63 66.5 57 66.5 52.75 63.25L7.5 30.5V26.25Z" fill="black"/>
<path d="M12.5 20H107.5C110.25 20 112.5 22.25 112.5 25V29.25L65.75 61.25C62.25 63.5 58 63.5 54.5 61.25L7.5 29.25V25C7.5 22.25 9.75 20 12.5 20H12.5Z" fill="#7B83EB"/>
<path opacity="0.6" d="M107.5 20H63.25C62.75 20.75 62.5 21.5 62.5 22.5V47.5C62.5 50.25 64.75 52.5 67.5 52.5H112.5V25C112.5 22.25 110.25 20 107.5 20V20Z" fill="#F35E84"/>
</g>
<defs>
<linearGradient id="paint0_linear" x1="53.79" y1="44.0949" x2="113.98" y2="134.182" gradientUnits="userSpaceOnUse">
<stop stop-color="#5059C9"/>
<stop offset="0.999" stop-color="#4750B3"/>
</linearGradient>
<linearGradient id="paint1_linear" x1="3.52" y1="61.0249" x2="90.8275" y2="115.41" gradientUnits="userSpaceOnUse">
<stop stop-color="#5961C3"/>
<stop offset="1" stop-color="#3A41AC"/>
</linearGradient>
<clipPath id="clip0">
<rect width="120" height="120" fill="white"/>
</clipPath>
</defs>
</svg>
