<svg width="20" height="30" viewBox="0 0 20 30" fill="none" xmlns="http://www.w3.org/2000/svg">
<path d="M10.7143 10H5C2.23857 10 0 7.76143 0 5C0 2.23857 2.23857 0 5 0H10.7143V10Z" fill="url(#paint0_linear)"/>
<path d="M10 20H5C2.23857 20 0 17.7614 0 15C0 12.2386 2.23857 10 5 10H10V20Z" fill="url(#paint1_linear)"/>
<path d="M5 30C2.23857 30 0 27.7614 0 25C0 22.2386 2.23857 20 5 20H10V25C10 27.7614 7.76143 30 5 30Z" fill="url(#paint2_linear)"/>
<path d="M15 10H10V0H15C17.7614 0 20 2.23857 20 5C20 7.76143 17.7614 10 15 10Z" fill="url(#paint3_linear)"/>
<path d="M15 20C17.7614 20 20 17.7614 20 15C20 12.2386 17.7614 10 15 10C12.2386 10 10 12.2386 10 15C10 17.7614 12.2386 20 15 20Z" fill="url(#paint4_linear)"/>
<defs>
<linearGradient id="paint0_linear" x1="3.79214" y1="-1.35643" x2="8.58786" y2="11.8186" gradientUnits="userSpaceOnUse">
<stop stop-color="#F44F5A"/>
<stop offset="0.443" stop-color="#EE3D4A"/>
<stop offset="1" stop-color="#E52030"/>
</linearGradient>
<linearGradient id="paint1_linear" x1="3.31429" y1="8.31143" x2="8.08143" y2="21.4079" gradientUnits="userSpaceOnUse">
<stop stop-color="#AE4CD5"/>
<stop offset="1" stop-color="#9331BF"/>
</linearGradient>
<linearGradient id="paint2_linear" x1="2.72143" y1="16.6836" x2="7.72929" y2="30.4407" gradientUnits="userSpaceOnUse">
<stop stop-color="#33C481"/>
<stop offset="1" stop-color="#21A366"/>
</linearGradient>
<linearGradient id="paint3_linear" x1="11.7843" y1="-1.77714" x2="16.5136" y2="11.2157" gradientUnits="userSpaceOnUse">
<stop stop-color="#F09CA2"/>
<stop offset="1" stop-color="#EB6773"/>
</linearGradient>
<linearGradient id="paint4_linear" x1="65.2097" y1="35.9555" x2="80.8415" y2="78.904" gradientUnits="userSpaceOnUse">
<stop stop-color="#32BDEF"/>
<stop offset="1" stop-color="#1EA2E4"/>
</linearGradient>
</defs>
</svg>
