<svg width="160" height="160" viewBox="0 0 160 160" fill="none" xmlns="http://www.w3.org/2000/svg">
<path d="M146.667 79.9999C146.667 116.817 116.817 146.667 79.9999 146.667C43.1833 146.667 13.3333 116.817 13.3333 79.9999C13.3333 43.1833 43.1833 13.3333 79.9999 13.3333C116.817 13.3333 146.667 43.1833 146.667 79.9999Z" fill="url(#paint0_radial)"/>
<path d="M79.9999 136.666C111.296 136.666 136.666 111.296 136.666 79.9999C136.666 48.7038 111.296 23.3333 79.9999 23.3333C48.7038 23.3333 23.3333 48.7038 23.3333 79.9999C23.3333 111.296 48.7038 136.666 79.9999 136.666Z" fill="url(#paint1_linear)"/>
<path d="M77.5696 75.7899L119.78 55.5665C120.416 55.2632 121.176 55.5299 121.48 56.1665C121.756 56.7432 121.56 57.4199 121.05 57.7699L82.4296 84.2132C80.2062 85.7365 77.1729 85.1665 75.6496 82.9432C74.1262 80.7199 74.6962 77.6865 76.9196 76.1632C77.1229 76.0232 77.3562 75.8932 77.5696 75.7899Z" fill="#CF2E2E"/>
<path d="M79.9999 86.6666C83.6818 86.6666 86.6666 83.6818 86.6666 79.9999C86.6666 76.318 83.6818 73.3333 79.9999 73.3333C76.318 73.3333 73.3333 76.318 73.3333 79.9999C73.3333 83.6818 76.318 86.6666 79.9999 86.6666Z" fill="#ED5555"/>
<path d="M79.9998 36.6667C81.8408 36.6667 83.3332 35.1743 83.3332 33.3333C83.3332 31.4924 81.8408 30 79.9998 30C78.1589 30 76.6665 31.4924 76.6665 33.3333C76.6665 35.1743 78.1589 36.6667 79.9998 36.6667Z" fill="#666666"/>
<path d="M126.667 83.3332C128.508 83.3332 130 81.8408 130 79.9998C130 78.1589 128.508 76.6665 126.667 76.6665C124.826 76.6665 123.333 78.1589 123.333 79.9998C123.333 81.8408 124.826 83.3332 126.667 83.3332Z" fill="#666666"/>
<path d="M33.3333 83.3332C35.1743 83.3332 36.6667 81.8408 36.6667 79.9998C36.6667 78.1589 35.1743 76.6665 33.3333 76.6665C31.4924 76.6665 30 78.1589 30 79.9998C30 81.8408 31.4924 83.3332 33.3333 83.3332Z" fill="#666666"/>
<path d="M56.6666 42.9198C58.5075 42.9198 59.9999 41.4275 59.9999 39.5865C59.9999 37.7456 58.5075 36.2532 56.6666 36.2532C54.8256 36.2532 53.3333 37.7456 53.3333 39.5865C53.3333 41.4275 54.8256 42.9198 56.6666 42.9198Z" fill="#666666"/>
<path d="M39.5863 106.667C41.4272 106.667 42.9196 105.174 42.9196 103.333C42.9196 101.492 41.4272 100 39.5863 100C37.7453 100 36.2529 101.492 36.2529 103.333C36.2529 105.174 37.7453 106.667 39.5863 106.667Z" fill="#666666"/>
<path d="M39.5863 59.9999C41.4272 59.9999 42.9196 58.5075 42.9196 56.6666C42.9196 54.8256 41.4272 53.3333 39.5863 53.3333C37.7453 53.3333 36.2529 54.8256 36.2529 56.6666C36.2529 58.5075 37.7453 59.9999 39.5863 59.9999Z" fill="#666666"/>
<path d="M120.413 106.667C122.254 106.667 123.747 105.174 123.747 103.333C123.747 101.492 122.254 100 120.413 100C118.572 100 117.08 101.492 117.08 103.333C117.08 105.174 118.572 106.667 120.413 106.667Z" fill="#666666"/>
<path d="M103.333 42.9198C105.174 42.9198 106.667 41.4275 106.667 39.5865C106.667 37.7456 105.174 36.2532 103.333 36.2532C101.492 36.2532 100 37.7456 100 39.5865C100 41.4275 101.492 42.9198 103.333 42.9198Z" fill="#666666"/>
<defs>
<radialGradient id="paint0_radial" cx="0" cy="0" r="1" gradientUnits="userSpaceOnUse" gradientTransform="translate(130.937 129.393) scale(136.057)">
<stop stop-color="#9E6FD9"/>
<stop offset="0.173" stop-color="#AA73C7"/>
<stop offset="0.522" stop-color="#CA7F97"/>
<stop offset="1" stop-color="#FC914D"/>
</radialGradient>
<linearGradient id="paint1_linear" x1="147.406" y1="147.406" x2="431.6" y2="431.6" gradientUnits="userSpaceOnUse">
<stop stop-color="#4B4B4B"/>
<stop offset="0.531" stop-color="#393939"/>
<stop offset="1" stop-color="#252525"/>
</linearGradient>
</defs>
</svg>
