<svg width="50" height="50" viewBox="0 0 50 50" fill="none" xmlns="http://www.w3.org/2000/svg">
<g clip-path="url(#clip0)">
<rect width="50" height="50" fill="url(#paint0_linear)"/>
<path d="M41.75 25.8322C41.75 22.9898 40.7878 20.6322 39.1451 18.784C39.3235 18.3841 39.5093 17.8476 39.6016 17.1733C39.8132 15.6352 39.5634 14.7123 39.3518 13.8092C39.1402 12.906 38.8904 12.2711 38.8904 12.2711C38.8904 12.2711 37.7559 12.1554 36.7949 12.4827C35.8339 12.81 35.007 13.0598 33.8146 13.771C33.2572 14.1032 32.6961 14.4675 32.2519 14.7628C30.3533 14.2361 28.2652 13.9654 26.0688 13.9654C23.8527 13.9654 21.7461 14.2374 19.834 14.7677C19.3885 14.4712 18.8237 14.1045 18.2626 13.7698C17.0703 13.0586 16.2434 12.8088 15.2824 12.4815C14.3214 12.1542 13.1869 12.2698 13.1869 12.2698C13.1869 12.2698 12.9371 12.9048 12.7255 13.8079C12.5138 14.7111 12.2641 15.634 12.4757 17.1721C12.5704 17.8636 12.7624 18.4099 12.9457 18.8123C11.3338 20.6494 10.3888 22.9922 10.3888 25.8309C10.3888 33.1929 14.3657 36.5533 21.612 37.4405C20.7667 38.3338 20.1994 39.4782 20.0087 40.7517C19.5325 40.9609 18.9837 41.1578 18.4558 41.2365C17.0974 41.442 15.6614 41.2365 14.9699 40.8268C14.2783 40.417 13.4576 39.4942 12.8424 38.5959C12.3231 37.8379 11.5738 36.9581 10.8945 36.6481C9.99751 36.2383 9.1251 36.0845 8.63907 36.1608C8.1518 36.2383 7.9217 36.5964 8.02383 36.8535C8.12596 37.1095 8.61323 37.4946 9.12634 37.7764C9.63944 38.0582 10.4343 38.8272 10.8958 39.5704C11.4101 40.3998 11.511 40.8784 11.9466 41.8259C12.253 42.4928 13.3013 43.3259 14.0482 43.7738C14.6893 44.1589 15.9703 44.3779 17.3558 44.4407C17.8344 44.4628 18.9652 44.3226 19.9189 44.1872V48.8015C19.9189 49.5878 19.199 50.1858 18.4534 50.048C20.8466 50.8527 23.4023 51.2612 26.0688 51.2612C28.734 51.2612 31.2897 50.8527 33.6854 50.0504C32.941 50.187 32.2212 49.589 32.2212 48.8027V41.661C32.2212 40.0257 31.5727 38.5479 30.5317 37.4466C37.7251 36.5828 41.75 33.3024 41.75 25.8322L41.75 25.8322ZM10.3667 37.39C10.1772 37.2928 10.075 37.1132 10.139 36.9864C10.203 36.8597 10.4097 36.8363 10.5992 36.9335C10.7887 37.0307 10.8908 37.2104 10.8269 37.3371C10.7629 37.4639 10.5562 37.4872 10.3667 37.39ZM11.858 38.3191C11.7583 38.4273 11.5442 38.3929 11.3793 38.2428C11.2145 38.0926 11.1615 37.8822 11.2612 37.7739C11.3609 37.6657 11.575 37.7001 11.7399 37.8502C11.9048 38.0004 11.9577 38.2108 11.858 38.3191ZM12.7858 39.8571C12.6603 39.9457 12.4474 39.8633 12.3108 39.6726C12.1742 39.4818 12.1656 39.2542 12.2911 39.1656C12.4166 39.077 12.6295 39.1595 12.7661 39.3502C12.9014 39.5409 12.9113 39.7685 12.7858 39.8571ZM14.1184 41.015C14.0335 41.1528 13.7923 41.159 13.5807 41.0298C13.369 40.9006 13.2657 40.684 13.3506 40.5462C13.4355 40.4084 13.6766 40.4022 13.8883 40.5314C14.0999 40.6606 14.2033 40.8772 14.1184 41.015ZM15.3784 42.1483C15.1163 42.1163 14.9219 41.9527 14.944 41.7828C14.965 41.613 15.1951 41.5023 15.4559 41.5343C15.718 41.5663 15.9124 41.7299 15.8903 41.8997C15.8694 42.0683 15.6405 42.1803 15.3784 42.1483ZM17.4099 42.4424C17.1306 42.4264 16.9128 42.2664 16.9239 42.0868C16.9349 41.9071 17.17 41.773 17.4493 41.789C17.7286 41.805 17.9464 41.965 17.9353 42.1446C17.9243 42.3255 17.6892 42.4584 17.4099 42.4424ZM19.327 42.2504C19.0292 42.2504 18.7881 42.0954 18.7881 41.9047C18.7881 41.7139 19.0292 41.5589 19.327 41.5589C19.6248 41.5589 19.866 41.7139 19.866 41.9047C19.866 42.0954 19.6235 42.2504 19.327 42.2504Z" fill="white"/>
</g>
<defs>
<linearGradient id="paint0_linear" x1="0" y1="25" x2="50" y2="25" gradientUnits="userSpaceOnUse">
<stop stop-color="#4C4C4C"/>
<stop offset="1" stop-color="#343434"/>
</linearGradient>
<clipPath id="clip0">
<rect width="50" height="50" fill="white"/>
</clipPath>
</defs>
</svg>
