<svg width="35" height="35" viewBox="0 0 35 35" fill="none" xmlns="http://www.w3.org/2000/svg">
<path opacity="0.35" d="M17.5003 32.0837C25.5545 32.0837 32.0837 25.5545 32.0837 17.5003C32.0837 9.44618 25.5545 2.91699 17.5003 2.91699C9.44618 2.91699 2.91699 9.44618 2.91699 17.5003C2.91699 25.5545 9.44618 32.0837 17.5003 32.0837Z" fill="#F35E84"/>
<path d="M24.7921 11.1198C24.7921 10.4271 24.7454 9.57687 24.4275 8.75C24.4275 8.75 22.3479 8.76458 20.3864 10.6225C19.4808 10.3585 18.5125 10.2083 17.5004 10.2083C16.4883 10.2083 15.52 10.3585 14.6143 10.6225C12.6529 8.76458 10.5733 8.75 10.5733 8.75C10.2568 9.57687 10.2087 10.4271 10.2087 11.1198C10.2087 12.1683 10.3954 12.8115 10.5077 13.1294C9.40956 14.3485 8.75039 15.8579 8.75039 17.5C8.75039 20.6879 11.1639 22.6494 14.5837 23.3333C13.8152 24.0085 13.3441 24.9521 13.1939 26.0108C12.8687 26.1683 12.3962 26.25 11.8494 26.25C11.4104 26.25 10.5573 26.0429 9.76248 24.8048C9.44164 24.3031 8.75039 23.3333 7.83893 23.3333C7.66102 23.3333 7.28623 23.3217 7.29206 23.5973C7.29498 23.7285 7.49623 23.73 7.92643 24.1135C8.28664 24.4358 8.62206 24.9637 8.75039 25.5208C8.96185 26.4352 9.80914 28.2552 11.8494 28.2552C12.5785 28.2552 13.1254 28.0729 13.1254 28.0729V31.414C14.5064 31.8471 15.9764 32.0833 17.5004 32.0833C19.0244 32.0833 20.4944 31.8471 21.8754 31.414V26.6146C21.8754 25.3035 21.33 24.1354 20.4171 23.3333C23.8369 22.6494 26.2504 20.6879 26.2504 17.5C26.2504 15.8871 25.6146 14.401 24.55 13.1935C24.6419 12.9092 24.7921 12.25 24.7921 11.1198L24.7921 11.1198Z" fill="#F35E84"/>
</svg>
