<svg width="48" height="48" viewBox="0 0 48 48" fill="none" xmlns="http://www.w3.org/2000/svg">
<path d="M39.4704 5.98629C39.4168 5.98798 39.3633 5.99255 39.3102 5.99996H31.4997C30.9587 5.99232 30.4556 6.27653 30.1828 6.74378C29.9101 7.21102 29.9101 7.78891 30.1828 8.25616C30.4556 8.7234 30.9587 9.00762 31.4997 8.99997H35.8786L29.8786 15H26.4997C25.9724 14.9997 25.4838 15.2763 25.2126 15.7285L22.6501 20H18.4997C17.9724 19.9998 17.4838 20.2763 17.2126 20.7285L14.6501 25H10.4997C9.97243 24.9998 9.48377 25.2763 9.21257 25.7285L6.21257 30.7285C5.93691 31.1883 5.92752 31.7603 6.18795 32.2289C6.44837 32.6976 6.93903 32.9917 7.47509 33.0004C8.01115 33.0092 8.51117 32.7313 8.78678 32.2715L11.3493 28H15.4997C16.0269 28.0002 16.5156 27.7236 16.7868 27.2715L19.3493 23H23.4997C24.0269 23.0002 24.5156 22.7236 24.7868 22.2715L27.3493 18H30.4997C30.8975 17.9999 31.279 17.8418 31.5602 17.5605L37.9997 11.1211V15.5C37.992 16.0409 38.2762 16.5441 38.7435 16.8168C39.2107 17.0895 39.7886 17.0895 40.2559 16.8168C40.7231 16.5441 41.0073 16.0409 40.9997 15.5V7.6738C41.0545 7.23948 40.9169 6.80288 40.6229 6.47851C40.329 6.15413 39.908 5.97434 39.4704 5.98629H39.4704ZM39.4762 19.9785C38.6486 19.9914 37.9878 20.6723 37.9997 21.5V40.5C37.992 41.0409 38.2762 41.5441 38.7435 41.8168C39.2107 42.0895 39.7886 42.0895 40.2559 41.8168C40.7231 41.5441 41.0073 41.0409 40.9997 40.5V21.5C41.0055 21.0943 40.8468 20.7037 40.5598 20.417C40.2727 20.1303 39.8818 19.9721 39.4762 19.9785ZM31.4762 21.9785C30.6486 21.9914 29.9878 22.6723 29.9997 23.5V40.5C29.992 41.0409 30.2762 41.5441 30.7435 41.8168C31.2107 42.0895 31.7886 42.0895 32.2559 41.8168C32.7231 41.5441 33.0073 41.0409 32.9997 40.5V23.5C33.0055 23.0943 32.8468 22.7037 32.5598 22.417C32.2727 22.1303 31.8818 21.9721 31.4762 21.9785H31.4762ZM23.4762 25.9785C22.6486 25.9914 21.9878 26.6723 21.9997 27.5V40.5C21.992 41.0409 22.2762 41.5441 22.7435 41.8168C23.2107 42.0895 23.7886 42.0895 24.2559 41.8168C24.7231 41.5441 25.0073 41.0409 24.9997 40.5V27.5C25.0055 27.0943 24.8468 26.7037 24.5598 26.417C24.2727 26.1303 23.8818 25.9721 23.4762 25.9785H23.4762ZM15.4762 30.9785C14.6486 30.9914 13.9878 31.6723 13.9997 32.5V40.5C13.992 41.0409 14.2762 41.5441 14.7435 41.8168C15.2107 42.0895 15.7886 42.0895 16.2559 41.8168C16.7231 41.5441 17.0073 41.0409 16.9997 40.5V32.5C17.0055 32.0943 16.8468 31.7037 16.5598 31.417C16.2727 31.1303 15.8818 30.9721 15.4762 30.9785H15.4762ZM7.47623 36.9785C6.64857 36.9914 5.9878 37.6723 5.99967 38.5V40.5C5.99202 41.0409 6.27623 41.5441 6.74348 41.8168C7.21073 42.0895 7.78861 42.0895 8.25586 41.8168C8.72311 41.5441 9.00732 41.0409 8.99967 40.5V38.5C9.00549 38.0943 8.84679 37.7037 8.55976 37.417C8.27273 37.1303 7.88185 36.9721 7.47624 36.9785H7.47623Z" fill="url(#paint0_linear_889_1293)"/>
<defs>
<linearGradient id="paint0_linear_889_1293" x1="5.99902" y1="24.0035" x2="41.0115" y2="24.0035" gradientUnits="userSpaceOnUse">
<stop stop-color="#6E82F9"/>
<stop offset="0.503125" stop-color="#22B9FF"/>
<stop offset="1" stop-color="#A6FFD8"/>
<stop offset="1" stop-color="#9FFBCE"/>
</linearGradient>
</defs>
</svg>
