<svg width="48" height="48" viewBox="0 0 48 48" fill="none" xmlns="http://www.w3.org/2000/svg">
<g clip-path="url(#clip0_1517_1651)">
<path d="M5.49988 9C4.95893 8.99235 4.45576 9.27656 4.18305 9.74381C3.91034 10.2111 3.91034 10.7889 4.18305 11.2562C4.45576 11.7234 4.95893 12.0077 5.49988 12H42.4999C43.0408 12.0077 43.544 11.7234 43.8167 11.2562C44.0894 10.7889 44.0894 10.2111 43.8167 9.74381C43.544 9.27656 43.0408 8.99235 42.4999 9H5.49988ZM5.49988 22.5C4.95893 22.4923 4.45576 22.7766 4.18305 23.2438C3.91034 23.7111 3.91034 24.2889 4.18305 24.7562C4.45576 25.2234 4.95893 25.5077 5.49988 25.5H42.4999C43.0408 25.5077 43.544 25.2234 43.8167 24.7562C44.0894 24.2889 44.0894 23.7111 43.8167 23.2438C43.544 22.7766 43.0408 22.4923 42.4999 22.5H5.49988ZM5.49988 36C4.95893 35.9924 4.45576 36.2766 4.18305 36.7438C3.91034 37.2111 3.91034 37.7889 4.18305 38.2562C4.45576 38.7234 4.95893 39.0077 5.49988 39H42.4999C43.0408 39.0077 43.544 38.7234 43.8167 38.2562C44.0894 37.7889 44.0894 37.2111 43.8167 36.7438C43.544 36.2766 43.0408 35.9924 42.4999 36H5.49988Z" fill="white"/>
</g>
<defs>
<clipPath id="clip0_1517_1651">
<rect width="48" height="48" fill="white"/>
</clipPath>
</defs>
</svg>
