<svg width="65" height="65" viewBox="0 0 65 65" fill="none" xmlns="http://www.w3.org/2000/svg">
<path d="M11.8174 47.5434L47.5444 11.8165L56.9111 21.1832C57.9687 22.2408 57.9687 23.9552 56.9111 25.0128L25.0151 56.9102C23.9575 57.9678 22.2431 57.9678 21.1855 56.9102L11.8174 47.5434Z" fill="url(#paint0_linear_1368_2520)"/>
<path d="M58.792 19.3727L19.3736 58.7911C18.316 59.8487 16.6016 59.8487 15.544 58.7911L8.09203 51.3391C7.03443 50.2815 7.03443 48.5672 8.09203 47.5096L47.5091 8.08977C48.5667 7.03217 50.2811 7.03217 51.3387 8.08977L58.7907 15.5417C59.8496 16.6007 59.8496 18.3151 58.792 19.3727V19.3727Z" fill="url(#paint1_linear_1368_2520)"/>
<path d="M55.0316 15.6122L15.6132 55.0306C14.5555 56.0882 12.8412 56.0882 11.7836 55.0306L6.21117 49.4582C5.15357 48.4006 5.15357 46.6862 6.21117 45.6286L45.6296 6.21019C46.6872 5.15259 48.4016 5.15259 49.4592 6.21019L55.0316 11.7812C56.0892 12.8388 56.0892 14.5546 55.0316 15.6122V15.6122Z" fill="url(#paint2_linear_1368_2520)"/>
<path d="M22.1589 50.3644L20.2783 52.2451L22.159 54.1256L24.0395 52.245L22.1589 50.3644Z" fill="#662C09"/>
<path d="M25.9196 46.6029L24.0391 48.4836L25.9197 50.3642L27.8003 48.4835L25.9196 46.6029Z" fill="#662C09"/>
<path d="M29.6794 42.8424L27.7988 44.7231L29.6795 46.6037L31.56 44.723L29.6794 42.8424Z" fill="#662C09"/>
<path d="M33.4411 39.081L31.5605 40.9616L33.4412 42.8422L35.3218 40.9615L33.4411 39.081Z" fill="#662C09"/>
<path d="M37.2028 35.321L35.3223 37.2017L37.2029 39.0822L39.0835 37.2016L37.2028 35.321Z" fill="#662C09"/>
<path d="M40.9626 31.5605L39.082 33.4412L40.9627 35.3217L42.8432 33.4411L40.9626 31.5605Z" fill="#662C09"/>
<path d="M44.7233 27.8L42.8428 29.6806L44.7234 31.5612L46.604 29.6805L44.7233 27.8Z" fill="#662C09"/>
<path d="M48.4841 24.0381L46.6035 25.9188L48.4842 27.7993L50.3647 25.9187L48.4841 24.0381Z" fill="#662C09"/>
<path d="M52.2448 20.277L50.3643 22.1577L52.2449 24.0382L54.1255 22.1576L52.2448 20.277Z" fill="#662C09"/>
<path d="M53.1858 17.4579L17.4588 53.1849L8.09203 43.8181C7.03443 42.7605 7.03443 41.0461 8.09203 39.9885L39.9881 8.08977C41.0457 7.03217 42.76 7.03217 43.8177 8.08977L53.1858 17.4579Z" fill="url(#paint3_radial_1368_2520)"/>
<path opacity="0.05" d="M44.7225 7.11608L43.7822 8.0564L53.1845 17.4583L54.1248 16.518L44.7225 7.11608Z" fill="black"/>
<path opacity="0.07" d="M44.2524 7.58593L43.7822 8.05609L53.1845 17.458L53.6546 16.9878L44.2524 7.58593Z" fill="black"/>
<path opacity="0.05" d="M16.5177 54.1237L17.458 53.1834L8.05576 43.7815L7.11548 44.7218L16.5177 54.1237Z" fill="black"/>
<path opacity="0.07" d="M16.9888 53.6539L17.459 53.1837L8.05674 43.7818L7.58659 44.252L16.9888 53.6539Z" fill="black"/>
<defs>
<linearGradient id="paint0_linear_1368_2520" x1="48.0359" y1="48.035" x2="42.6314" y2="42.6305" gradientUnits="userSpaceOnUse">
<stop stop-color="#DFE9F2"/>
<stop offset="0.391" stop-color="#D6E0E9"/>
<stop offset="0.643" stop-color="#CCD6DF"/>
<stop offset="1" stop-color="#BFC8D1"/>
</linearGradient>
<linearGradient id="paint1_linear_1368_2520" x1="24.9387" y1="24.9375" x2="44.2344" y2="44.2325" gradientUnits="userSpaceOnUse">
<stop stop-color="#EBA84B"/>
<stop offset="0.255" stop-color="#E8A044"/>
<stop offset="0.641" stop-color="#E18B30"/>
<stop offset="1" stop-color="#D97218"/>
</linearGradient>
<linearGradient id="paint2_linear_1368_2520" x1="21.5365" y1="21.5354" x2="36.9915" y2="36.9898" gradientUnits="userSpaceOnUse">
<stop stop-color="#C26715"/>
<stop offset="0.346" stop-color="#BE6015"/>
<stop offset="0.686" stop-color="#B54E16"/>
<stop offset="0.979" stop-color="#AD3F16"/>
</linearGradient>
<radialGradient id="paint3_radial_1368_2520" cx="0" cy="0" r="1" gradientUnits="userSpaceOnUse" gradientTransform="translate(16.272 26.2466) scale(34.8684)">
<stop stop-color="#DFE9F2"/>
<stop offset="0.391" stop-color="#D6E0E9"/>
<stop offset="1" stop-color="#BFC8D1"/>
</radialGradient>
</defs>
</svg>
