<svg width="271" height="12" viewBox="0 0 271 12" fill="none" xmlns="http://www.w3.org/2000/svg">
<path d="M45 0H4C1.79086 0 0 1.79086 0 4V8C0 10.2091 1.79086 12 4 12H45C47.2091 12 49 10.2091 49 8V4C49 1.79086 47.2091 0 45 0Z" fill="#F35E84"/>
<path d="M119 0H78C75.7909 0 74 1.79086 74 4V8C74 10.2091 75.7909 12 78 12H119C121.209 12 123 10.2091 123 8V4C123 1.79086 121.209 0 119 0Z" fill="#F35E84"/>
<path d="M193 0H152C149.791 0 148 1.79086 148 4V8C148 10.2091 149.791 12 152 12H193C195.209 12 197 10.2091 197 8V4C197 1.79086 195.209 0 193 0Z" fill="#F35E84"/>
<path d="M267 0H226C223.791 0 222 1.79086 222 4V8C222 10.2091 223.791 12 226 12H267C269.209 12 271 10.2091 271 8V4C271 1.79086 269.209 0 267 0Z" fill="#F35E84"/>
</svg>
