<svg width="159" height="69" viewBox="0 0 159 69" fill="none" xmlns="http://www.w3.org/2000/svg">
<path d="M68 0H5C2.23858 0 0 2.23858 0 5V7C0 9.76142 2.23858 12 5 12H68C70.7614 12 73 9.76142 73 7V5C73 2.23858 70.7614 0 68 0Z" fill="#6E82F9"/>
<path d="M146 0H82C79.2386 0 77 2.23858 77 5V7C77 9.76142 79.2386 12 82 12H146C148.761 12 151 9.76142 151 7V5C151 2.23858 148.761 0 146 0Z" fill="#6E82F9"/>
<path d="M46 16H5C2.23858 16 0 18.2386 0 21V23C0 25.7614 2.23858 28 5 28H46C48.7614 28 51 25.7614 51 23V21C51 18.2386 48.7614 16 46 16Z" fill="#6E82F9"/>
<path d="M65 16H60C57.2386 16 55 18.2386 55 21V23C55 25.7614 57.2386 28 60 28H65C67.7614 28 70 25.7614 70 23V21C70 18.2386 67.7614 16 65 16Z" fill="#6E82F9"/>
<path d="M94.3496 39H7.64961C3.89407 39 0.849609 40.4772 0.849609 46V62C0.849609 67.5228 3.89407 69 7.64961 69H94.3496C98.1051 69 101.15 68.5228 101.15 63V45.5C101.15 39.9772 98.1051 39 94.3496 39Z" fill="#6E82F9"/>
<path d="M48 51H14C11.7909 51 10 52.567 10 54.5C10 56.433 11.7909 58 14 58H48C50.2091 58 52 56.433 52 54.5C52 52.567 50.2091 51 48 51Z" fill="#5665C2"/>
</svg>
