<svg width="48" height="48" viewBox="0 0 48 48" fill="none" xmlns="http://www.w3.org/2000/svg">
<g clip-path="url(#clip0_938_1511)">
<path d="M16.5 4C14.0325 4 12 6.0325 12 8.5V39.5C12 41.9675 14.0325 44 16.5 44H31.5C33.9675 44 36 41.9675 36 39.5V8.5C36 6.0325 33.9675 4 31.5 4H16.5ZM16.5 7H31.5C32.3465 7 33 7.6535 33 8.5V39.5C33 40.3465 32.3465 41 31.5 41H16.5C15.6535 41 15 40.3465 15 39.5V8.5C15 7.6535 15.6535 7 16.5 7V7ZM19.4766 9.97852C18.6489 9.99145 17.9881 10.6723 18 11.5V15.5C17.9924 16.041 18.2766 16.5441 18.7438 16.8168C19.2111 17.0895 19.7889 17.0895 20.2562 16.8168C20.7234 16.5441 21.0077 16.041 21 15.5V11.5C21.0058 11.0944 20.8471 10.7037 20.5601 10.417C20.2731 10.1304 19.8822 9.97218 19.4766 9.97852L19.4766 9.97852Z" fill="#6E82F9"/>
</g>
<defs>
<clipPath id="clip0_938_1511">
<rect width="48" height="48" fill="white"/>
</clipPath>
</defs>
</svg>
