<svg width="48" height="48" viewBox="0 0 48 48" fill="none" xmlns="http://www.w3.org/2000/svg">
<g clip-path="url(#clip0_1132:1032)">
<path d="M14.5 8C12.585 8 11 9.58505 11 11.5V13.4824L6.20117 16.3379C4.83832 17.1481 4 18.6206 4 20.2051V35.5C4 39.0719 6.92806 42 10.5 42H37.5C41.0719 42 44 39.0719 44 35.5V20.207C44 18.6216 43.1621 17.15 41.8008 16.3398C41.8001 16.3392 41.7995 16.3385 41.7988 16.3379L37 13.4844V11.5C37 9.58505 35.415 8 33.5 8L14.5 8ZM14.5 11H33.5C33.795 11 34 11.205 34 11.5V22.9668L24 27.832L14 22.9668V14.5684C14.0265 14.4073 14.0265 14.2431 14 14.082V11.5C14 11.205 14.205 11 14.5 11H14.5ZM11 16.9746V21.5078L7.12891 19.625C7.2514 19.3357 7.45363 19.0829 7.73438 18.916L11 16.9746ZM37 16.9766L40.2656 18.918C40.5448 19.0846 40.7462 19.3366 40.8691 19.625L37 21.5078V16.9766ZM7 22.8984L23.3438 30.8496C23.758 31.0512 24.242 31.0512 24.6563 30.8496L41 22.8984V35.5C41 37.4501 39.4501 39 37.5 39H10.5C8.54994 39 7 37.4501 7 35.5L7 22.8984Z" fill="white"/>
</g>
<defs>
<clipPath id="clip0_1132:1032">
<rect width="48" height="48" fill="white"/>
</clipPath>
</defs>
</svg>
