<svg width="30" height="30" viewBox="0 0 30 30" fill="none" xmlns="http://www.w3.org/2000/svg">
<path d="M25 0H5C2.23833 0 0 2.23833 0 5V25C0 27.7617 2.23833 30 5 30H25C27.7617 30 30 27.7617 30 25V5C30 2.23833 27.7617 0 25 0Z" fill="#FF5722"/>
<path d="M25.0003 28.3334H5.00033C3.15949 28.3334 1.66699 26.8409 1.66699 25.0001V5.00008C1.66699 3.15925 3.15949 1.66675 5.00033 1.66675H25.0003C26.8412 1.66675 28.3337 3.15925 28.3337 5.00008V25.0001C28.3337 26.8409 26.8412 28.3334 25.0003 28.3334Z" fill="#1C0802"/>
<path d="M16.9555 21.6659H15.1814C14.9897 21.6659 14.8222 21.5351 14.7764 21.3484L14.1639 18.8426C14.1181 18.6559 13.9514 18.5251 13.7589 18.5251H10.5789C10.3864 18.5251 10.2189 18.6567 10.1739 18.8434L9.56805 21.3476C9.52305 21.5342 9.35555 21.6659 9.16305 21.6659H7.40722C7.13138 21.6659 6.93222 21.4034 7.00555 21.1376L10.6997 7.8509C10.7497 7.6709 10.9139 7.5459 11.1014 7.5459H13.3464C13.5347 7.5459 13.6989 7.67173 13.7489 7.8534L17.3572 21.1401C17.4297 21.4051 17.2297 21.6659 16.9556 21.6659L16.9555 21.6659ZM12.9989 16.0834C13.2689 16.0834 13.4681 15.8301 13.4039 15.5676L12.3714 11.3359C12.2864 10.9817 12.2264 10.5576 12.1914 10.0659H12.1314C12.1064 10.4801 12.0439 10.8901 11.943 11.2976L10.8964 15.5676C10.8322 15.8301 11.0305 16.0834 11.3014 16.0834L12.9989 16.0834Z" fill="white"/>
<path d="M20.297 9.98843C19.8962 9.98843 19.5679 9.83176 19.312 9.5201C19.0562 9.20843 18.9287 8.82593 18.9287 8.3726C18.9287 7.90676 19.0562 7.52593 19.312 7.23093C19.5679 6.93593 19.8954 6.7876 20.297 6.7876C20.7029 6.7876 21.0329 6.93593 21.2862 7.23093C21.5395 7.52593 21.6662 7.9076 21.6662 8.3726C21.6662 8.8451 21.5395 9.2326 21.2862 9.5351C21.0329 9.8376 20.7029 9.98843 20.297 9.98843V9.98843ZM21.0537 21.6659H19.5104C19.2804 21.6659 19.0937 21.4793 19.0937 21.2493V12.0001C19.0937 11.7701 19.2804 11.5834 19.5104 11.5834H21.0537C21.2837 11.5834 21.4704 11.7701 21.4704 12.0001V21.2501C21.4704 21.4793 21.2845 21.6659 21.0537 21.6659V21.6659Z" fill="white"/>
</svg>
