<svg width="48" height="48" viewBox="0 0 48 48" fill="none" xmlns="http://www.w3.org/2000/svg">
<g clip-path="url(#clip0_1521_1741)">
<path d="M38.45 19.289C37.84 16.189 37.21 13.089 37 11.999C36 6.99899 33 4.99899 30.59 4.99899C28 4.99899 27 6.99899 24 6.99899C21 6.99899 20 4.99899 17.41 4.99899C15 4.99899 12 6.99899 11 11.999C10.78 13.099 10.14 16.289 9.52 19.429C8.75 23.239 8 26.999 8 26.999H24H40C40 26.999 39.23 23.139 38.45 19.289H38.45Z" fill="url(#paint0_radial_1521_1741)"/>
<path d="M39.583 32.999H26.833H25.416H22.583H21.166H8.417C7.634 32.999 7 33.639 7 34.428V35.55C7 39.281 10.401 42.612 14.083 42.966C17.848 43.328 21.84 40.778 22.5 37.25C22.642 36.488 23.231 36 24 36C24.769 36 25.358 36.488 25.5 37.25C26.159 40.778 30.152 43.329 33.917 42.966C37.599 42.612 41 39.28 41 35.549V34.427C41 33.639 40.366 32.999 39.583 32.999H39.583Z" fill="url(#paint1_linear_1521_1741)"/>
<path d="M40 26.999H8C8 26.999 8.75 23.239 9.52 19.429C13.22 21.159 17.99 21.999 24 21.999C29.82 21.999 34.23 21.199 38.45 19.289C39.23 23.139 40 26.999 40 26.999L40 26.999Z" fill="#343434"/>
<path d="M24.0004 30.999C14.7434 30.999 7.58436 29.227 2.11335 25.579C0.964355 24.813 0.654356 23.261 1.42035 22.112C2.18635 20.964 3.73836 20.653 4.88736 21.419C9.51036 24.501 15.7624 25.999 24.0004 25.999C31.7714 25.999 37.5314 24.603 43.2604 21.328C44.4594 20.643 45.9864 21.06 46.6714 22.259C47.3564 23.458 46.9404 24.985 45.7414 25.67C37.4744 30.394 29.7804 30.999 24.0004 30.999V30.999Z" fill="url(#paint2_linear_1521_1741)"/>
<path opacity="0.05" d="M39.16 22.79C39.16 22.79 39.16 22.79 39.16 22.78C39.12 22.63 39.09 22.47 39.06 22.3C34.63 24.17 29.92 25 24 25C17.89 25 12.9 24.17 8.90996 22.46C8.87996 22.63 8.84996 22.79 8.80996 22.95C8.77996 23.12 8.74996 23.29 8.70996 23.45C12.79 25.16 17.84 26 24 26C29.97 26 34.76 25.17 39.26 23.3C39.23 23.14 39.19 22.97 39.16 22.79H39.16Z" fill="black"/>
<path opacity="0.07" d="M39.16 22.79C34.7 24.67 29.95 25.5 24 25.5C17.86 25.5 12.85 24.66 8.80996 22.95C8.77996 23.12 8.74996 23.29 8.70996 23.45C12.79 25.16 17.84 26 24 26C29.97 26 34.76 25.17 39.26 23.3C39.23 23.14 39.19 22.97 39.16 22.79H39.16Z" fill="black"/>
</g>
<defs>
<radialGradient id="paint0_radial_1521_1741" cx="0" cy="0" r="1" gradientUnits="userSpaceOnUse" gradientTransform="translate(17.717 -1.19601) scale(27.551)">
<stop stop-color="#6D7479"/>
<stop offset="1" stop-color="#45494D"/>
</radialGradient>
<linearGradient id="paint1_linear_1521_1741" x1="24" y1="46.999" x2="24" y2="35.453" gradientUnits="userSpaceOnUse">
<stop stop-color="#6D7479"/>
<stop offset="1" stop-color="#45494D"/>
</linearGradient>
<linearGradient id="paint2_linear_1521_1741" x1="24.0004" y1="12.956" x2="24.0004" y2="33.994" gradientUnits="userSpaceOnUse">
<stop stop-color="#6D7479"/>
<stop offset="1" stop-color="#45494D"/>
</linearGradient>
<clipPath id="clip0_1521_1741">
<rect width="48" height="48" fill="white"/>
</clipPath>
</defs>
</svg>
