<svg width="151" height="151" viewBox="0 0 151 151" fill="none" xmlns="http://www.w3.org/2000/svg">
<g clip-path="url(#clip0)">
<path d="M75.4997 12.6326C51.2446 12.6396 31.458 32.3611 31.458 56.6251C31.458 69.2067 36.7789 80.5948 45.264 88.6118C46.262 89.5543 46.9951 90.8818 47.3346 92.4028L55.0948 127.333C56.5278 133.784 62.3047 138.417 68.9131 138.417H82.0863C88.6953 138.417 94.4706 133.783 95.9046 127.333L103.671 92.4028V92.3967C104.007 90.88 104.736 89.5599 105.735 88.618V88.6118H105.741C114.223 80.5951 119.541 69.2067 119.541 56.6251C119.541 32.3611 99.7548 12.6396 75.4997 12.6326V12.6326ZM75.4997 22.0701C94.6697 22.0756 110.104 37.464 110.104 56.6251C110.104 66.555 105.935 75.4395 99.2532 81.7549C96.7454 84.1215 95.1618 87.1699 94.4546 90.3568L90.768 106.958H60.2313L56.5448 90.3506C55.8337 87.1654 54.2527 84.1218 51.7462 81.7549C45.0621 75.4396 40.8955 66.555 40.8955 56.6251C40.8955 37.464 56.3297 22.0756 75.4997 22.0701H75.4997ZM62.3326 116.396H88.6667L86.6944 125.287C86.2095 127.468 84.3233 128.979 82.0863 128.979H68.9131C66.6691 128.979 64.7908 127.474 64.3049 125.287L62.3326 116.396Z" fill="url(#paint0_linear)"/>
</g>
<defs>
<linearGradient id="paint0_linear" x1="31.458" y1="75.5247" x2="119.541" y2="75.5247" gradientUnits="userSpaceOnUse">
<stop stop-color="#6E82F9"/>
<stop offset="0.503125" stop-color="#22B9FF"/>
<stop offset="1" stop-color="#A6FFD8"/>
<stop offset="1" stop-color="#9FFBCE"/>
</linearGradient>
<clipPath id="clip0">
<rect width="151" height="151" fill="white"/>
</clipPath>
</defs>
</svg>
