<svg width="48" height="48" viewBox="0 0 48 48" fill="none" xmlns="http://www.w3.org/2000/svg">
<g clip-path="url(#clip0_935_1027)">
<path d="M24 5.61566C16.2898 5.6179 10 11.887 10 19.6C10 23.5995 11.6914 27.2195 14.3887 29.768C14.7059 30.0676 14.9389 30.4896 15.0469 30.9731L17.5137 42.0766C17.9692 44.1273 19.8056 45.6 21.9062 45.6H26.0937C28.1946 45.6 30.0305 44.1271 30.4863 42.0766L32.9551 30.9731V30.9711C33.0621 30.489 33.2937 30.0694 33.6113 29.77V29.768H33.6133C36.3094 27.2196 38 23.5995 38 19.6C38 11.887 31.7102 5.6179 24 5.61566V5.61566ZM24 8.61566C30.0938 8.61743 35 13.5091 35 19.6C35 22.7566 33.6747 25.5808 31.5508 27.5883C30.7536 28.3406 30.2502 29.3097 30.0254 30.3227L28.8535 35.6H19.1465L17.9746 30.3207C17.7486 29.3082 17.246 28.3407 16.4492 27.5883C14.3245 25.5808 13 22.7566 13 19.6C13 13.5091 17.9062 8.61743 24 8.61566H24ZM19.8145 38.6H28.1855L27.5586 41.4262C27.4044 42.1197 26.8049 42.6 26.0937 42.6H21.9062C21.1929 42.6 20.5959 42.1215 20.4414 41.4262L19.8145 38.6Z" fill="url(#paint0_linear_935_1027)"/>
</g>
<defs>
<linearGradient id="paint0_linear_935_1027" x1="10" y1="25.6079" x2="38" y2="25.6079" gradientUnits="userSpaceOnUse">
<stop stop-color="#6E82F9"/>
<stop offset="0.503125" stop-color="#22B9FF"/>
<stop offset="1" stop-color="#A6FFD8"/>
<stop offset="1" stop-color="#9FFBCE"/>
</linearGradient>
<clipPath id="clip0_935_1027">
<rect width="48" height="48" fill="white"/>
</clipPath>
</defs>
</svg>
