<svg width="48" height="48" viewBox="0 0 48 48" fill="none" xmlns="http://www.w3.org/2000/svg">
<g clip-path="url(#clip0_935_1027)">
<path d="M24 4.01566C16.2898 4.01789 10 10.287 10 18C10 21.9995 11.6914 25.6195 14.3887 28.168C14.7059 28.4676 14.9389 28.8896 15.0469 29.3731L17.5137 40.4766C17.9692 42.5273 19.8056 44 21.9062 44H26.0937C28.1946 44 30.0305 42.5271 30.4863 40.4766L32.9551 29.3731V29.3711C33.0621 28.889 33.2937 28.4694 33.6113 28.17V28.168H33.6133C36.3094 25.6196 38 21.9995 38 18C38 10.287 31.7102 4.01789 24 4.01566V4.01566ZM24 7.01566C30.0938 7.01742 35 11.9091 35 18C35 21.1566 33.6747 23.9808 31.5508 25.9883C30.7536 26.7406 30.2502 27.7097 30.0254 28.7227L28.8535 34H19.1465L17.9746 28.7207C17.7486 27.7082 17.246 26.7407 16.4492 25.9883C14.3245 23.9808 13 21.1566 13 18C13 11.9091 17.9062 7.01742 24 7.01566H24ZM19.8145 37H28.1855L27.5586 39.8262C27.4044 40.5197 26.8049 41 26.0937 41H21.9062C21.1929 41 20.5959 40.5215 20.4414 39.8262L19.8145 37Z" fill="url(#paint0_linear_935_1027)"/>
</g>
<defs>
<linearGradient id="paint0_linear_935_1027" x1="10" y1="24.0078" x2="38" y2="24.0078" gradientUnits="userSpaceOnUse">
<stop stop-color="#6E82F9"/>
<stop offset="0.503125" stop-color="#22B9FF"/>
<stop offset="1" stop-color="#A6FFD8"/>
<stop offset="1" stop-color="#9FFBCE"/>
</linearGradient>
<clipPath id="clip0_935_1027">
<rect width="48" height="48" fill="white"/>
</clipPath>
</defs>
</svg>
