<svg width="30" height="30" viewBox="0 0 30 30" fill="none" xmlns="http://www.w3.org/2000/svg">
<path d="M0 0H30V30H0V0Z" fill="#F0DB4F"/>
<path d="M27.5445 22.845C27.3249 21.4762 26.4323 20.327 23.7888 19.2547C22.8705 18.8327 21.8467 18.5304 21.5416 17.8346C21.4332 17.4296 21.419 17.2015 21.4874 16.9562C21.6842 16.1606 22.6338 15.9125 23.3867 16.1406C23.8715 16.3032 24.3306 16.6768 24.6072 17.2728C25.9019 16.4344 25.899 16.4401 26.803 15.8641C26.4722 15.3507 26.2954 15.114 26.0787 14.8945C25.3002 14.0247 24.2393 13.577 22.5426 13.6112C22.2488 13.6483 21.9523 13.6882 21.6585 13.7253C20.8116 13.9391 20.0045 14.384 19.5312 14.98C18.111 16.5912 18.5159 19.4116 20.2441 20.5722C21.9466 21.8498 24.4475 22.1407 24.7669 23.3355C25.0777 24.7985 23.6918 25.2718 22.3144 25.1036C21.2992 24.8926 20.7346 24.3764 20.1243 23.4382C19.0008 24.0884 19.0008 24.0884 17.8458 24.7528C18.1196 25.3517 18.4076 25.6226 18.8667 26.1416C21.0397 28.346 26.4779 28.2376 27.4532 24.9011C27.4931 24.787 27.7555 24.0228 27.5445 22.845V22.845ZM16.3087 13.788H13.5026C13.5026 16.2119 13.4913 18.6188 13.4913 21.0427C13.4913 22.5855 13.5711 24 13.3202 24.4334C12.9095 25.286 11.8458 25.1806 11.361 25.0151C10.8677 24.7727 10.6167 24.4277 10.3259 23.9401C10.246 23.8003 10.1861 23.692 10.1661 23.6834C9.40476 24.1482 8.64617 24.6159 7.88477 25.0808C8.26407 25.8593 8.82298 26.5351 9.53876 26.9743C10.6081 27.6159 12.0454 27.8127 13.5483 27.4676C14.5264 27.1824 15.3705 26.5922 15.8125 25.6939C16.4513 24.5161 16.3144 23.0903 16.3087 21.5133C16.323 18.941 16.3087 16.3688 16.3087 13.788Z" fill="#323330"/>
</svg>
