<svg width="160" height="160" viewBox="0 0 160 160" fill="none" xmlns="http://www.w3.org/2000/svg">
<path d="M66.6672 93.3336H26.6672C22.9838 93.3336 20.0005 90.3503 20.0005 86.6669V26.6669C20.0005 22.9836 22.9838 20.0002 26.6672 20.0002H66.6672C70.3505 20.0002 73.3338 22.9836 73.3338 26.6669V86.6669C73.3338 90.3502 70.3505 93.3336 66.6672 93.3336Z" fill="#0078D4"/>
<path d="M133.333 53.3333H93.3334C89.6501 53.3333 86.6667 50.35 86.6667 46.6667V26.6667C86.6667 22.9833 89.6501 20 93.3334 20H133.333C137.017 20 140 22.9833 140 26.6667V46.6667C140 50.35 137.017 53.3333 133.333 53.3333Z" fill="#35C1F1"/>
<path d="M66.6667 140H26.6667C22.9833 140 20 137.017 20 133.333V113.333C20 109.65 22.9833 106.667 26.6667 106.667H66.6667C70.35 106.667 73.3333 109.65 73.3333 113.333V133.333C73.3333 137.017 70.35 140 66.6667 140Z" fill="#35C1F1"/>
<path d="M133.333 140H93.3334C89.6501 140 86.6667 137.017 86.6667 133.333V73.3334C86.6667 69.6501 89.6501 66.6667 93.3334 66.6667H133.333C137.017 66.6667 140 69.6501 140 73.3334V133.333C140 137.017 137.017 140 133.333 140Z" fill="#0078D4"/>
</svg>
