<svg width="50" height="50" viewBox="0 0 50 50" fill="none" xmlns="http://www.w3.org/2000/svg">
<rect width="50" height="50" fill="#0078D4"/>
<path d="M8.25 18.0937H15.2813V42H8.25V18.0937ZM11.7445 15.2813H11.7052C9.60703 15.2813 8.25 13.7175 8.25 11.7642C8.25 9.76875 9.64922 8.25 11.7853 8.25C13.9242 8.25 15.2419 9.76875 15.2813 11.7642C15.2813 13.7161 13.9242 15.2813 11.7445 15.2813H11.7445ZM42 42H34.9687V29.2045C34.9687 26.1136 33.2461 24.0042 30.48 24.0042C28.3692 24.0042 27.2273 25.4273 26.6733 26.8027C26.4708 27.2948 26.5312 28.6561 26.5312 29.3437V42H19.5V18.0937H26.5312V21.7725C27.5452 20.2031 29.1328 18.0937 33.1941 18.0937C38.2256 18.0937 41.9986 21.2578 41.9986 28.3228L42 42L42 42Z" fill="white"/>
</svg>
