<svg width="48" height="48" viewBox="0 0 48 48" fill="none" xmlns="http://www.w3.org/2000/svg">
<g clip-path="url(#clip0_1339_2269)">
<path d="M29.827 23.301L27.348 24.679L22 15L23.557 11.795L29.827 23.301Z" fill="#199BE2"/>
<path d="M28.5 22.5C27.672 22.5 27 23.172 27 24C27 24.828 27.672 25.5 28.5 25.5C29.328 25.5 30 24.828 30 24C30 23.172 29.328 22.5 28.5 22.5Z" fill="#199BE2"/>
<path d="M32.5061 42.782L12.4201 37.134C9.19906 36.247 7.30406 32.911 8.19106 29.683L10.1681 22.486C10.4631 21.41 11.5721 20.777 12.6461 21.073L40.5091 28.863C41.5831 29.159 42.2141 30.27 41.9181 31.346L39.9411 38.543C39.0571 41.771 35.7271 43.669 32.5061 42.782H32.5061Z" fill="url(#paint0_linear_1339_2269)"/>
<path d="M30.2936 33.383L19.7816 30.391C18.1706 29.947 17.2236 28.279 17.6666 26.665L18.7356 22.768L35.0806 27.366L34.0116 31.263C33.5696 32.878 31.9046 33.827 30.2936 33.383V33.383Z" fill="#5C2415"/>
<path d="M20.5 35C19.672 35 19 35.672 19 36.5C19 37.328 19.672 38 20.5 38C21.328 38 22 37.328 22 36.5C22 35.672 21.328 35 20.5 35V35Z" fill="#35C1F1"/>
<path d="M7.5 5C6.672 5 6 5.672 6 6.5C6 7.328 6.672 8 7.5 8C8.328 8 9 7.328 9 6.5C9 5.672 8.328 5 7.5 5Z" fill="#35C1F1"/>
<path d="M20 5.5C20 7.432 21.566 9 23.498 9C25.435 9 27 7.432 27 5.5C27 3.568 25.435 2 23.498 2C21.566 2 20 3.568 20 5.5Z" fill="url(#paint1_linear_1339_2269)"/>
<path d="M19.5635 35.329L25.7505 29.5L20.2455 24.177L25.9825 21.145L29.7795 28.588C30.2015 29.416 29.9985 30.425 29.2885 31.025L21.3285 37.751L19.5635 35.329Z" fill="#35C1F1"/>
<path d="M6.33398 7.44299L8.56998 5.45999L13 9.99999H20.498L18 15L11.589 13.168C11.205 13.058 10.863 12.837 10.607 12.531L6.33398 7.44299Z" fill="#35C1F1"/>
<path d="M17.2021 14.673L19.0361 22L25.9301 20.801L23.9051 12.702L17.2021 14.673Z" fill="#35C1F1"/>
<path d="M19 21.5C19 23.432 20.566 25 22.498 25C24.435 25 26 23.432 26 21.5C26 19.568 24.435 18 22.498 18C20.566 18 19 19.568 19 21.5Z" fill="#35C1F1"/>
<path d="M17 13.5C17 15.432 18.566 17 20.498 17C22.435 17 24 15.432 24 13.5C24 11.568 22.435 10 20.498 10C18.566 10 17 11.568 17 13.5Z" fill="#35C1F1"/>
</g>
<defs>
<linearGradient id="paint0_linear_1339_2269" x1="19.5481" y1="16.475" x2="30.8011" y2="47.392" gradientUnits="userSpaceOnUse">
<stop stop-color="#A34F27"/>
<stop offset="0.587" stop-color="#8B3817"/>
<stop offset="1" stop-color="#802D10"/>
</linearGradient>
<linearGradient id="paint1_linear_1339_2269" x1="20" y1="5.5" x2="27" y2="5.5" gradientUnits="userSpaceOnUse">
<stop stop-color="#FFCF54"/>
<stop offset="0.261" stop-color="#FDCB4D"/>
<stop offset="0.639" stop-color="#F7C13A"/>
<stop offset="1" stop-color="#F0B421"/>
</linearGradient>
<clipPath id="clip0_1339_2269">
<rect width="48" height="48" fill="white"/>
</clipPath>
</defs>
</svg>
