<svg width="330" height="330" viewBox="0 0 330 330" fill="none" xmlns="http://www.w3.org/2000/svg">
<path d="M298.147 47.0207V186.481C298.147 210.662 279.289 230.661 255.184 232.03L182.716 236.288C170.702 237.048 161.272 247.01 161.272 259.1V297.958C161.272 306.322 154.429 313.166 146.064 313.166H55.575C46.9062 313.166 39.9865 305.866 40.4427 297.197L45.4615 197.811C50.6323 156.444 88.1965 126.94 129.639 131.731L204.312 140.324C217.239 141.844 228.797 132.187 229.71 119.26L233.588 63.2936C234.196 54.4728 227.2 47.0207 218.379 47.0207H202.487C194.579 47.0207 188.039 53.104 187.355 60.9363L184.997 89.3758C184.465 95.5352 179.294 100.25 173.135 100.25C166.595 100.25 161.272 94.9268 161.272 88.3873V47.0207C161.272 26.0333 178.306 9 199.293 9H260.126C281.114 9 298.147 26.0333 298.147 47.0207Z" fill="url(#paint0_linear_1424_2417)"/>
<path d="M252.522 62.2288L260.126 153.479C260.126 166.079 249.914 176.291 237.314 176.291H191.689C174.891 176.291 161.272 189.91 161.272 206.708V297.957C161.272 306.322 154.429 313.166 146.064 313.166H55.575C46.9062 313.166 39.9865 305.866 40.4427 297.197L45.4615 197.811C50.6323 156.444 88.1965 126.94 129.639 131.731L204.312 140.323C217.239 141.844 228.797 132.187 229.71 119.26L233.588 63.2934C234.196 54.4726 227.2 47.0205 218.38 47.0205H237.314C245.716 47.0205 252.522 53.8262 252.522 62.2288Z" fill="#EB6773"/>
<path d="M54.8124 320.769C67.4117 320.769 77.6249 310.556 77.6249 297.957C77.6249 285.358 67.4117 275.145 54.8124 275.145C42.2134 275.145 32 285.358 32 297.957C32 310.556 42.2134 320.769 54.8124 320.769Z" fill="#B31523"/>
<path d="M54.8124 259.937C67.4117 259.937 77.6249 249.724 77.6249 237.125C77.6249 224.526 67.4117 214.312 54.8124 214.312C42.2134 214.312 32 224.526 32 237.125C32 249.724 42.2134 259.937 54.8124 259.937Z" fill="#B31523"/>
<path d="M66.2184 191.5C76.7174 191.5 85.2287 182.989 85.2287 172.49C85.2287 161.991 76.7174 153.479 66.2184 153.479C55.7193 153.479 47.208 161.991 47.208 172.49C47.208 182.989 55.7193 191.5 66.2184 191.5Z" fill="#B31523"/>
<path d="M108.042 153.479C116.441 153.479 123.25 146.67 123.25 138.271C123.25 129.871 116.441 123.062 108.042 123.062C99.6422 123.062 92.8335 129.871 92.8335 138.271C92.8335 146.67 99.6422 153.479 108.042 153.479Z" fill="#B31523"/>
<path d="M157.469 145.875C163.768 145.875 168.875 140.768 168.875 134.469C168.875 128.169 163.768 123.062 157.469 123.062C151.169 123.062 146.062 128.169 146.062 134.469C146.062 140.768 151.169 145.875 157.469 145.875Z" fill="#B31523"/>
<path d="M191.687 145.875C195.887 145.875 199.291 142.471 199.291 138.271C199.291 134.071 195.887 130.667 191.687 130.667C187.487 130.667 184.083 134.071 184.083 138.271C184.083 142.471 187.487 145.875 191.687 145.875Z" fill="#B31523"/>
<path d="M222.104 138.271C226.304 138.271 229.708 134.866 229.708 130.667C229.708 126.467 226.304 123.062 222.104 123.062C217.904 123.062 214.5 126.467 214.5 130.667C214.5 134.866 217.904 138.271 222.104 138.271Z" fill="#B31523"/>
<path d="M229.708 107.854C233.907 107.854 237.312 104.449 237.312 100.25C237.312 96.0499 233.907 92.6455 229.708 92.6455C225.508 92.6455 222.104 96.0499 222.104 100.25C222.104 104.449 225.508 107.854 229.708 107.854Z" fill="#B31523"/>
<path d="M260.125 123.061C264.324 123.061 267.729 119.656 267.729 115.457C267.729 111.257 264.324 107.853 260.125 107.853C255.925 107.853 252.521 111.257 252.521 115.457C252.521 119.656 255.925 123.061 260.125 123.061Z" fill="#B31523"/>
<path d="M256.322 161.083C262.622 161.083 267.728 155.976 267.728 149.677C267.728 143.377 262.622 138.271 256.322 138.271C250.023 138.271 244.916 143.377 244.916 149.677C244.916 155.976 250.023 161.083 256.322 161.083Z" fill="#B31523"/>
<path d="M214.499 183.896C222.899 183.896 229.708 177.087 229.708 168.688C229.708 160.288 222.899 153.479 214.499 153.479C206.1 153.479 199.291 160.288 199.291 168.688C199.291 177.087 206.1 183.896 214.499 183.896Z" fill="#B31523"/>
<path d="M157.468 199.103C167.967 199.103 176.479 190.591 176.479 180.092C176.479 169.593 167.967 161.082 157.468 161.082C146.969 161.082 138.458 169.593 138.458 180.092C138.458 190.591 146.969 199.103 157.468 199.103Z" fill="#B31523"/>
<path d="M146.061 259.937C158.661 259.937 168.874 249.724 168.874 237.125C168.874 224.526 158.661 214.312 146.061 214.312C133.462 214.312 123.249 224.526 123.249 237.125C123.249 249.724 133.462 259.937 146.061 259.937Z" fill="#B31523"/>
<path d="M146.061 320.769C158.661 320.769 168.874 310.556 168.874 297.957C168.874 285.358 158.661 275.145 146.061 275.145C133.462 275.145 123.249 285.358 123.249 297.957C123.249 310.556 133.462 320.769 146.061 320.769Z" fill="#B31523"/>
<defs>
<linearGradient id="paint0_linear_1424_2417" x1="169.287" y1="-149.569" x2="169.287" y2="196.929" gradientUnits="userSpaceOnUse">
<stop stop-color="#F44F5A"/>
<stop offset="0.443" stop-color="#EE3D4A"/>
<stop offset="1" stop-color="#E52030"/>
</linearGradient>
</defs>
</svg>
