<svg width="100" height="100" viewBox="0 0 100 100" fill="none" xmlns="http://www.w3.org/2000/svg">
<g clip-path="url(#clip0)">
<path d="M49.9993 64.5833C48.8493 64.5833 47.916 63.6499 47.916 62.4999V54.9437C47.916 51.8166 50.2535 49.152 53.3535 48.7457L87.7702 44.2416C88.8035 44.1062 89.5827 43.2187 89.5827 42.1749V27.0833C89.5827 25.9353 88.6473 24.9999 87.4993 24.9999H79.166C78.016 24.9999 77.0827 24.0666 77.0827 22.9166C77.0827 21.7666 78.016 20.8333 79.166 20.8333H87.4993C90.9452 20.8333 93.7493 23.6374 93.7493 27.0833V42.177C93.7493 45.3041 91.4119 47.9687 88.3119 48.3749L53.8952 52.8791C52.8618 53.0145 52.0827 53.902 52.0827 54.9437V62.4999C52.0827 63.6499 51.1493 64.5833 49.9993 64.5833Z" fill="#ABB4BE"/>
<path d="M82.1535 35.4166H79.166V10.4166H82.1535C83.9473 10.4166 85.416 11.8854 85.416 13.6791V32.1541C85.416 33.9479 83.9473 35.4166 82.1535 35.4166Z" fill="url(#paint0_linear)"/>
<path d="M20.833 35.4166H17.8434C16.0434 35.4166 14.583 33.9562 14.583 32.1562V13.677C14.583 11.8833 16.0497 10.4166 17.8434 10.4166H20.833V35.4166Z" fill="url(#paint1_linear)"/>
<path d="M45.8333 60.4166H54.1667C55.3167 60.4166 56.25 61.35 56.25 62.5V87.4999C56.25 88.6499 55.3167 89.5833 54.1667 89.5833H45.8333C44.6833 89.5833 43.75 88.6499 43.75 87.4999V62.5C43.75 61.35 44.6833 60.4166 45.8333 60.4166Z" fill="url(#paint2_linear)"/>
<path d="M20.833 10.4146V47.9166C20.833 49.0666 21.7663 50 22.9163 50C24.0663 50 24.9997 49.0666 24.9997 47.9166V37.5C24.9997 36.35 25.933 35.4166 27.083 35.4166C28.233 35.4166 29.1663 36.35 29.1663 37.5V41.6666C29.1663 42.8166 30.0997 43.75 31.2497 43.75C32.3997 43.75 33.333 42.8166 33.333 41.6666V39.5833C33.333 37.2812 35.1851 35.4166 37.4872 35.4166C48.7726 35.4166 79.1664 35.4146 79.1664 35.4146V10.4166L20.833 10.4146Z" fill="url(#paint3_linear)"/>
</g>
<defs>
<linearGradient id="paint0_linear" x1="79.791" y1="15.6812" x2="84.2077" y2="30.9375" gradientUnits="userSpaceOnUse">
<stop stop-color="#FFD869"/>
<stop offset="1" stop-color="#FEC52B"/>
</linearGradient>
<linearGradient id="paint1_linear" x1="16.1726" y1="16.2125" x2="20.5893" y2="31.4687" gradientUnits="userSpaceOnUse">
<stop stop-color="#FFD869"/>
<stop offset="1" stop-color="#FEC52B"/>
</linearGradient>
<linearGradient id="paint2_linear" x1="43.75" y1="75" x2="56.25" y2="75" gradientUnits="userSpaceOnUse">
<stop stop-color="#3079D6"/>
<stop offset="1" stop-color="#297CD2"/>
</linearGradient>
<linearGradient id="paint3_linear" x1="49.9997" y1="10.227" x2="49.9997" y2="49.1187" gradientUnits="userSpaceOnUse">
<stop stop-color="#D160F6"/>
<stop offset="1" stop-color="#C545ED"/>
</linearGradient>
<clipPath id="clip0">
<rect width="100" height="100" fill="white"/>
</clipPath>
</defs>
</svg>
