<svg width="48" height="48" viewBox="0 0 48 48" fill="none" xmlns="http://www.w3.org/2000/svg">
<path d="M26.6592 12.8101L26.5692 12.9021C23.3212 16.1601 20.9152 17.0001 13.4992 17.0001H12.7372C12.2992 17.0001 11.9112 17.2861 11.7822 17.7051L4.0652 42.6601C3.9372 43.0141 4.0082 43.4241 4.2922 43.7071C4.5762 43.9901 4.9852 44.0621 5.3392 43.9341L30.2942 36.2181C30.7132 36.0881 30.9992 35.7011 30.9992 35.2621V34.5001C30.9992 27.0841 31.8392 24.6781 35.0972 21.4301L35.1892 21.3401L26.6592 12.8101Z" fill="url(#paint0_linear)"/>
<path d="M21.493 24C20.116 24 19 25.119 19 26.5C19 27.881 20.116 29 21.493 29C22.87 29 23.986 27.881 23.986 26.5C23.987 25.119 22.871 24 21.493 24Z" fill="url(#paint1_linear)"/>
<path d="M5.00025 44.0007C4.74425 44.0007 4.48825 43.9027 4.29325 43.7077C3.90225 43.3167 3.90225 42.6847 4.29325 42.2937L20.5433 26.0437C20.9343 25.6527 21.5663 25.6527 21.9573 26.0437C22.3483 26.4347 22.3483 27.0667 21.9573 27.4577L5.70725 43.7077C5.51225 43.9027 5.25625 44.0007 5.00025 44.0007H5.00025Z" fill="url(#paint2_linear)"/>
<path opacity="0.05" d="M26.6608 12.8101C26.6608 12.8101 26.3808 13.0901 26.2908 13.1701C26.1608 13.2901 26.0408 13.4101 25.9108 13.5201C25.7908 13.6401 25.6708 13.7501 25.5508 13.8501C25.6408 14.0001 25.7508 14.1301 25.8808 14.2601L33.7408 22.1201C33.8708 22.2501 34.0008 22.3601 34.1508 22.4501C34.2508 22.3301 34.3608 22.2101 34.4808 22.0901C34.5908 21.9601 34.7108 21.8401 34.8308 21.7101C34.9108 21.6201 35.1908 21.3401 35.1908 21.3401L26.6608 12.8101Z" fill="black"/>
<path opacity="0.05" d="M26.6602 12.8101C26.6602 12.8101 26.3802 13.0901 26.2902 13.1701C26.1602 13.2901 26.0402 13.4101 25.9102 13.5201C25.9102 13.5201 25.9102 13.5301 25.9202 13.5301C26.0102 13.6701 26.1102 13.7901 26.2302 13.9101L34.0902 21.7701C34.2102 21.8901 34.3302 21.9901 34.4702 22.0801C34.4702 22.0901 34.4802 22.0901 34.4802 22.0901C34.5902 21.9601 34.7102 21.8401 34.8302 21.7101C34.9102 21.6201 35.1902 21.3401 35.1902 21.3401L26.6602 12.8101Z" fill="black"/>
<path d="M31.0018 4.00049L26.3368 11.0355C25.8098 11.8275 25.9138 12.8825 26.5858 13.5555L34.4468 21.4165C35.1208 22.0885 36.1748 22.1935 36.9668 21.6655L44.0018 17.0005L31.0018 4.00049Z" fill="url(#paint3_linear)"/>
<defs>
<linearGradient id="paint0_linear" x1="6.38119" y1="19.1641" x2="54.6682" y2="67.4511" gradientUnits="userSpaceOnUse">
<stop stop-color="#FED100"/>
<stop offset="1" stop-color="#E36001"/>
</linearGradient>
<linearGradient id="paint1_linear" x1="22.602" y1="25.391" x2="3.402" y2="44.592" gradientUnits="userSpaceOnUse">
<stop stop-color="#C18310"/>
<stop offset="1" stop-color="#EBA601"/>
</linearGradient>
<linearGradient id="paint2_linear" x1="23.3753" y1="24.6257" x2="-15.5177" y2="63.5177" gradientUnits="userSpaceOnUse">
<stop stop-color="#C18310"/>
<stop offset="1" stop-color="#EBA601"/>
</linearGradient>
<linearGradient id="paint3_linear" x1="27.5088" y1="7.49349" x2="40.5088" y2="20.4935" gradientUnits="userSpaceOnUse">
<stop stop-color="#F44F5A"/>
<stop offset="0.443" stop-color="#EE3D4A"/>
<stop offset="1" stop-color="#E52030"/>
</linearGradient>
</defs>
</svg>
