<svg width="48" height="48" viewBox="0 0 48 48" fill="none" xmlns="http://www.w3.org/2000/svg">
<g clip-path="url(#clip0_935_1029)">
<path d="M24 6C12.9723 6 4 14.9723 4 26C4 32.3502 6.98021 38.0159 11.6016 41.6758C11.8662 41.8854 12.1937 41.9996 12.5312 42H35.4668C35.805 42 36.1333 41.8858 36.3984 41.6758C41.0209 38.0159 44 32.3502 44 26C44 14.9723 35.0277 6 24 6H24ZM24 9C33.4063 9 41 16.5937 41 26C41 31.2474 38.5931 35.8807 34.8633 39H13.1348C9.40591 35.8807 7 31.2474 7 26C7 16.5937 14.5937 9 24 9H24ZM24 13C16.8383 13 11 18.8383 11 26C11 29.2317 12.1873 32.2041 14.1465 34.4785C14.4894 34.9074 15.0392 35.1147 15.5799 35.019C16.1206 34.9232 16.5658 34.5397 16.7405 34.0191C16.9152 33.4985 16.7915 32.924 16.418 32.5215C14.9091 30.7699 14 28.5003 14 26C14 20.4597 18.4597 16 24 16C25.0643 16 26.0858 16.1649 27.0449 16.4707C27.5607 16.6527 28.1347 16.5395 28.5429 16.1753C28.951 15.8112 29.1285 15.2537 29.0062 14.7206C28.8839 14.1875 28.4811 13.7631 27.9551 13.6133C26.7062 13.2151 25.3757 13 24 13ZM31.7207 16.7363C31.3311 16.7477 30.9613 16.9102 30.6895 17.1895L24.7734 23.1055C24.5213 23.0368 24.2613 23.0013 24 23C22.3431 23 21 24.3432 21 26C21 27.6569 22.3431 29 24 29C24.9322 28.9995 25.8112 28.5657 26.3786 27.8261C26.9461 27.0865 27.1374 26.1251 26.8965 25.2246L32.8106 19.3105C33.2535 18.8792 33.3864 18.2203 33.1453 17.651C32.9043 17.0817 32.3387 16.7185 31.7207 16.7363L31.7207 16.7363ZM34.916 20.9805C34.4402 20.992 33.9982 21.2286 33.7246 21.618C33.4511 22.0075 33.3786 22.5036 33.5293 22.9551C33.8351 23.9142 34 24.9357 34 26C34 28.4992 33.0912 30.7687 31.582 32.5215C31.2201 32.926 31.1049 33.4945 31.2808 34.008C31.4567 34.5215 31.8963 34.8999 32.4303 34.9975C32.9643 35.0951 33.5093 34.8966 33.8555 34.4785C35.8143 32.2033 37 29.2308 37 26C37 24.6243 36.7849 23.2938 36.3867 22.0449C36.1912 21.4001 35.5897 20.9647 34.916 20.9805V20.9805Z" fill="url(#paint0_linear_935_1029)"/>
</g>
<defs>
<linearGradient id="paint0_linear_935_1029" x1="4" y1="24" x2="44" y2="24" gradientUnits="userSpaceOnUse">
<stop stop-color="#6E82F9"/>
<stop offset="0.503125" stop-color="#22B9FF"/>
<stop offset="1" stop-color="#A6FFD8"/>
<stop offset="1" stop-color="#9FFBCE"/>
</linearGradient>
<clipPath id="clip0_935_1029">
<rect width="48" height="48" fill="white"/>
</clipPath>
</defs>
</svg>
