<svg width="48" height="48" viewBox="0 0 48 48" fill="none" xmlns="http://www.w3.org/2000/svg">
<g clip-path="url(#clip0_935_1029)">
<path d="M24 7.60001C12.9723 7.60001 4 16.5723 4 27.6C4 33.9502 6.98021 39.6159 11.6016 43.2758C11.8662 43.4854 12.1937 43.5996 12.5312 43.6H35.4668C35.805 43.6001 36.1333 43.4858 36.3984 43.2758C41.0209 39.6159 44 33.9502 44 27.6C44 16.5723 35.0277 7.60001 24 7.60001H24ZM24 10.6C33.4063 10.6 41 18.1937 41 27.6C41 32.8474 38.5931 37.4807 34.8633 40.6H13.1348C9.40591 37.4807 7 32.8474 7 27.6C7 18.1937 14.5937 10.6 24 10.6H24ZM24 14.6C16.8383 14.6 11 20.4383 11 27.6C11 30.8317 12.1873 33.8041 14.1465 36.0785C14.4894 36.5074 15.0392 36.7147 15.5799 36.619C16.1206 36.5232 16.5658 36.1397 16.7405 35.6191C16.9152 35.0985 16.7915 34.524 16.418 34.1215C14.9091 32.3699 14 30.1003 14 27.6C14 22.0597 18.4597 17.6 24 17.6C25.0643 17.6 26.0858 17.7649 27.0449 18.0707C27.5607 18.2527 28.1347 18.1395 28.5429 17.7754C28.951 17.4112 29.1285 16.8537 29.0062 16.3206C28.8839 15.7875 28.4811 15.3632 27.9551 15.2133C26.7062 14.8151 25.3757 14.6 24 14.6V14.6ZM31.7207 18.3363C31.3311 18.3477 30.9613 18.5102 30.6895 18.7895L24.7734 24.7055C24.5213 24.6368 24.2613 24.6013 24 24.6C22.3431 24.6 21 25.9432 21 27.6C21 29.2569 22.3431 30.6 24 30.6C24.9322 30.5995 25.8112 30.1657 26.3786 29.4261C26.9461 28.6865 27.1374 27.7251 26.8965 26.8246L32.8106 20.9106C33.2535 20.4792 33.3864 19.8203 33.1453 19.251C32.9043 18.6817 32.3387 18.3185 31.7207 18.3363L31.7207 18.3363ZM34.916 22.5805C34.4402 22.592 33.9982 22.8286 33.7246 23.218C33.4511 23.6075 33.3786 24.1036 33.5293 24.5551C33.8351 25.5142 34 26.5357 34 27.6C34 30.0992 33.0912 32.3687 31.582 34.1215C31.2201 34.526 31.1049 35.0945 31.2808 35.608C31.4567 36.1215 31.8963 36.4999 32.4303 36.5975C32.9643 36.6951 33.5093 36.4966 33.8555 36.0785C35.8143 33.8033 37 30.8308 37 27.6C37 26.2243 36.7849 24.8938 36.3867 23.6449C36.1912 23.0001 35.5897 22.5647 34.916 22.5805V22.5805Z" fill="url(#paint0_linear_935_1029)"/>
</g>
<defs>
<linearGradient id="paint0_linear_935_1029" x1="4" y1="25.6" x2="44" y2="25.6" gradientUnits="userSpaceOnUse">
<stop stop-color="#6E82F9"/>
<stop offset="0.503125" stop-color="#22B9FF"/>
<stop offset="1" stop-color="#A6FFD8"/>
<stop offset="1" stop-color="#9FFBCE"/>
</linearGradient>
<clipPath id="clip0_935_1029">
<rect width="48" height="48" fill="white"/>
</clipPath>
</defs>
</svg>
