<svg width="151" height="151" viewBox="0 0 151 151" fill="none" xmlns="http://www.w3.org/2000/svg">
<g clip-path="url(#clip0)">
<path d="M75.4997 16.875C40.8083 16.875 12.583 45.1003 12.583 79.7917C12.583 99.7684 21.9582 117.592 36.4963 129.105C37.3286 129.764 38.359 130.124 39.4209 130.125H111.572C112.636 130.125 113.669 129.766 114.503 129.105C129.044 117.592 138.416 99.7684 138.416 79.7917C138.416 45.1003 110.191 16.875 75.4997 16.875H75.4997ZM75.4997 26.3125C105.09 26.3125 128.979 50.201 128.979 79.7917C128.979 96.2992 121.407 110.875 109.674 120.688H41.3195C29.5891 110.875 22.0205 96.299 22.0205 79.7917C22.0205 50.201 45.9091 26.3125 75.4997 26.3125H75.4997ZM75.4997 38.8958C52.97 38.8958 34.6038 57.262 34.6038 79.7917C34.6038 89.958 38.339 99.3089 44.5022 106.464C45.5808 107.813 47.3104 108.465 49.0114 108.164C50.7124 107.863 52.1128 106.656 52.6624 105.018C53.2119 103.381 52.8228 101.574 51.6479 100.307C46.9013 94.7969 44.0414 87.6573 44.0414 79.7917C44.0414 62.3629 58.0709 48.3333 75.4997 48.3333C78.8477 48.3333 82.0613 48.8521 85.0785 49.8141C86.7012 50.3866 88.5069 50.0306 89.7907 48.8849C91.0746 47.7393 91.6332 45.9857 91.2484 44.3085C90.8637 42.6314 89.5966 41.2966 87.9417 40.8251C84.0129 39.5725 79.8275 38.8958 75.4997 38.8958L75.4997 38.8958ZM99.7877 50.6497C98.5622 50.6854 97.3987 51.1966 96.5436 52.0752L77.9328 70.686C77.1397 70.4699 76.3217 70.3583 75.4997 70.3542C70.2875 70.3542 66.0622 74.5795 66.0622 79.7917C66.0622 85.0039 70.2875 89.2292 75.4997 89.2292C78.4322 89.2276 81.1974 87.863 82.9824 85.5363C84.7675 83.2096 85.3695 80.1853 84.6115 77.3524L103.216 58.7478C104.609 57.3908 105.028 55.3181 104.269 53.5271C103.511 51.7361 101.732 50.5937 99.7877 50.6497V50.6497ZM109.84 64.0011C108.343 64.0373 106.952 64.7815 106.092 66.0067C105.231 67.2319 105.003 68.7927 105.477 70.2128C106.439 73.2301 106.958 76.4437 106.958 79.7917C106.958 87.6537 104.099 94.7931 99.3515 100.307C98.2129 101.58 97.8505 103.368 98.4039 104.983C98.9574 106.599 100.34 107.789 102.02 108.096C103.7 108.403 105.414 107.779 106.503 106.464C112.666 99.3064 116.396 89.9552 116.396 79.7917C116.396 75.4638 115.719 71.2784 114.466 67.3496C113.851 65.321 111.959 63.9515 109.84 64.0011H109.84Z" fill="url(#paint0_linear)"/>
</g>
<defs>
<linearGradient id="paint0_linear" x1="12.583" y1="73.5" x2="138.416" y2="73.5" gradientUnits="userSpaceOnUse">
<stop stop-color="#6E82F9"/>
<stop offset="0.503125" stop-color="#22B9FF"/>
<stop offset="1" stop-color="#A6FFD8"/>
<stop offset="1" stop-color="#9FFBCE"/>
</linearGradient>
<clipPath id="clip0">
<rect width="151" height="151" fill="white"/>
</clipPath>
</defs>
</svg>
