<svg width="85" height="85" viewBox="0 0 85 85" fill="none" xmlns="http://www.w3.org/2000/svg">
<path d="M35.417 12.3958V37.6302L58.5653 35.0837C62.3 34.7437 65.5212 37.6851 65.5212 41.434C65.5212 44.9579 62.6666 47.8125 59.1426 47.8125H54.8962V53.125H60.2087C68.0322 53.125 74.3753 46.7819 74.3753 38.9583V36.9608C74.3753 25.0537 65.2963 15.1123 53.4388 14.0338L35.417 12.3958Z" fill="url(#paint0_linear_1521_1706)"/>
<path d="M35.4173 40.7292C34.4398 40.7292 33.6465 39.9358 33.6465 38.9583V10.625C33.6465 9.6475 34.4398 8.85417 35.4173 8.85417C36.3948 8.85417 37.1881 9.6475 37.1881 10.625V38.9583C37.1881 39.9358 36.3948 40.7292 35.4173 40.7292Z" fill="#EBA600"/>
<path d="M17.7087 47.8125V46.0417C17.7087 45.0642 16.9153 44.2708 15.9378 44.2708C14.9603 44.2708 14.167 45.0642 14.167 46.0417V49.5833C14.167 50.5608 14.9603 51.3542 15.9378 51.3542H17.7087H23.0212V47.8125H17.7087Z" fill="#343434"/>
<path d="M60.209 58.4375H17.709V76.1458H60.209V58.4375Z" fill="url(#paint1_linear_1521_1706)"/>
<path d="M56.6667 58.4375H21.25V49.5833C21.25 48.6058 22.0433 47.8125 23.0208 47.8125H54.8958C55.8733 47.8125 56.6667 48.6058 56.6667 49.5833L56.6667 58.4375Z" fill="url(#paint2_linear_1521_1706)"/>
<path d="M60.2083 60.2083H17.7083C16.7308 60.2083 15.9375 59.415 15.9375 58.4375C15.9375 57.46 16.7308 56.6667 17.7083 56.6667H60.2083C61.1858 56.6667 61.9792 57.46 61.9792 58.4375C61.9792 59.415 61.1858 60.2083 60.2083 60.2083Z" fill="url(#paint3_linear_1521_1706)"/>
<path d="M60.2083 77.9167H17.7083C16.7308 77.9167 15.9375 77.1233 15.9375 76.1458C15.9375 75.1683 16.7308 74.375 17.7083 74.375H60.2083C61.1858 74.375 61.9792 75.1683 61.9792 76.1458C61.9792 77.1233 61.1858 77.9167 60.2083 77.9167Z" fill="url(#paint4_linear_1521_1706)"/>
<path opacity="0.05" d="M38.959 63.75C40.9158 63.75 42.5007 65.3349 42.5007 67.2917C42.5007 69.2484 40.9158 70.8333 38.959 70.8333C37.0022 70.8333 35.4173 69.2484 35.4173 67.2917C35.4173 65.3349 37.0022 63.75 38.959 63.75ZM38.959 61.9792C36.03 61.9792 33.6465 64.3627 33.6465 67.2917C33.6465 70.2206 36.03 72.6042 38.959 72.6042C41.8879 72.6042 44.2715 70.2206 44.2715 67.2917C44.2715 64.3627 41.8879 61.9792 38.959 61.9792V61.9792Z" fill="black"/>
<path opacity="0.07" d="M38.9583 63.75C40.9151 63.75 42.5 65.3349 42.5 67.2917C42.5 69.2484 40.9151 70.8333 38.9583 70.8333C37.0016 70.8333 35.4167 69.2485 35.4167 67.2917C35.4167 65.3349 37.0016 63.75 38.9583 63.75ZM38.9583 62.8646C36.5164 62.8646 34.5312 64.8515 34.5312 67.2917C34.5312 69.7319 36.5164 71.7187 38.9583 71.7187C41.4003 71.7187 43.3854 69.7319 43.3854 67.2917C43.3854 64.8515 41.4003 62.8646 38.9583 62.8646Z" fill="black"/>
<path d="M38.9587 70.8333C40.9147 70.8333 42.5003 69.2476 42.5003 67.2916C42.5003 65.3356 40.9147 63.7499 38.9587 63.7499C37.0027 63.7499 35.417 65.3356 35.417 67.2916C35.417 69.2476 37.0027 70.8333 38.9587 70.8333Z" fill="url(#paint5_linear_1521_1706)"/>
<path opacity="0.05" d="M56.6666 54.8958H21.25V56.6666H56.6666V54.8958Z" fill="black"/>
<path opacity="0.07" d="M56.6666 55.7812H21.25V56.6666H56.6666V55.7812Z" fill="black"/>
<path opacity="0.05" d="M17.709 61.9791L60.209 61.9791V60.2083L17.709 60.2083V61.9791Z" fill="black"/>
<path opacity="0.07" d="M17.709 61.0937L60.209 61.0937V60.2083L17.709 60.2083V61.0937Z" fill="black"/>
<path opacity="0.05" d="M60.209 72.6041H17.709V74.3749H60.209V72.6041Z" fill="black"/>
<path opacity="0.07" d="M60.209 73.4895H17.709V74.3749H60.209V73.4895Z" fill="black"/>
<defs>
<linearGradient id="paint0_linear_1521_1706" x1="35.038" y1="12.6685" x2="69.9394" y2="47.5699" gradientUnits="userSpaceOnUse">
<stop stop-color="#FFD869"/>
<stop offset="1" stop-color="#FEC52B"/>
</linearGradient>
<linearGradient id="paint1_linear_1521_1706" x1="139.601" y1="191.608" x2="139.601" y2="263.712" gradientUnits="userSpaceOnUse">
<stop stop-color="#A34F27"/>
<stop offset="0.587" stop-color="#8B3817"/>
<stop offset="1" stop-color="#802D10"/>
</linearGradient>
<linearGradient id="paint2_linear_1521_1706" x1="38.9583" y1="38.3138" x2="38.9583" y2="53.9449" gradientUnits="userSpaceOnUse">
<stop stop-color="#6D6D6D"/>
<stop offset="0.126" stop-color="#626262"/>
<stop offset="0.886" stop-color="#464646"/>
<stop offset="1" stop-color="#454545"/>
</linearGradient>
<linearGradient id="paint3_linear_1521_1706" x1="15.9375" y1="58.4375" x2="61.9792" y2="58.4375" gradientUnits="userSpaceOnUse">
<stop stop-color="#C26715"/>
<stop offset="0.346" stop-color="#BE6015"/>
<stop offset="0.686" stop-color="#B54E16"/>
<stop offset="0.979" stop-color="#AD3F16"/>
</linearGradient>
<linearGradient id="paint4_linear_1521_1706" x1="15.9375" y1="76.1458" x2="61.9792" y2="76.1458" gradientUnits="userSpaceOnUse">
<stop stop-color="#C26715"/>
<stop offset="0.346" stop-color="#BE6015"/>
<stop offset="0.686" stop-color="#B54E16"/>
<stop offset="0.979" stop-color="#AD3F16"/>
</linearGradient>
<linearGradient id="paint5_linear_1521_1706" x1="125.032" y1="226.559" x2="152.85" y2="254.378" gradientUnits="userSpaceOnUse">
<stop stop-color="#FFD869"/>
<stop offset="1" stop-color="#FEC52B"/>
</linearGradient>
</defs>
</svg>
