<svg width="200" height="210" viewBox="0 0 200 210" fill="none" xmlns="http://www.w3.org/2000/svg">
<path d="M143.174 72.1693H160.363C165.402 72.1693 169.254 76.0199 169.551 81.0553V116.303C169.551 118.673 168.662 120.746 166.883 122.523L95.4597 193.908L80.0488 184.725L151.472 113.341V90.2375H121.836C118.28 90.2375 115.02 87.8679 113.538 84.6097C112.352 81.0553 112.945 77.5009 115.612 74.8351L136.358 54.1011C139.618 50.5467 145.249 50.5467 148.805 54.1011C152.362 57.3593 152.362 62.9871 148.805 66.5415L143.174 72.1693Z" fill="#FF0061"/>
<path d="M71.6302 16H115.911C120.948 16 124.799 19.8492 124.799 24.8828C124.799 29.9165 120.948 33.7657 115.912 33.7657H86.2868C64.9571 33.7657 47.7748 50.9393 47.7748 72.2583C47.7748 90.6163 60.5134 105.717 77.3994 109.863V75.2192C77.3994 70.1856 81.2506 66.3363 86.2868 66.3363C91.323 66.3363 95.1742 70.1856 95.1742 75.2192V119.634C95.1742 124.667 91.323 128.517 86.2868 128.517C55.1809 128.517 30 103.348 30 72.2583C30 57.4534 40.4199 24.8828 71.6302 16Z" fill="white" fill-opacity="0.7"/>
<path d="M71.6302 16H115.911C120.948 16 124.799 19.8492 124.799 24.8828C124.799 29.9165 120.948 33.7657 115.912 33.7657H86.2868C64.9571 33.7657 47.7748 50.9393 47.7748 72.2583C47.7748 90.6163 60.5134 105.717 77.3994 109.863V75.2192C77.3994 70.1856 81.2506 66.3363 86.2868 66.3363C91.323 66.3363 95.1742 70.1856 95.1742 75.2192V119.634C95.1742 124.667 91.323 128.517 86.2868 128.517C55.1809 128.517 30 103.348 30 72.2583C30 57.4534 40.4199 24.8828 71.6302 16Z" fill="#FF0061"/>
</svg>
