<svg width="250" height="250" viewBox="0 0 250 250" fill="none" xmlns="http://www.w3.org/2000/svg">
<path d="M56.9458 88.6676L140.392 114.851L56.9458 88.6676Z" stroke="#F9F8FE" stroke-width="67.2" stroke-linecap="round" stroke-linejoin="round"/>
<path d="M201.004 189.372L141.516 219.362C132.754 223.779 125.661 218.631 125.661 207.856V134.697C125.661 123.921 132.754 111.622 141.516 107.205L201.004 77.2159C209.765 72.7989 216.858 77.9465 216.858 88.7216V161.881C216.858 172.656 209.765 184.955 201.004 189.372Z" fill="#C0C1D2"/>
<path d="M201.004 189.372L141.516 219.362C132.754 223.779 125.661 218.631 125.661 207.856V134.697C125.661 123.921 132.754 111.622 141.516 107.205L201.004 77.2159C209.765 72.7989 216.858 77.9465 216.858 88.7216V161.881C216.858 172.656 209.765 184.955 201.004 189.372Z" stroke="#F9F8FE" stroke-width="7.35" stroke-linecap="round" stroke-linejoin="round"/>
<path d="M149.421 174.469C154.895 171.713 159.357 174.951 159.357 181.677C159.357 188.403 154.895 196.092 149.421 198.848C143.947 201.603 139.517 198.388 139.517 191.662C139.517 184.936 143.947 177.224 149.421 174.469Z" fill="#191919"/>
<path d="M192.962 99.0881C198.436 96.3328 202.866 99.5474 202.866 106.274C202.866 113 198.436 120.712 192.962 123.467C187.488 126.223 183.027 122.985 183.027 116.259C183.027 109.533 187.488 101.843 192.962 99.0881Z" fill="#191919"/>
<path d="M48.6293 189.653L108.558 219.422C117.385 223.807 124.531 218.633 124.531 207.858V134.699C124.531 123.924 117.385 111.651 108.558 107.266L48.6293 77.4969C39.8027 73.1122 32.6567 78.2858 32.6567 89.0609V162.22C32.6567 172.995 39.8027 185.268 48.6293 189.653Z" fill="#D8DDEB"/>
<path d="M48.6293 189.653L108.558 219.422C117.385 223.807 124.531 218.633 124.531 207.858V134.699C124.531 123.924 117.385 111.651 108.558 107.266L48.6293 77.4969C39.8027 73.1122 32.6567 78.2858 32.6567 89.0609V162.22C32.6567 172.995 39.8027 185.268 48.6293 189.653Z" stroke="#F9F8FE" stroke-width="7.35" stroke-linecap="round" stroke-linejoin="round"/>
<path d="M78.3996 136.99C83.9051 139.729 88.3612 147.391 88.3612 154.117C88.3612 160.843 83.9051 164.109 78.3996 161.37C72.8941 158.631 68.4067 150.915 68.4067 144.189C68.4067 137.463 72.8941 134.251 78.3996 136.99Z" fill="#E72525"/>
<path d="M139.905 31.56L199.834 61.3294C208.661 65.714 208.707 72.8369 199.938 77.2498L140.399 107.214C131.63 111.627 117.385 111.651 108.558 107.266L48.6292 77.4969C39.8026 73.1123 39.7557 65.9894 48.525 61.5765L108.065 31.6121C116.834 27.1991 131.078 27.1753 139.905 31.56Z" fill="#F2F1F8"/>
<path d="M139.905 31.56L199.834 61.3294C208.661 65.714 208.707 72.8369 199.938 77.2498L140.399 107.214C131.63 111.627 117.385 111.651 108.558 107.266L48.6292 77.4969C39.8026 73.1123 39.7557 65.9894 48.525 61.5765L108.065 31.6121C116.834 27.1991 131.078 27.1753 139.905 31.56Z" stroke="#F9F8FE" stroke-width="7.35" stroke-linecap="round" stroke-linejoin="round"/>
<path d="M179.278 65.6269C184.252 68.6237 183.426 73.0691 177.432 75.556C171.439 78.0429 162.548 77.6296 157.574 74.6329C152.6 71.6362 153.427 67.1907 159.42 64.7038C165.414 62.2169 174.305 62.6302 179.278 65.6269Z" fill="#191919"/>
<g opacity="0.25">
<path d="M167.783 67.0624C167.783 67.0624 170.316 67.0233 172.737 67.7837" stroke="white" stroke-width="10.4843" stroke-linecap="round" stroke-linejoin="round"/>
</g>
<path d="M135.574 64.9643C140.548 67.961 139.721 72.4065 133.728 74.8933C127.735 77.3802 118.844 76.9669 113.87 73.9702C108.896 70.9735 109.723 66.5281 115.716 64.0412C121.71 61.5543 130.601 61.9676 135.574 64.9643Z" fill="#191919"/>
<g opacity="0.25">
<path d="M124.079 66.3998C124.079 66.3998 126.612 66.3607 129.033 67.1211" stroke="white" stroke-width="10.4843" stroke-linecap="round" stroke-linejoin="round"/>
</g>
<path d="M92.9957 63.466C97.9695 66.4627 97.1429 70.9082 91.1495 73.3951C85.1561 75.8819 76.2652 75.4686 71.2914 72.4719C66.3176 69.4752 67.1442 65.0298 73.1376 62.5429C79.131 60.056 88.0219 60.4693 92.9957 63.466Z" fill="#191919"/>
<g opacity="0.25">
<path d="M81.5001 64.9014C81.5001 64.9014 84.033 64.8623 86.4538 65.6227" stroke="white" stroke-width="10.4843" stroke-linecap="round" stroke-linejoin="round"/>
</g>
<g opacity="0.25">
<path d="M197.81 109.592C197.81 109.592 197.552 112.04 196.11 114.34" stroke="white" stroke-width="7.35" stroke-linecap="round" stroke-linejoin="round"/>
</g>
<g opacity="0.25">
<path d="M154.534 183.867C154.534 183.867 154.462 186.315 153.02 188.615" stroke="white" stroke-width="7.35" stroke-linecap="round" stroke-linejoin="round"/>
</g>
<g opacity="0.25">
<path d="M74.4346 147.451C74.4346 147.451 74.5095 149.897 75.969 152.193" stroke="white" stroke-width="7.35" stroke-linecap="round" stroke-linejoin="round"/>
</g>
<path d="M152.431 97.8728C150.094 99.0488 147.943 100.128 146.082 101.066" stroke="white" stroke-width="6.3" stroke-linecap="round" stroke-linejoin="round"/>
<path d="M139.235 104.512C139.139 104.564 139.087 104.586 139.087 104.586C138.059 105.107 136.95 105.561 135.774 105.948" stroke="white" stroke-width="6.3" stroke-linecap="round" stroke-linejoin="round"/>
<path d="M123.88 28.0211C120.292 28.2146 116.467 29.2194 112.879 30.4772C109.284 31.7351 105.935 33.2385 103.293 34.422C100.42 35.717 88.139 41.6639 75.1958 48.2807C62.2526 54.8974 48.6543 62.1915 43.1466 66.1809C36.6415 70.8923 34.1704 77.9333 33.2996 85.1827C32.4213 92.4396 33.1582 99.9122 33.0614 105.494C32.987 109.439 32.2427 123.678 32.0492 138.288C31.8482 152.906 32.198 167.903 34.3267 173.381C36.567 179.164 40.2289 183.459 44.6873 186.972C49.1456 190.485 54.3928 193.224 59.8262 195.911C65.0288 198.471 77.7859 205.393 91.1013 211.593C104.424 217.793 118.305 223.286 125.77 222.988C132.491 222.72 140.53 220.168 145.784 217.711C161.861 210.209 177.268 201.984 192.883 194.117C203.646 188.699 211.922 182.067 215.056 169.154C218.107 156.59 220.013 92.6033 216.046 80.6127C212.138 68.7934 200.609 61.6556 189.653 56.1553C179.24 50.9304 139.443 27.1949 123.88 28.0211Z" stroke="#939BAC" stroke-width="10.5" stroke-linecap="round" stroke-linejoin="round"/>
</svg>
