<svg width="151" height="151" viewBox="0 0 151 151" fill="none" xmlns="http://www.w3.org/2000/svg">
<g clip-path="url(#clip0)">
<path d="M33.0313 18.875C25.2689 18.875 18.875 25.2689 18.875 33.0313V42.4688C18.875 50.2311 25.2689 56.625 33.0313 56.625H58.1979C65.9603 56.625 72.3542 50.2311 72.3542 42.4688V33.0313C72.3542 25.2689 65.9603 18.875 58.1979 18.875H33.0313ZM92.8021 18.875C85.0397 18.875 78.6458 25.2689 78.6458 33.0313V73.9271C78.6458 81.6894 85.0397 88.0833 92.8021 88.0833H117.969C125.731 88.0833 132.125 81.6894 132.125 73.9271V33.0313C132.125 25.2689 125.731 18.875 117.969 18.875H92.8021ZM33.0313 28.3125H58.1979C60.8609 28.3125 62.9167 30.3683 62.9167 33.0313V42.4688C62.9167 45.1317 60.8609 47.1875 58.1979 47.1875H33.0313C30.3683 47.1875 28.3125 45.1317 28.3125 42.4688V33.0313C28.3125 30.3683 30.3683 28.3125 33.0313 28.3125ZM92.8021 28.3125H117.969C120.632 28.3125 122.688 30.3683 122.688 33.0313V73.9271C122.688 76.59 120.632 78.6458 117.969 78.6458H92.8021C90.1391 78.6458 88.0833 76.59 88.0833 73.9271V33.0313C88.0833 30.3683 90.1391 28.3125 92.8021 28.3125ZM33.0313 62.9167C25.2689 62.9167 18.875 69.3106 18.875 77.0729V117.969C18.875 125.731 25.2689 132.125 33.0313 132.125H58.1979C65.9603 132.125 72.3542 125.731 72.3542 117.969V77.0729C72.3542 69.3106 65.9603 62.9167 58.1979 62.9167H33.0313ZM33.0313 72.3542H58.1979C60.8609 72.3542 62.9167 74.41 62.9167 77.0729V117.969C62.9167 120.632 60.8609 122.688 58.1979 122.688H33.0313C30.3683 122.688 28.3125 120.632 28.3125 117.969V77.0729C28.3125 74.41 30.3683 72.3542 33.0313 72.3542ZM92.8021 94.375C85.0397 94.375 78.6458 100.769 78.6458 108.531V117.969C78.6458 125.731 85.0397 132.125 92.8021 132.125H117.969C125.731 132.125 132.125 125.731 132.125 117.969V108.531C132.125 100.769 125.731 94.375 117.969 94.375H92.8021ZM92.8021 103.813H117.969C120.632 103.813 122.688 105.868 122.688 108.531V117.969C122.688 120.632 120.632 122.688 117.969 122.688H92.8021C90.1391 122.688 88.0833 120.632 88.0833 117.969V108.531C88.0833 105.868 90.1391 103.813 92.8021 103.813Z" fill="url(#paint0_linear)"/>
</g>
<defs>
<linearGradient id="paint0_linear" x1="18.875" y1="75.5" x2="132.125" y2="75.5" gradientUnits="userSpaceOnUse">
<stop stop-color="#6E82F9"/>
<stop offset="0.503125" stop-color="#22B9FF"/>
<stop offset="1" stop-color="#A6FFD8"/>
<stop offset="1" stop-color="#9FFBCE"/>
</linearGradient>
<clipPath id="clip0">
<rect width="151" height="151" fill="white"/>
</clipPath>
</defs>
</svg>
