<svg width="48" height="48" viewBox="0 0 48 48" fill="none" xmlns="http://www.w3.org/2000/svg">
<g clip-path="url(#clip0_935_1028)">
<path d="M8.5 6.60001C6.0325 6.60001 4 8.63251 4 11.1V32.1C4 34.5675 6.0325 36.6 8.5 36.6H17V41.6H13.5C12.959 41.5924 12.4559 41.8766 12.1832 42.3438C11.9105 42.8111 11.9105 43.3889 12.1832 43.8562C12.4559 44.3234 12.959 44.6077 13.5 44.6H18.2539C18.4149 44.6265 18.5792 44.6265 18.7402 44.6H29.2539C29.4149 44.6265 29.5792 44.6265 29.7402 44.6H34.5C35.041 44.6077 35.5441 44.3234 35.8168 43.8562C36.0895 43.3889 36.0895 42.8111 35.8168 42.3438C35.5441 41.8766 35.041 41.5924 34.5 41.6H31V36.6H39.5C41.9675 36.6 44 34.5675 44 32.1V11.1C44 8.63251 41.9675 6.60001 39.5 6.60001H8.5ZM8.5 9.60001H39.5C40.3465 9.60001 41 10.2535 41 11.1V32.1C41 32.9465 40.3465 33.6 39.5 33.6H29.7461C29.5851 33.5736 29.4208 33.5736 29.2598 33.6H18.7461C18.5851 33.5736 18.4208 33.5736 18.2598 33.6H8.5C7.6535 33.6 7 32.9465 7 32.1V11.1C7 10.2535 7.6535 9.60001 8.5 9.60001ZM10.5 13.6C9.67161 13.6001 9.00008 14.2716 9 15.1V28.1C9.00008 28.9284 9.67161 29.5999 10.5 29.6H17.5C18.3284 29.5999 18.9999 28.9284 19 28.1V15.1C18.9999 14.2716 18.3284 13.6001 17.5 13.6H10.5ZM22.5 13.6C21.6716 13.6001 21.0001 14.2716 21 15.1V28.1C21.0001 28.9284 21.6716 29.5999 22.5 29.6H37.5C38.3284 29.5999 38.9999 28.9284 39 28.1V15.1C38.9999 14.2716 38.3284 13.6001 37.5 13.6H22.5ZM12 16.6H16V26.6H12V16.6ZM24 16.6H36V26.6H24V16.6ZM20 36.6H28V41.6H20V36.6Z" fill="url(#paint0_linear_935_1028)"/>
</g>
<defs>
<linearGradient id="paint0_linear_935_1028" x1="4" y1="25.6099" x2="44" y2="25.6099" gradientUnits="userSpaceOnUse">
<stop stop-color="#6E82F9"/>
<stop offset="0.503125" stop-color="#22B9FF"/>
<stop offset="1" stop-color="#A6FFD8"/>
<stop offset="1" stop-color="#9FFBCE"/>
</linearGradient>
<clipPath id="clip0_935_1028">
<rect width="48" height="48" fill="white"/>
</clipPath>
</defs>
</svg>
