<svg width="150" height="150" viewBox="0 0 150 150" fill="none" xmlns="http://www.w3.org/2000/svg">
<g clip-path="url(#clip0)">
<path d="M26.5625 15.625C18.8516 15.625 12.5 21.9766 12.5 29.6875V95.3125C12.5 103.023 18.8516 109.375 26.5625 109.375H53.125V125H42.1875C40.497 124.976 38.9246 125.864 38.0724 127.324C37.2202 128.785 37.2202 130.59 38.0724 132.051C38.9246 133.511 40.497 134.399 42.1875 134.375H57.0435C57.5467 134.458 58.06 134.458 58.5632 134.375H91.4185C91.9217 134.458 92.435 134.458 92.9382 134.375H107.812C109.503 134.399 111.075 133.511 111.928 132.051C112.78 130.59 112.78 128.785 111.928 127.324C111.075 125.864 109.503 124.976 107.812 125H96.875V109.375H123.437C131.148 109.375 137.5 103.023 137.5 95.3125V29.6875C137.5 21.9766 131.148 15.625 123.437 15.625H26.5625ZM26.5625 25H123.437C126.083 25 128.125 27.0422 128.125 29.6875V95.3125C128.125 97.9578 126.083 100 123.437 100H92.9565C92.4533 99.9173 91.94 99.9173 91.4368 100H58.5815C58.0783 99.9173 57.565 99.9173 57.0618 100H26.5625C23.9172 100 21.875 97.9578 21.875 95.3125V29.6875C21.875 27.0422 23.9172 25 26.5625 25ZM32.8125 37.5C30.2238 37.5003 28.1253 39.5988 28.125 42.1875V82.8125C28.1253 85.4012 30.2238 87.4997 32.8125 87.5H54.6875C57.2762 87.4997 59.3747 85.4012 59.375 82.8125V42.1875C59.3747 39.5988 57.2762 37.5003 54.6875 37.5H32.8125ZM70.3125 37.5C67.7238 37.5003 65.6253 39.5988 65.625 42.1875V82.8125C65.6253 85.4012 67.7238 87.4997 70.3125 87.5H117.187C119.776 87.4997 121.875 85.4012 121.875 82.8125V42.1875C121.875 39.5988 119.776 37.5003 117.187 37.5H70.3125ZM37.5 46.875H50V78.125H37.5V46.875ZM75 46.875H112.5V78.125H75V46.875ZM62.5 109.375H87.5V125H62.5V109.375Z" fill="url(#paint0_linear)"/>
</g>
<defs>
<linearGradient id="paint0_linear" x1="12.5" y1="75.031" x2="137.5" y2="75.031" gradientUnits="userSpaceOnUse">
<stop stop-color="#6E82F9"/>
<stop offset="0.503125" stop-color="#22B9FF"/>
<stop offset="1" stop-color="#A6FFD8"/>
<stop offset="1" stop-color="#9FFBCE"/>
</linearGradient>
<clipPath id="clip0">
<rect width="150" height="150" fill="white"/>
</clipPath>
</defs>
</svg>
