<svg width="120" height="120" viewBox="0 0 120 120" fill="none" xmlns="http://www.w3.org/2000/svg">
<g clip-path="url(#clip0)">
<path d="M105 107.5H15V17.5H105V107.5ZM20 102.5H100V22.5H20V102.5Z" fill="url(#paint0_linear)"/>
<path d="M51.25 31.25C51.25 36.08 55.165 40 59.995 40C64.835 40 68.75 36.08 68.75 31.25C68.75 26.42 64.8375 22.5 59.995 22.5C55.165 22.5 51.25 26.42 51.25 31.25Z" fill="url(#paint1_linear)"/>
<path d="M98.125 28.125C98.125 26.055 96.445 24.375 94.375 24.375C93.52 24.375 92.74 24.6725 92.1075 25.155L92.1 25.145L65 45L70 53.75L96.95 30.84C97.67 30.1575 98.125 29.195 98.125 28.125H98.125Z" fill="#AF7314"/>
<path d="M27.8925 25.155C27.26 24.6725 26.48 24.375 25.625 24.375C23.555 24.375 21.875 26.055 21.875 28.125C21.875 29.195 22.33 30.1575 23.05 30.84L50 53.75L55 45L27.9 25.1475L27.8925 25.155Z" fill="#AF7314"/>
<path d="M50 68.4998L52.5 98.7498C52.5 100.82 54.18 102.5 56.25 102.5C58.32 102.5 60 100.82 60 98.7498V72.4998L50 68.4998Z" fill="#AF7314"/>
<path d="M60 107.5C31.0525 107.5 7.5 83.95 7.5 55C7.5 26.05 31.0525 2.5 60 2.5C88.9475 2.5 112.5 26.05 112.5 55C112.5 83.95 88.9475 107.5 60 107.5ZM60 7.5C33.8075 7.5 12.5 28.8075 12.5 55C12.5 81.1925 33.8075 102.5 60 102.5C86.1925 102.5 107.5 81.1925 107.5 55C107.5 28.8075 86.1925 7.5 60 7.5Z" fill="url(#paint2_linear)"/>
<path d="M60 72.4998V98.7498C60 100.82 61.68 102.5 63.75 102.5C65.82 102.5 67.5 100.82 67.5 98.7498L70 68.4998L60 72.4998Z" fill="#AF7314"/>
<path d="M96.25 45H60H23.75C21.68 45 20 46.68 20 48.75C20 50.82 21.68 52.5 23.75 52.5L50 53.75V68.5L35.7275 90.905L35.7375 90.9125C35.28 91.5325 35 92.295 35 93.125C35 95.195 36.68 96.875 38.75 96.875C39.9525 96.875 41.0125 96.2975 41.7 95.4175L41.7125 95.4275L60 72.5L78.29 95.425L78.3025 95.415C78.9875 96.2975 80.0475 96.8725 81.2525 96.8725C83.3225 96.8725 85.0025 95.1925 85.0025 93.1225C85.0025 92.2925 84.7225 91.53 84.265 90.91L84.275 90.9025L70 68.5V53.75L96.25 52.5C98.32 52.5 100 50.82 100 48.75C100 46.68 98.32 45 96.25 45H96.25Z" fill="url(#paint3_linear)"/>
<path opacity="0.05" d="M60 72.5L51.25 83.475L51.55 87.125L60 76.5L68.45 87.125L68.75 83.475L60 72.5ZM68.425 42.5L66.7 43.75L65 45H80.3L81.775 43.75L83.25 42.5H68.425ZM51.575 42.5H36.75L38.225 43.75L39.7 45H55L53.3 43.75L51.575 42.5Z" fill="black"/>
<path opacity="0.07" d="M59.9996 72.5L51.2496 83.475L51.3996 85.3L59.9996 74.5L68.5996 85.3L68.7496 83.475L59.9996 72.5ZM66.6996 43.75L64.9996 45H80.2996L81.7746 43.75H66.6996ZM38.2246 43.75L39.6996 45H54.9996L53.2996 43.75H38.2246Z" fill="black"/>
</g>
<defs>
<linearGradient id="paint0_linear" x1="3.03" y1="5.53" x2="107.572" y2="110.072" gradientUnits="userSpaceOnUse">
<stop stop-color="#EBA600"/>
<stop offset="1" stop-color="#C28200"/>
</linearGradient>
<linearGradient id="paint1_linear" x1="53.6375" y1="13.7675" x2="86.2375" y2="103.337" gradientUnits="userSpaceOnUse">
<stop stop-color="#EBA600"/>
<stop offset="1" stop-color="#C28200"/>
</linearGradient>
<linearGradient id="paint2_linear" x1="-5.325" y1="-10.325" x2="111.958" y2="106.958" gradientUnits="userSpaceOnUse">
<stop stop-color="#FFD869"/>
<stop offset="1" stop-color="#FEC52B"/>
</linearGradient>
<linearGradient id="paint3_linear" x1="46.515" y1="13.28" x2="80.2025" y2="105.838" gradientUnits="userSpaceOnUse">
<stop stop-color="#EBA600"/>
<stop offset="1" stop-color="#C28200"/>
</linearGradient>
<clipPath id="clip0">
<rect width="120" height="120" fill="white"/>
</clipPath>
</defs>
</svg>