<svg width="150" height="150" viewBox="0 0 150 150" fill="none" xmlns="http://www.w3.org/2000/svg">
<g clip-path="url(#clip0)">
<path d="M123.345 18.7072C123.178 18.7125 123.011 18.7267 122.845 18.7499H98.4366C96.7461 18.726 95.1737 19.6142 94.3215 21.0743C93.4693 22.5345 93.4693 24.3404 94.3215 25.8005C95.1737 27.2607 96.7461 28.1488 98.4366 28.1249H112.121L93.3707 46.8749H82.8116C81.164 46.8742 79.6369 47.7386 78.7894 49.1515L70.7816 62.4999H57.8116C56.164 62.4992 54.6369 63.3636 53.7894 64.7765L45.7816 78.1249H32.8116C31.164 78.1242 29.6369 78.9886 28.7894 80.4015L19.4144 96.0266C18.553 97.4636 18.5236 99.251 19.3375 100.715C20.1513 102.18 21.6846 103.099 23.3598 103.126C25.035 103.154 26.5975 102.285 27.4588 100.848L35.4666 87.4999H48.4366C50.0843 87.5006 51.6113 86.6363 52.4588 85.2233L60.4666 71.8749H73.4366C75.0843 71.8756 76.6113 71.0113 77.4588 69.5983L85.4666 56.2499H95.3116C96.5547 56.2497 97.7469 55.7557 98.6258 54.8766L118.749 34.7533V48.4374C118.725 50.1279 119.613 51.7003 121.074 52.5525C122.534 53.4047 124.34 53.4047 125.8 52.5525C127.26 51.7003 128.148 50.1279 128.124 48.4374V23.9806C128.295 22.6234 127.865 21.259 126.947 20.2454C126.028 19.2317 124.713 18.6698 123.345 18.7072H123.345ZM123.363 62.4328C120.777 62.4732 118.712 64.6009 118.749 67.1874V126.562C118.725 128.253 119.613 129.825 121.074 130.678C122.534 131.53 124.34 131.53 125.8 130.678C127.26 129.825 128.148 128.253 128.124 126.562V67.1874C128.142 65.9198 127.646 64.699 126.749 63.8032C125.852 62.9073 124.631 62.413 123.363 62.4328V62.4328ZM98.3634 68.6828C95.7769 68.7232 93.712 70.8509 93.7491 73.4374V126.562C93.7252 128.253 94.6134 129.825 96.0735 130.678C97.5337 131.53 99.3396 131.53 100.8 130.678C102.26 129.825 103.148 128.253 103.124 126.562V73.4374C103.142 72.1699 102.646 70.949 101.749 70.0532C100.852 69.1573 99.6309 68.663 98.3634 68.6828H98.3634ZM73.3634 81.1828C70.7769 81.2232 68.712 83.3509 68.7491 85.9374V126.562C68.7252 128.253 69.6134 129.825 71.0735 130.678C72.5337 131.53 74.3396 131.53 75.7997 130.678C77.2599 129.825 78.148 128.253 78.1241 126.562V85.9374C78.1423 84.6698 77.6464 83.449 76.7494 82.5532C75.8524 81.6573 74.6309 81.163 73.3634 81.1828H73.3634ZM48.3633 96.8078C45.7769 96.8482 43.712 98.9759 43.7491 101.562V126.562C43.7252 128.253 44.6134 129.825 46.0735 130.678C47.5336 131.53 49.3396 131.53 50.7997 130.678C52.2598 129.825 53.148 128.253 53.1241 126.562V101.562C53.1423 100.295 52.6464 99.074 51.7494 98.1782C50.8524 97.2823 49.6309 96.788 48.3634 96.8078H48.3633ZM23.3633 115.558C20.7769 115.598 18.712 117.726 18.7491 120.312V126.562C18.7252 128.253 19.6133 129.825 21.0735 130.678C22.5336 131.53 24.3395 131.53 25.7997 130.678C27.2598 129.825 28.148 128.253 28.1241 126.562V120.312C28.1423 119.045 27.6463 117.824 26.7494 116.928C25.8524 116.032 24.6309 115.538 23.3634 115.558H23.3633Z" fill="url(#paint0_linear)"/>
</g>
<defs>
<linearGradient id="paint0_linear" x1="18.7471" y1="75.0111" x2="128.161" y2="75.0111" gradientUnits="userSpaceOnUse">
<stop stop-color="#6E82F9"/>
<stop offset="0.503125" stop-color="#22B9FF"/>
<stop offset="1" stop-color="#A6FFD8"/>
<stop offset="1" stop-color="#9FFBCE"/>
</linearGradient>
<clipPath id="clip0">
<rect width="150" height="150" fill="white"/>
</clipPath>
</defs>
</svg>
