<svg width="48" height="48" viewBox="0 0 48 48" fill="none" xmlns="http://www.w3.org/2000/svg">
<g clip-path="url(#clip0_935_1026)">
<path d="M39.4704 7.5863C39.4168 7.58799 39.3633 7.59256 39.3102 7.59997H31.4997C30.9587 7.59232 30.4556 7.87653 30.1828 8.34378C29.9101 8.81103 29.9101 9.38892 30.1828 9.85616C30.4556 10.3234 30.9587 10.6076 31.4997 10.6H35.8786L29.8786 16.6H26.4997C25.9724 16.5998 25.4838 16.8763 25.2126 17.3285L22.6501 21.6H18.4997C17.9724 21.5998 17.4838 21.8763 17.2126 22.3285L14.6501 26.6H10.4997C9.97243 26.5998 9.48377 26.8763 9.21257 27.3285L6.21257 32.3285C5.93691 32.7883 5.92752 33.3603 6.18795 33.8289C6.44837 34.2976 6.93903 34.5917 7.47509 34.6005C8.01115 34.6092 8.51117 34.3313 8.78678 33.8715L11.3493 29.6H15.4997C16.0269 29.6002 16.5156 29.3236 16.7868 28.8715L19.3493 24.6H23.4997C24.0269 24.6002 24.5156 24.3236 24.7868 23.8715L27.3493 19.6H30.4997C30.8975 19.5999 31.279 19.4418 31.5602 19.1605L37.9997 12.7211V17.1C37.992 17.6409 38.2762 18.1441 38.7435 18.4168C39.2107 18.6895 39.7886 18.6895 40.2559 18.4168C40.7231 18.1441 41.0073 17.6409 40.9997 17.1V9.2738C41.0545 8.83949 40.9169 8.40289 40.6229 8.07851C40.329 7.75413 39.908 7.57435 39.4704 7.5863H39.4704ZM39.4762 21.5785C38.6486 21.5914 37.9878 22.2723 37.9997 23.1V42.1C37.992 42.6409 38.2762 43.1441 38.7435 43.4168C39.2107 43.6895 39.7886 43.6895 40.2559 43.4168C40.7231 43.1441 41.0073 42.6409 40.9997 42.1V23.1C41.0055 22.6944 40.8468 22.3037 40.5598 22.017C40.2727 21.7303 39.8818 21.5721 39.4762 21.5785V21.5785ZM31.4762 23.5785C30.6486 23.5914 29.9878 24.2723 29.9997 25.1V42.1C29.992 42.6409 30.2762 43.1441 30.7435 43.4168C31.2107 43.6895 31.7886 43.6895 32.2559 43.4168C32.7231 43.1441 33.0073 42.6409 32.9997 42.1V25.1C33.0055 24.6944 32.8468 24.3037 32.5598 24.017C32.2727 23.7303 31.8818 23.5721 31.4762 23.5785H31.4762ZM23.4762 27.5785C22.6486 27.5914 21.9878 28.2723 21.9997 29.1V42.1C21.992 42.6409 22.2762 43.1441 22.7435 43.4168C23.2107 43.6895 23.7886 43.6895 24.2559 43.4168C24.7231 43.1441 25.0073 42.6409 24.9997 42.1V29.1C25.0055 28.6944 24.8468 28.3037 24.5598 28.017C24.2727 27.7303 23.8818 27.5721 23.4762 27.5785H23.4762ZM15.4762 32.5785C14.6486 32.5914 13.9878 33.2723 13.9997 34.1V42.1C13.992 42.6409 14.2762 43.1441 14.7435 43.4168C15.2107 43.6895 15.7886 43.6895 16.2559 43.4168C16.7231 43.1441 17.0073 42.6409 16.9997 42.1V34.1C17.0055 33.6944 16.8468 33.3037 16.5598 33.017C16.2727 32.7303 15.8818 32.5721 15.4762 32.5785H15.4762ZM7.47623 38.5785C6.64857 38.5914 5.9878 39.2723 5.99967 40.1V42.1C5.99202 42.6409 6.27623 43.1441 6.74348 43.4168C7.21073 43.6895 7.78861 43.6895 8.25586 43.4168C8.72311 43.1441 9.00732 42.6409 8.99967 42.1V40.1C9.00549 39.6944 8.84679 39.3037 8.55976 39.017C8.27273 38.7304 7.88185 38.5722 7.47624 38.5785H7.47623Z" fill="url(#paint0_linear_935_1026)"/>
</g>
<defs>
<linearGradient id="paint0_linear_935_1026" x1="5.99902" y1="25.6035" x2="41.0115" y2="25.6035" gradientUnits="userSpaceOnUse">
<stop stop-color="#6E82F9"/>
<stop offset="0.503125" stop-color="#22B9FF"/>
<stop offset="1" stop-color="#A6FFD8"/>
<stop offset="1" stop-color="#9FFBCE"/>
</linearGradient>
<clipPath id="clip0_935_1026">
<rect width="48" height="48" fill="white"/>
</clipPath>
</defs>
</svg>
