<svg width="152" height="152" viewBox="0 0 152 152" fill="none" xmlns="http://www.w3.org/2000/svg">
<g clip-path="url(#clip0)">
<path d="M64.8608 18.9836C39.5796 18.9836 18.9834 39.5799 18.9834 64.861C18.9834 90.1422 39.5796 110.738 64.8608 110.738C75.7966 110.738 85.8496 106.875 93.7443 100.456L124.784 131.496C125.975 132.736 127.742 133.235 129.406 132.801C131.069 132.368 132.368 131.069 132.801 129.406C133.235 127.743 132.735 125.975 131.495 124.785L100.455 93.7445C106.875 85.8498 110.738 75.7968 110.738 64.861C110.738 39.5799 90.142 18.9837 64.8608 18.9837V18.9836ZM64.8608 28.4755C80.0932 28.4755 93.0788 37.7558 98.5149 50.9878C90.017 44.6969 77.9495 41.1314 64.8608 41.1314C51.7641 41.1314 39.7021 44.6916 31.2067 50.9878C36.6428 37.7558 49.6284 28.4755 64.8608 28.4755ZM64.8608 50.6232C83.0936 50.6232 97.5051 59.4276 100.542 68.507C100.644 68.8122 100.776 69.1062 100.937 69.3845C99.9502 77.3912 96.392 84.5683 91.0932 90.08C90.7061 90.3646 90.3643 90.7063 90.0798 91.0935C83.5462 97.3745 74.6773 101.247 64.8608 101.247C46.1799 101.247 30.8889 87.2893 28.7533 69.1991C28.9932 68.8554 29.1864 68.4813 29.328 68.0868C32.6182 59.1704 46.9095 50.6232 64.8608 50.6232L64.8608 50.6232ZM64.8608 56.9511C59.4557 56.9511 54.8009 59.1489 51.8218 62.5004C48.8427 65.8519 47.459 70.1343 47.459 74.3529C47.459 78.5715 48.8427 82.8539 51.8218 86.2054C54.8009 89.5569 59.4557 91.7547 64.8608 91.7547C70.2659 91.7547 74.9206 89.5569 77.8998 86.2054C80.8789 82.8539 82.2626 78.5715 82.2626 74.3529C82.2626 70.1343 80.8789 65.8519 77.8998 62.5004C74.9207 59.1489 70.2659 56.9511 64.8608 56.9511ZM64.8608 66.443C67.8929 66.443 69.5661 67.4092 70.8056 68.8036C72.0451 70.1981 72.7707 72.2436 72.7707 74.3529C72.7707 76.4622 72.0451 78.5078 70.8056 79.9022C69.5661 81.2966 67.8929 82.2628 64.8608 82.2628C61.8287 82.2628 60.1555 81.2966 58.916 79.9022C57.6765 78.5078 56.9509 76.4622 56.9509 74.3529C56.9509 72.2436 57.6765 70.1981 58.916 68.8036C60.1555 67.4092 61.8287 66.443 64.8608 66.443Z" fill="url(#paint0_linear)"/>
</g>
<defs>
<linearGradient id="paint0_linear" x1="18.9834" y1="75.9693" x2="132.955" y2="75.9693" gradientUnits="userSpaceOnUse">
<stop stop-color="#6E82F9"/>
<stop offset="0.503125" stop-color="#22B9FF"/>
<stop offset="1" stop-color="#A6FFD8"/>
<stop offset="1" stop-color="#9FFBCE"/>
</linearGradient>
<clipPath id="clip0">
<rect width="151.87" height="151.87" fill="white"/>
</clipPath>
</defs>
</svg>
