<svg width="129" height="129" viewBox="0 0 129 129" fill="none" xmlns="http://www.w3.org/2000/svg">
<path d="M80.6245 24.1875L120.937 64.5C112.511 67.4927 103.115 65.4048 96.7495 59.125L69.8745 32.25L77.937 24.1875H80.6245Z" fill="url(#paint0_linear)"/>
<path d="M48.3742 64.5L15.337 31.4629C14.5684 30.6942 14.3385 29.5383 14.7544 28.534C15.1704 27.5298 16.1504 26.875 17.2374 26.875H26.8742V32.25H32.2492V37.625H37.6242V43H42.9992V48.375H48.3742L48.3742 64.5Z" fill="url(#paint1_linear)"/>
<path d="M37.9232 68.0882C38.721 69.7217 38.4249 71.6786 37.1794 73.0029C36.2059 73.9558 34.8934 74.4825 33.5313 74.4667C32.1692 74.4509 30.8692 73.8941 29.9181 72.9189L26.557 69.5579C25.894 69.078 25.4647 68.3403 25.3752 67.5267C25.2857 66.7132 25.5443 65.8998 26.087 65.2872L29.0357 62.3384C29.3641 62.0079 29.5004 61.5322 29.3967 61.0779C29.293 60.6236 28.9638 60.2541 28.5245 60.0988C23.6884 58.4078 18.3113 59.6328 14.6849 63.2517L12.6495 65.2871C12.1455 65.7911 11.8623 66.4747 11.8623 67.1875C11.8623 67.9003 12.1455 68.5838 12.6495 69.0879L48.3741 104.812V77.9375L38.2971 67.8605C38.2236 67.7868 38.1093 67.773 38.0205 67.8271C37.9316 67.8812 37.8914 67.9891 37.9232 68.0882V68.0882Z" fill="url(#paint2_linear)"/>
<path d="M83.312 32.25C83.312 21.8601 74.8893 13.4375 64.4995 13.4375C54.1096 13.4375 45.687 21.8601 45.687 32.25V96.7499C45.687 107.14 54.1096 115.562 64.4995 115.562C74.8893 115.562 83.312 107.14 83.312 96.7499V32.25Z" fill="url(#paint3_linear)"/>
<path d="M83.312 32.25C83.312 21.8601 74.8893 13.4375 64.4995 13.4375C54.1096 13.4375 45.687 21.8601 45.687 32.25V96.7499C45.687 107.14 54.1096 115.562 64.4995 115.562C74.8893 115.562 83.312 107.14 83.312 96.7499V32.25Z" fill="url(#paint4_linear)"/>
<path opacity="0.05" d="M65.8433 88.6875C66.5854 88.6875 67.187 89.2891 67.187 90.0313V94.0625H71.2183C71.9604 94.0625 72.562 94.6641 72.562 95.4063V98.0938C72.562 98.8359 71.9604 99.4375 71.2183 99.4375H67.187V103.469C67.187 104.211 66.5854 104.813 65.8433 104.813H63.1558C62.4136 104.813 61.812 104.211 61.812 103.469V99.4375H57.7808C57.0386 99.4375 56.437 98.8359 56.437 98.0938V95.4063C56.437 94.6641 57.0386 94.0625 57.7808 94.0625H61.812V90.0313C61.812 89.2891 62.4136 88.6875 63.1558 88.6875H65.8433ZM65.8433 86H63.1558C60.9304 86.0025 59.127 87.8059 59.1245 90.0313V91.375H57.7808C55.5554 91.3775 53.752 93.1809 53.7495 95.4063V98.0938C53.752 100.319 55.5554 102.122 57.7808 102.125H59.1245V103.469C59.127 105.694 60.9304 107.497 63.1558 107.5H65.8433C68.0686 107.497 69.872 105.694 69.8745 103.469V102.125H71.2183C73.4436 102.122 75.247 100.319 75.2495 98.0938V95.4063C75.247 93.1809 73.4436 91.3775 71.2183 91.375H69.8745V90.0313C69.872 87.8059 68.0686 86.0025 65.8433 86Z" fill="black"/>
<path opacity="0.07" d="M65.8433 88.6875C66.5854 88.6875 67.187 89.2891 67.187 90.0313V94.0625H71.2183C71.9604 94.0625 72.562 94.6641 72.562 95.4063V98.0938C72.562 98.8359 71.9604 99.4375 71.2183 99.4375H67.187V103.469C67.187 104.211 66.5854 104.813 65.8433 104.813H63.1558C62.4136 104.813 61.812 104.211 61.812 103.469V99.4375H57.7808C57.0386 99.4375 56.437 98.8359 56.437 98.0938V95.4063C56.437 94.6641 57.0386 94.0625 57.7808 94.0625H61.812V90.0313C61.812 89.2891 62.4136 88.6875 63.1558 88.6875H65.8433ZM65.8433 87.3438H63.1558C61.6722 87.3454 60.4699 88.5477 60.4683 90.0312V92.7187H57.7808C56.2972 92.7204 55.0949 93.9227 55.0933 95.4062V98.0937C55.0949 99.5773 56.2972 100.78 57.7808 100.781H60.4683V103.469C60.4699 104.952 61.6722 106.155 63.1558 106.156H65.8433C67.3268 106.155 68.5291 104.952 68.5307 103.469V100.781H71.2182C72.7018 100.78 73.9041 99.5773 73.9057 98.0937V95.4062C73.9041 93.9227 72.7018 92.7204 71.2182 92.7187H68.5307V90.0312C68.5291 88.5477 67.3268 87.3454 65.8433 87.3438Z" fill="black"/>
<path d="M71.2183 94.0625H67.187V90.0313C67.187 89.2891 66.5854 88.6875 65.8433 88.6875H63.1558C62.4136 88.6875 61.812 89.2891 61.812 90.0313V94.0625H57.7808C57.0386 94.0625 56.437 94.6641 56.437 95.4063V98.0938C56.437 98.8359 57.0386 99.4375 57.7808 99.4375H61.812V103.469C61.812 104.211 62.4136 104.813 63.1558 104.813H65.8433C66.5854 104.813 67.187 104.211 67.187 103.469V99.4375H71.2183C71.9604 99.4375 72.562 98.8359 72.562 98.0938V95.4063C72.562 94.6641 71.9604 94.0625 71.2183 94.0625Z" fill="white"/>
<defs>
<linearGradient id="paint0_linear" x1="127.231" y1="45.0156" x2="67.1118" y2="45.0156" gradientUnits="userSpaceOnUse">
<stop offset="0.087" stop-color="#DFE9F2"/>
<stop offset="0.291" stop-color="#D6E0E9"/>
<stop offset="0.662" stop-color="#BFC8D1"/>
<stop offset="0.741" stop-color="#889097"/>
</linearGradient>
<linearGradient id="paint1_linear" x1="14.5439" y1="45.6875" x2="48.3742" y2="45.6875" gradientUnits="userSpaceOnUse">
<stop offset="0.024" stop-color="#DFE9F2"/>
<stop offset="0.327" stop-color="#D6E0E9"/>
<stop offset="0.798" stop-color="#BFC8D1"/>
<stop offset="0.941" stop-color="#889097"/>
</linearGradient>
<linearGradient id="paint2_linear" x1="11.8617" y1="82.0843" x2="48.3741" y2="82.0843" gradientUnits="userSpaceOnUse">
<stop offset="0.038" stop-color="#DFE9F2"/>
<stop offset="0.488" stop-color="#D6E0E9"/>
<stop offset="0.809" stop-color="#BFC8D1"/>
<stop offset="0.956" stop-color="#889097"/>
</linearGradient>
<linearGradient id="paint3_linear" x1="164.551" y1="48.2088" x2="302.263" y2="426.56" gradientUnits="userSpaceOnUse">
<stop stop-color="#F44F5A"/>
<stop offset="0.443" stop-color="#EE3D4A"/>
<stop offset="1" stop-color="#E52030"/>
</linearGradient>
<linearGradient id="paint4_linear" x1="52.3453" y1="12.3195" x2="114.947" y2="74.9567" gradientUnits="userSpaceOnUse">
<stop stop-color="#FC7D5B"/>
<stop offset="0.091" stop-color="#F87855"/>
<stop offset="0.683" stop-color="#DF5731"/>
<stop offset="1" stop-color="#D64B24"/>
</linearGradient>
</defs>
</svg>
