<svg width="40" height="40" viewBox="0 0 40 40" fill="none" xmlns="http://www.w3.org/2000/svg">
<path d="M23.6 6.61243C23.0564 6.62056 22.5811 6.98111 22.4268 7.50246L14.9699 31.5302C14.8206 31.959 14.9169 32.4351 15.2211 32.7721C15.5254 33.1091 15.9892 33.2534 16.431 33.1484C16.8727 33.0435 17.2221 32.706 17.3423 32.2681L24.7992 8.24038C24.9235 7.859 24.8561 7.44107 24.6182 7.1181C24.3803 6.79513 24.0011 6.60682 23.6 6.61243V6.61243ZM11.1929 10.7584C10.8698 10.7597 10.5598 10.8868 10.3288 11.1128L2.04336 18.9839C1.7962 19.2186 1.65625 19.5445 1.65625 19.8853C1.65625 20.2261 1.7962 20.552 2.04336 20.7867L10.3288 28.6578C10.6508 28.9637 11.1116 29.0746 11.5375 28.9486C11.9634 28.8227 12.2898 28.4791 12.3936 28.0472C12.4975 27.6154 12.363 27.1609 12.0409 26.8551L4.70376 19.8853L12.0409 12.9155C12.4183 12.5679 12.5433 12.0241 12.3556 11.5466C12.1679 11.0691 11.706 10.756 11.1929 10.7584L11.1929 10.7584ZM28.5389 10.76C28.0334 10.7733 27.5863 11.0916 27.4082 11.5649C27.2302 12.0383 27.3567 12.5723 27.7282 12.9155L35.0653 19.8853L27.7282 26.8551C27.4061 27.1609 27.2716 27.6154 27.3755 28.0472C27.4793 28.4791 27.8057 28.8227 28.2316 28.9486C28.6575 29.0746 29.1183 28.9637 29.4403 28.6578L37.7257 20.7867C37.9729 20.552 38.1128 20.2261 38.1128 19.8853C38.1128 19.5445 37.9729 19.2186 37.7257 18.9839L29.4403 11.1128C29.1999 10.8782 28.8747 10.751 28.5389 10.76V10.76Z" fill="#F35E84"/>
</svg>
