<svg width="48" height="48" viewBox="0 0 48 48" fill="none" xmlns="http://www.w3.org/2000/svg">
<g clip-path="url(#clip0)">
<path d="M41.0002 9V27.34C41.0002 30.52 38.5202 33.15 35.3502 33.33L25.8202 33.89C24.2402 33.99 23.0002 35.3 23.0002 36.89V42C23.0002 43.1 22.1002 44 21.0002 44H9.10023C7.96023 44 7.05023 43.04 7.11023 41.9L7.77023 28.83C8.45023 23.39 13.3902 19.51 18.8402 20.14L28.6602 21.27C30.3602 21.47 31.8802 20.2 32.0002 18.5L32.5102 11.14C32.5902 9.98 31.6702 9 30.5102 9H28.4202C27.3802 9 26.5202 9.8 26.4302 10.83L26.1202 14.57C26.0502 15.38 25.3702 16 24.5602 16C23.7002 16 23.0002 15.3 23.0002 14.44V9C23.0002 6.24 25.2402 4 28.0002 4H36.0002C38.7602 4 41.0002 6.24 41.0002 9V9Z" fill="url(#paint0_linear)"/>
<path d="M35.0002 11L36.0002 23C36.0002 24.657 34.6572 26 33.0002 26H27.0002C24.7912 26 23.0002 27.791 23.0002 30V42C23.0002 43.1 22.1002 44 21.0002 44H9.10023C7.96023 44 7.05023 43.04 7.11023 41.9L7.77023 28.83C8.45023 23.39 13.3902 19.51 18.8402 20.14L28.6602 21.27C30.3602 21.47 31.8802 20.2 32.0002 18.5L32.5102 11.14C32.5902 9.98 31.6702 9 30.5102 9H33.0002C34.1052 9 35.0002 9.895 35.0002 11L35.0002 11Z" fill="#EB6773"/>
<path d="M9 45C10.6569 45 12 43.6569 12 42C12 40.3431 10.6569 39 9 39C7.34314 39 6 40.3431 6 42C6 43.6569 7.34314 45 9 45Z" fill="#B31523"/>
<path d="M9 37C10.6569 37 12 35.6569 12 34C12 32.3431 10.6569 31 9 31C7.34314 31 6 32.3431 6 34C6 35.6569 7.34314 37 9 37Z" fill="#B31523"/>
<path d="M10.5 28C11.8807 28 13 26.8807 13 25.5C13 24.1193 11.8807 23 10.5 23C9.11929 23 8 24.1193 8 25.5C8 26.8807 9.11929 28 10.5 28Z" fill="#B31523"/>
<path d="M16 23C17.1046 23 18 22.1046 18 21C18 19.8954 17.1046 19 16 19C14.8954 19 14 19.8954 14 21C14 22.1046 14.8954 23 16 23Z" fill="#B31523"/>
<path d="M22.5 22C23.3284 22 24 21.3284 24 20.5C24 19.6716 23.3284 19 22.5 19C21.6716 19 21 19.6716 21 20.5C21 21.3284 21.6716 22 22.5 22Z" fill="#B31523"/>
<path d="M27 22C27.5523 22 28 21.5523 28 21C28 20.4477 27.5523 20 27 20C26.4477 20 26 20.4477 26 21C26 21.5523 26.4477 22 27 22Z" fill="#B31523"/>
<path d="M31 21C31.5523 21 32 20.5523 32 20C32 19.4477 31.5523 19 31 19C30.4477 19 30 19.4477 30 20C30 20.5523 30.4477 21 31 21Z" fill="#B31523"/>
<path d="M32 17C32.5523 17 33 16.5523 33 16C33 15.4477 32.5523 15 32 15C31.4477 15 31 15.4477 31 16C31 16.5523 31.4477 17 32 17Z" fill="#B31523"/>
<path d="M36 19C36.5523 19 37 18.5523 37 18C37 17.4477 36.5523 17 36 17C35.4477 17 35 17.4477 35 18C35 18.5523 35.4477 19 36 19Z" fill="#B31523"/>
<path d="M35.5 24C36.3284 24 37 23.3284 37 22.5C37 21.6716 36.3284 21 35.5 21C34.6716 21 34 21.6716 34 22.5C34 23.3284 34.6716 24 35.5 24Z" fill="#B31523"/>
<path d="M30 27C31.1046 27 32 26.1046 32 25C32 23.8954 31.1046 23 30 23C28.8954 23 28 23.8954 28 25C28 26.1046 28.8954 27 30 27Z" fill="#B31523"/>
<path d="M22.5 29C23.8807 29 25 27.8807 25 26.5C25 25.1193 23.8807 24 22.5 24C21.1193 24 20 25.1193 20 26.5C20 27.8807 21.1193 29 22.5 29Z" fill="#B31523"/>
<path d="M21 37C22.6569 37 24 35.6569 24 34C24 32.3431 22.6569 31 21 31C19.3431 31 18 32.3431 18 34C18 35.6569 19.3431 37 21 37Z" fill="#B31523"/>
<path d="M21 45C22.6569 45 24 43.6569 24 42C24 40.3431 22.6569 39 21 39C19.3431 39 18 40.3431 18 42C18 43.6569 19.3431 45 21 45Z" fill="#B31523"/>
</g>
<defs>
<linearGradient id="paint0_linear" x1="24.0542" y1="-16.853" x2="24.0542" y2="28.714" gradientUnits="userSpaceOnUse">
<stop stop-color="#F44F5A"/>
<stop offset="0.443" stop-color="#EE3D4A"/>
<stop offset="1" stop-color="#E52030"/>
</linearGradient>
<clipPath id="clip0">
<rect width="48" height="48" fill="white"/>
</clipPath>
</defs>
</svg>
