<svg width="103" height="125" viewBox="0 0 103 125" fill="none" xmlns="http://www.w3.org/2000/svg">
<path d="M50.0001 91.6666C73.012 91.6666 91.6667 73.0118 91.6667 50C91.6667 26.9881 73.012 8.33334 50.0001 8.33334C26.9883 8.33334 8.3335 26.9881 8.3335 50C8.3335 73.0118 26.9883 91.6666 50.0001 91.6666Z" fill="url(#paint0_linear)"/>
<path opacity="0.15" d="M50 68.7499C60.3553 68.7499 68.75 60.3553 68.75 49.9999C68.75 39.6446 60.3553 31.2499 50 31.2499C39.6447 31.2499 31.25 39.6446 31.25 49.9999C31.25 60.3553 39.6447 68.7499 50 68.7499Z" fill="url(#paint1_radial)"/>
<path d="M50.0001 66.6666C59.2049 66.6666 66.6668 59.2047 66.6668 50C66.6668 40.7952 59.2049 33.3333 50.0001 33.3333C40.7954 33.3333 33.3335 40.7952 33.3335 50C33.3335 59.2047 40.7954 66.6666 50.0001 66.6666Z" fill="#FFC107"/>
<path d="M50.0002 54.1666C52.3013 54.1666 54.1668 52.3012 54.1668 50C54.1668 47.6988 52.3013 45.8333 50.0002 45.8333C47.699 45.8333 45.8335 47.6988 45.8335 50C45.8335 52.3012 47.699 54.1666 50.0002 54.1666Z" fill="url(#paint2_linear)"/>
<path d="M71.8927 37.3284C71.8927 37.3284 63.3021 58.9703 56 73.254L75.7585 66.7615C75.7585 66.7615 63.7316 107.016 63.7316 124.762C63.7316 124.762 77.9062 59.836 98.5238 51.6121L74.0404 59.4032L92.9399 33L71.8927 37.3284Z" fill="#78A0CF"/>
<path d="M78.1592 35.6075C78.1592 35.6075 68.4756 56.4674 60.4761 70.8086L80.2644 65.5936C80.2644 65.5936 66.3705 105.141 65.1074 122.524C65.1074 122.524 82.3695 58.2057 103 51.687L78.5803 57.7712L98.3686 33L78.1592 35.6075Z" fill="#EE3E54"/>
<defs>
<linearGradient id="paint0_linear" x1="179.167" y1="329.353" x2="179.167" y2="36.6321" gradientUnits="userSpaceOnUse">
<stop offset="0.002" stop-color="#454545"/>
<stop offset="0.013" stop-color="#464646"/>
<stop offset="0.875" stop-color="#626262"/>
<stop offset="1" stop-color="#6D6D6D"/>
</linearGradient>
<radialGradient id="paint1_radial" cx="0" cy="0" r="1" gradientUnits="userSpaceOnUse" gradientTransform="translate(179.167 179.166) scale(67.1874)">
<stop offset="0.828"/>
<stop offset="1" stop-opacity="0"/>
</radialGradient>
<linearGradient id="paint2_linear" x1="179.167" y1="161.489" x2="179.167" y2="192.186" gradientUnits="userSpaceOnUse">
<stop stop-color="#4C4C4C"/>
<stop offset="1" stop-color="#343434"/>
</linearGradient>
</defs>
</svg>
