<svg width="48" height="48" viewBox="0 0 48 48" fill="none" xmlns="http://www.w3.org/2000/svg">
<g clip-path="url(#clip0)">
<path opacity="0.35" d="M41.9983 11.2785C42.0283 10.6965 41.5803 10.2005 40.9983 10.1705L40.2703 10.1325C37.2163 9.97648 34.6123 12.3245 34.4563 15.3785L34.3123 18.1865L32.8283 16.7025L21.0263 4.90048C19.9103 3.78448 18.0963 3.78448 16.9803 4.90048C15.8643 6.01648 15.8643 7.83048 16.9803 8.94648L24.4003 16.3665L23.0523 17.7145L13.3783 8.04448C12.2623 6.92848 10.4483 6.92848 9.33226 8.04448C8.21626 9.16048 8.21626 10.9745 9.33226 12.0905L19.5543 22.3125L18.3883 23.8445L10.2343 15.6925C9.11826 14.5765 7.30426 14.5765 6.18826 15.6925C5.07226 16.8085 5.07226 18.6225 6.18826 19.7385L14.8943 28.4445L13.7283 29.9765L8.88426 25.1325C7.76826 24.0165 5.95426 24.0165 4.83826 25.1325C3.72026 26.2485 3.72026 28.0625 4.83826 29.1785L10.2343 34.5745L14.3683 38.7085L16.3043 40.6445C20.7743 45.1145 28.0223 45.1145 32.4923 40.6445L38.6623 34.4745C40.3463 32.7905 41.1583 30.5745 41.1223 28.3685L41.9983 11.2785Z" fill="white"/>
<path d="M32.002 10.0006C31.356 10.0006 30.722 9.68863 30.336 9.11063L26.336 3.11063C25.724 2.19063 25.972 0.950626 26.89 0.336625C27.806 -0.277376 29.052 -0.0273737 29.664 0.890626L33.664 6.89063C34.276 7.81063 34.028 9.05063 33.11 9.66463C32.768 9.89063 32.382 10.0006 32.002 10.0006H32.002Z" fill="white"/>
<path d="M9.99799 46.0012C9.61799 46.0012 9.23199 45.8912 8.88999 45.6652L2.88999 41.6652C1.97199 41.0512 1.72399 39.8112 2.33599 38.8912C2.94799 37.9712 4.18999 37.7252 5.10999 38.3372L11.11 42.3372C12.028 42.9512 12.276 44.1912 11.664 45.1112C11.278 45.6892 10.644 46.0012 9.99799 46.0012H9.99799Z" fill="white"/>
</g>
<defs>
<clipPath id="clip0">
<rect width="48" height="48" fill="white"/>
</clipPath>
</defs>
</svg>
