<svg width="120" height="120" viewBox="0 0 120 120" fill="none" xmlns="http://www.w3.org/2000/svg">
<g clip-path="url(#clip0)">
<path d="M95 40H65.005L64.5 7.5H68.15C68.7 7.5 69.225 7.675 69.65 8C69.675 8.025 69.7 8.025 69.725 8.075L70.125 8.475C70.15 8.5 70.175 8.525 70.175 8.55L96.81 35.775C98.325 37.3675 97.1975 40 95 40H95Z" fill="url(#paint0_linear)"/>
<path d="M100 100H20C20 100 20 99.95 20.025 99.875C20.325 98.875 22.35 92.1 25.25 82.5C32.925 56.925 46.6 18.8 49.475 9.275C49.775 8.225 50.75 7.5 51.85 7.5H68.15C68.7 7.5 69.225 7.675 69.65 8C69.675 8.025 69.7 8.025 69.725 8.075L70.125 8.475C70.15 8.5 70.175 8.525 70.175 8.55C70.325 8.775 70.45 9 70.525 9.275C71.925 13.95 75.9 27.2 80.525 42.5C85.325 58.575 90.825 69.4 94.75 82.5C97.5 91.7 99.475 98.3 99.925 99.725C99.975 99.9 100 100 100 100V100Z" fill="url(#paint1_linear)"/>
<path d="M105 110H15C12.2375 110 10 107.763 10 105C10 102.238 12.2375 100 15 100H105C107.762 100 110 102.237 110 105C110 107.763 107.763 110 105 110Z" fill="url(#paint2_linear)"/>
<path d="M50.9997 45L53.8222 50.8325L60.0322 51.7075L55.5172 56.0825L56.6447 62.5L51.2822 59.5825L45.9172 62.5L47.0472 56.0825L42.5322 51.7075L48.7422 50.8325L50.9997 45ZM42.5322 72.5L44.8772 77.5L50.0322 78.25L46.2822 82L47.2197 87.5L42.7672 85L38.3147 87.5L39.2522 82L35.0322 78.25L40.1897 77.5L42.5322 72.5ZM69.9997 75C69.9997 67.91 75.4122 62.455 82.5322 61.6375C80.5372 60.545 78.2597 60 75.6947 60C67.1497 60 60.0297 66.8175 60.0297 75C60.0297 83.1825 67.1497 90 75.6947 90C78.2572 90 80.5372 89.455 82.5297 88.3625C75.4122 87.545 69.9997 82.09 69.9997 75H69.9997Z" fill="#EDBE00"/>
</g>
<defs>
<linearGradient id="paint0_linear" x1="81.0025" y1="7.5" x2="81.0025" y2="40" gradientUnits="userSpaceOnUse">
<stop stop-color="#D160F6"/>
<stop offset="1" stop-color="#9014B8"/>
</linearGradient>
<linearGradient id="paint1_linear" x1="60" y1="7.50001" x2="60" y2="100" gradientUnits="userSpaceOnUse">
<stop stop-color="#D160F6"/>
<stop offset="1" stop-color="#C545ED"/>
</linearGradient>
<linearGradient id="paint2_linear" x1="60" y1="100" x2="60" y2="110" gradientUnits="userSpaceOnUse">
<stop stop-color="#D160F6"/>
<stop offset="1" stop-color="#9014B8"/>
</linearGradient>
<clipPath id="clip0">
<rect width="120" height="120" fill="white"/>
</clipPath>
</defs>
</svg>
