<svg width="48" height="48" viewBox="0 0 48 48" fill="none" xmlns="http://www.w3.org/2000/svg">
<g clip-path="url(#clip0_938_1512)">
<path d="M24.0002 5C17.3905 5 12.0002 10.3903 12.0002 17C12.0002 19.9571 13.7538 23.2462 15.7424 26.5156C17.731 29.7851 20.0493 32.8964 21.4826 34.7441C22.735 36.3578 25.2654 36.3578 26.5178 34.7441C27.9511 32.8964 30.2694 29.7851 32.258 26.5156C34.2466 23.2462 36.0002 19.9571 36.0002 17C36.0002 10.3903 30.6098 5 24.0002 5V5ZM24.0002 8C28.9885 8 33.0002 12.0117 33.0002 17C33.0002 18.5499 31.5824 21.8515 29.6936 24.957C27.8047 28.0626 25.5393 31.111 24.1467 32.9062C24.047 33.0346 23.9533 33.0346 23.8537 32.9062C22.4611 31.111 20.1957 28.0626 18.3068 24.957C16.4179 21.8515 15.0002 18.5499 15.0002 17C15.0002 12.0117 19.0118 8 24.0002 8V8ZM24.0002 14C22.3433 14 21.0002 15.3431 21.0002 17C21.0002 18.6569 22.3433 20 24.0002 20C25.657 20 27.0002 18.6569 27.0002 17C27.0002 15.3431 25.657 14 24.0002 14V14ZM11.7248 30C10.3428 30 9.08558 30.8161 8.52558 32.0781L6.30488 37.0781C5.82188 38.1651 5.9186 39.4093 6.5666 40.4063C7.2156 41.4043 8.31314 42 9.50214 42H38.4963C39.6853 42 40.7838 41.4043 41.4318 40.4063C42.0808 39.4093 42.1785 38.1661 41.6955 37.0781L39.4748 32.0781C38.9138 30.8161 37.6586 30 36.2756 30H33.0197C32.3827 30.965 31.6915 31.964 30.9455 33H36.2756C36.4726 33 36.6526 33.1159 36.7326 33.2969L38.9533 38.2969C39.0493 38.5129 38.9722 38.6884 38.9162 38.7734C38.8602 38.8584 38.7342 39 38.4982 39H9.50214C9.26614 39 9.13722 38.8565 9.08222 38.7715C9.02722 38.6865 8.95011 38.5129 9.04511 38.2969L11.2678 33.2969C11.3478 33.1169 11.5278 33 11.7248 33H17.0529C16.3059 31.964 15.6167 30.965 14.9807 30H11.7248Z" fill="#6E82F9"/>
</g>
<defs>
<clipPath id="clip0_938_1512">
<rect width="48" height="48" fill="white"/>
</clipPath>
</defs>
</svg>
