<svg width="34" height="30" viewBox="0 0 34 30" fill="none" xmlns="http://www.w3.org/2000/svg">
<path d="M33.6873 15.0034C33.6873 12.7718 30.8927 10.6569 26.6079 9.34539C27.5967 4.97826 27.1572 1.50378 25.2209 0.391394C24.7745 0.130464 24.2527 0.00686645 23.6828 0.00686645V1.53811C23.9986 1.53811 24.2527 1.59991 24.4656 1.71664C25.3994 2.25223 25.8045 4.2916 25.4887 6.91463C25.4131 7.56008 25.2895 8.23987 25.1385 8.93339C23.7926 8.6038 22.3232 8.34974 20.7782 8.18494C19.8512 6.91463 18.8899 5.76104 17.9217 4.75166C20.1602 2.67109 22.2614 1.53124 23.6896 1.53124V0C21.8013 0 19.3294 1.34585 16.8299 3.68048C14.3305 1.35958 11.8585 0.0274663 9.97025 0.0274663V1.55871C11.3916 1.55871 13.4997 2.69169 15.7382 4.75853C14.7768 5.76791 13.8155 6.91463 12.9023 8.18494C11.3504 8.34974 9.88098 8.6038 8.53513 8.94026C8.3772 8.2536 8.26047 7.58755 8.17807 6.94896C7.85534 4.32593 8.25361 2.28656 9.18059 1.74411C9.38659 1.62051 9.65438 1.56558 9.97025 1.56558V0.0343328C9.39345 0.0343328 8.8716 0.157931 8.4184 0.41886C6.4889 1.53124 6.05631 4.99885 7.05196 9.35225C2.78096 10.6706 0 12.7787 0 15.0034C0 17.2351 2.79469 19.35 7.07942 20.6615C6.09064 25.0286 6.5301 28.5031 8.46647 29.6155C8.9128 29.8764 9.43465 30 10.0114 30C11.8997 30 14.3717 28.6542 16.8711 26.3195C19.3706 28.6404 21.8425 29.9725 23.7308 29.9725C24.3076 29.9725 24.8295 29.8489 25.2827 29.588C27.2122 28.4756 27.6448 25.008 26.6491 20.6546C30.9064 19.3431 33.6873 17.2282 33.6873 15.0034V15.0034ZM24.7471 10.4234C24.493 11.3092 24.1772 12.2225 23.8201 13.1357C23.5386 12.5864 23.2433 12.0371 22.9206 11.4878C22.6047 10.9384 22.2683 10.4028 21.9318 9.88098C22.9068 10.0252 23.8476 10.2037 24.7471 10.4234ZM21.6022 17.7363C21.0666 18.6633 20.5173 19.5422 19.9474 20.3593C18.9242 20.4486 17.8874 20.4967 16.8437 20.4967C15.8068 20.4967 14.77 20.4486 13.7537 20.3662C13.1838 19.5491 12.6276 18.677 12.092 17.7569C11.5702 16.8574 11.0964 15.9442 10.6638 15.024C11.0895 14.1039 11.5702 13.1838 12.0851 12.2843C12.6207 11.3573 13.1701 10.4784 13.74 9.66125C14.7631 9.57198 15.8 9.52392 16.8437 9.52392C17.8805 9.52392 18.9174 9.57198 19.9336 9.65438C20.5035 10.4715 21.0597 11.3436 21.5953 12.2637C22.1172 13.1632 22.591 14.0764 23.0236 14.9966C22.591 15.9167 22.1172 16.8368 21.6022 17.7363ZM23.8201 16.8437C24.1909 17.7638 24.5068 18.6839 24.7677 19.5766C23.8682 19.7963 22.9206 19.9817 21.9387 20.1259C22.2751 19.5972 22.6116 19.0547 22.9274 18.4985C23.2433 17.9492 23.5386 17.393 23.8201 16.8437ZM16.8574 24.1703C16.2188 23.5111 15.5802 22.7764 14.9485 21.973C15.5665 22.0005 16.1982 22.0211 16.8368 22.0211C17.4823 22.0211 18.1209 22.0073 18.7457 21.973C18.1277 22.7764 17.4891 23.5111 16.8574 24.1703ZM11.7487 20.1259C10.7736 19.9817 9.83291 19.8032 8.93339 19.5834C9.18746 18.6976 9.50332 17.7844 9.86038 16.8711C10.1419 17.4205 10.4372 17.9698 10.7599 18.5191C11.0826 19.0684 11.4122 19.604 11.7487 20.1259ZM16.8231 5.83658C17.4617 6.49577 18.1003 7.23049 18.732 8.03387C18.114 8.00641 17.4823 7.98581 16.8437 7.98581C16.1982 7.98581 15.5596 7.99954 14.9348 8.03387C15.5528 7.23049 16.1913 6.49577 16.8231 5.83658ZM11.7418 9.88098C11.4054 10.4097 11.0689 10.9522 10.753 11.5084C10.4372 12.0577 10.1419 12.607 9.86038 13.1563C9.48959 12.2362 9.17372 11.3161 8.9128 10.4234C9.81231 10.2106 10.7599 10.0252 11.7418 9.88098V9.88098ZM5.52758 18.4779C3.09682 17.4411 1.52438 16.0815 1.52438 15.0034C1.52438 13.9254 3.09682 12.5589 5.52758 11.529C6.11811 11.2749 6.76356 11.0483 7.42962 10.8354C7.82101 12.1813 8.336 13.5821 8.97459 15.0172C8.34287 16.4454 7.83475 17.8393 7.45022 19.1783C6.77043 18.9654 6.12497 18.732 5.52758 18.4779ZM9.22179 28.2902C8.28794 27.7546 7.88281 25.7153 8.19867 23.0922C8.27421 22.4468 8.3978 21.767 8.54887 21.0735C9.89471 21.4031 11.3642 21.6571 12.9091 21.8219C13.8361 23.0922 14.7974 24.2458 15.7656 25.2552C13.5271 27.3358 11.426 28.4756 9.99771 28.4756C9.68872 28.4688 9.42779 28.407 9.22179 28.2902V28.2902ZM25.5093 23.0579C25.832 25.6809 25.4337 27.7203 24.5068 28.2628C24.3008 28.3864 24.033 28.4413 23.7171 28.4413C22.2957 28.4413 20.1877 27.3083 17.9492 25.2415C18.9105 24.2321 19.8718 23.0854 20.7851 21.8151C22.3369 21.6503 23.8064 21.3962 25.1522 21.0597C25.3101 21.7533 25.4337 22.4193 25.5093 23.0579V23.0579ZM28.1529 18.4779C27.5624 18.732 26.9169 18.9586 26.2509 19.1714C25.8595 17.8256 25.3445 16.4248 24.7059 14.9897C25.3376 13.5615 25.8457 12.1675 26.2303 10.8286C26.91 11.0414 27.5555 11.2749 28.1598 11.529C30.5905 12.5658 32.163 13.9254 32.163 15.0034C32.1561 16.0815 30.5837 17.4479 28.1529 18.4779V18.4779Z" fill="#61DAFB"/>
<path d="M16.8372 18.1415C18.5703 18.1415 19.9753 16.7366 19.9753 15.0035C19.9753 13.2704 18.5703 11.8655 16.8372 11.8655C15.1042 11.8655 13.6992 13.2704 13.6992 15.0035C13.6992 16.7366 15.1042 18.1415 16.8372 18.1415Z" fill="#61DAFB"/>
</svg>
