<svg width="140" height="9" viewBox="0 0 140 9" fill="none" xmlns="http://www.w3.org/2000/svg">
<path opacity="0.8" d="M1 4.5C3.3 -0.166667 5.6 -0.166667 7.9 4.5C10.2 9.16667 12.5 9.16667 14.8 4.5C17.1 -0.166667 19.4 -0.166667 21.7 4.5C24 9.16667 26.3 9.16667 28.6 4.5C30.9 -0.166667 33.2 -0.166667 35.5 4.5C37.8 9.16667 40.1 9.16667 42.4 4.5C44.7 -0.166667 47 -0.166667 49.3 4.5C51.6 9.16667 53.9 9.16667 56.2 4.5C58.5 -0.166667 60.8 -0.166667 63.1 4.5C65.4 9.16667 67.7 9.16667 70 4.5C72.3 -0.166667 74.6 -0.166667 76.9 4.5C79.2 9.16667 81.5 9.16667 83.8 4.5C86.1 -0.166667 88.4 -0.166667 90.7 4.5C93 9.16667 95.3 9.16667 97.6 4.5C99.9 -0.166667 102.2 -0.166667 104.5 4.5C106.8 9.16667 109.1 9.16667 111.4 4.5C113.7 -0.166667 116 -0.166667 118.3 4.5C120.6 9.16667 122.9 9.16667 125.2 4.5C127.5 -0.166667 129.8 -0.166667 132.1 4.5C134.4 9.16667 136.7 9.16667 139 4.5" stroke="#FFC107" stroke-width="2"/>
</svg>
