<svg width="24" height="24" viewBox="0 0 24 24" fill="none" xmlns="http://www.w3.org/2000/svg">
<g clip-path="url(#clip0_1340_2470)">
<g opacity="0.35">
<path opacity="0.35" d="M8.51299 9.181H6.99699C6.74599 9.181 6.54199 9.385 6.54199 9.636V16.003C6.54199 16.254 6.74599 16.458 6.99699 16.458H8.51299C8.76399 16.458 8.96799 16.254 8.96799 16.003V9.636C8.96799 9.384 8.76399 9.181 8.51299 9.181V9.181Z" fill="#6E82F9"/>
<path opacity="0.35" d="M7.75499 5.543C7.08699 5.543 6.54199 6.088 6.54199 6.756C6.54199 7.424 7.08699 7.969 7.75499 7.969C8.42299 7.969 8.96799 7.424 8.96799 6.756C8.96799 6.088 8.42299 5.543 7.75499 5.543V5.543Z" fill="#6E82F9"/>
<path opacity="0.35" d="M14.6577 9.181C13.5207 9.181 12.9477 9.636 12.6347 10.242H12.6067V9.636C12.6067 9.385 12.4027 9.181 12.1517 9.181H10.6357C10.3847 9.181 10.1807 9.385 10.1807 9.636V16.003C10.1807 16.254 10.3847 16.458 10.6357 16.458H12.1517C12.4027 16.458 12.6067 16.254 12.6067 16.003V13.208C12.6067 11.91 12.9097 11.294 13.9147 11.294C14.7297 11.294 15.0327 11.91 15.0327 13.274V16.003C15.0327 16.254 15.2367 16.458 15.4877 16.458H17.0037C17.2547 16.458 17.4587 16.254 17.4587 16.003V12.867C17.4567 10.782 17.0217 9.181 14.6577 9.181H14.6577Z" fill="#6E82F9"/>
</g>
<path d="M12 2C6.477 2 2 6.477 2 12C2 17.523 6.477 22 12 22C17.523 22 22 17.523 22 12C22 6.477 17.523 2 12 2V2ZM8.968 16.003C8.968 16.254 8.764 16.458 8.513 16.458H6.997C6.746 16.458 6.542 16.254 6.542 16.003V9.636C6.542 9.385 6.746 9.181 6.997 9.181H8.513C8.764 9.181 8.968 9.385 8.968 9.636V16.003ZM7.755 7.968C7.087 7.968 6.542 7.423 6.542 6.755C6.542 6.087 7.087 5.542 7.755 5.542C8.423 5.542 8.968 6.087 8.968 6.755C8.968 7.423 8.423 7.968 7.755 7.968V7.968ZM17.457 16.003C17.457 16.254 17.253 16.458 17.002 16.458H15.486C15.235 16.458 15.031 16.254 15.031 16.003V13.274C15.031 11.91 14.728 11.294 13.913 11.294C12.909 11.294 12.605 11.91 12.605 13.208V16.003C12.605 16.254 12.401 16.458 12.15 16.458H10.634C10.383 16.458 10.179 16.254 10.179 16.003V9.636C10.179 9.385 10.383 9.181 10.634 9.181H12.15C12.401 9.181 12.605 9.385 12.605 9.636V10.242H12.633C12.946 9.636 13.519 9.181 14.656 9.181C17.02 9.181 17.456 10.782 17.456 12.867V16.003H17.457Z" fill="#6E82F9"/>
</g>
<defs>
<clipPath id="clip0_1340_2470">
<rect width="24" height="24" fill="white"/>
</clipPath>
</defs>
</svg>
