<svg width="53" height="53" viewBox="0 0 53 53" fill="none" xmlns="http://www.w3.org/2000/svg">
<g clip-path="url(#clip0_1536_1633)">
<path d="M37.8522 9.51482C37.2797 9.51482 36.7097 9.72996 36.2736 10.1661L21.9626 24.4815C21.5319 24.9121 21.5319 25.6122 21.9626 26.0428C22.179 26.2592 22.4606 26.362 22.7432 26.362C23.0259 26.362 23.3075 26.2592 23.5239 26.0428L37.8306 11.7275C37.8417 11.7186 37.8605 11.712 37.8738 11.7275C38.3044 12.1581 39.0045 12.1581 39.4351 11.7275C39.8658 11.2968 39.8658 10.5967 39.4351 10.1661C38.999 9.72996 38.4247 9.51482 37.8522 9.51482V9.51482ZM46.9702 9.53207C46.3908 9.53151 45.8102 9.7421 45.3873 10.1661L24.9214 30.632L16.7264 22.437C15.8541 21.5647 14.4371 21.5647 13.5649 22.437L9.7736 26.2326C9.35181 26.6544 9.118 27.2171 9.118 27.8155C9.118 28.414 9.3496 28.9744 9.7736 29.3984L23.1185 42.7433C23.6021 43.227 24.239 43.4895 24.9214 43.4895C25.6038 43.4895 26.2472 43.227 26.7286 42.7433L52.3444 17.1232C53.2167 16.2509 53.2167 14.8319 52.3444 13.9574L48.5488 10.1661C48.127 9.74431 47.5496 9.53262 46.9702 9.53207L46.9702 9.53207ZM46.9875 11.7231L50.783 15.5187V15.5619L25.1672 41.1777C25.0524 41.2947 24.7926 41.2947 24.6755 41.1777L11.3306 27.794L15.165 23.9984L24.1407 32.974C24.5559 33.3892 25.2891 33.3892 25.7021 32.974L46.9875 11.7231ZM6.02978 21.7814C5.457 21.7814 4.883 22.0009 4.44686 22.437L0.655598 26.2326C0.231598 26.6544 0 27.2171 0 27.8155C0 28.414 0.231598 28.9767 0.655598 29.3984L14.0005 42.739C14.4841 43.2227 15.121 43.4895 15.8034 43.4895C16.4858 43.4895 17.1292 43.2227 17.6106 42.739C18.0412 42.3084 18.0412 41.6083 17.6106 41.1777C17.18 40.747 16.4799 40.747 16.0492 41.1777C15.9344 41.2947 15.6789 41.2947 15.5618 41.1777L2.21696 27.794L6.00822 23.9984C6.01926 23.9873 6.0382 23.9873 6.04704 23.9984C6.47766 24.429 7.17777 24.429 7.6084 23.9984C8.03902 23.5678 8.03902 22.8676 7.6084 22.437C7.17336 22.0009 6.60257 21.7814 6.02978 21.7814V21.7814Z" fill="#28A745"/>
</g>
<defs>
<clipPath id="clip0_1536_1633">
<rect width="53" height="53" fill="white"/>
</clipPath>
</defs>
</svg>
