<svg width="41" height="30" viewBox="0 0 41 30" fill="none" xmlns="http://www.w3.org/2000/svg">
<path d="M35.1204 17.2268C33.7211 17.2347 32.5094 17.5708 31.4931 18.0712C31.1178 17.3286 30.7426 16.6796 30.6801 16.195C30.6098 15.6321 30.5238 15.2881 30.6098 14.6158C30.6957 13.9434 31.0866 12.9897 31.0866 12.9115C31.0787 12.8412 31.0005 12.4972 30.1953 12.4894C29.3902 12.4816 28.6944 12.6457 28.6162 12.8568C28.538 13.0679 28.3817 13.5526 28.28 14.0529C28.1393 14.7877 26.6696 17.391 25.8331 18.7591C25.5595 18.2275 25.325 17.7584 25.278 17.3831C25.2077 16.8203 25.1216 16.4763 25.2077 15.804C25.2937 15.1316 25.6846 14.178 25.6846 14.0998C25.6768 14.0294 25.5986 13.6855 24.7935 13.6776C23.9882 13.6698 23.2925 13.834 23.2143 14.0451C23.1361 14.2561 23.0501 14.7565 22.8781 15.2412C22.7139 15.7259 20.7595 20.0725 20.2513 21.206C19.9934 21.7845 19.7667 22.2458 19.6025 22.5585C19.4383 22.8712 19.5947 22.5819 19.579 22.6132C19.4383 22.879 19.3601 23.0275 19.3601 23.0275V23.0354C19.2507 23.2308 19.1334 23.4184 19.0786 23.4184C19.0395 23.4184 18.9614 22.8946 19.0943 22.1755C19.3835 20.6666 20.0871 18.3136 20.0794 18.2276C20.0794 18.1885 20.2122 17.7741 19.6259 17.5631C19.0552 17.352 18.852 17.7038 18.805 17.7038C18.7581 17.7038 18.719 17.8289 18.719 17.8289C18.719 17.8289 19.3522 15.1788 17.5073 15.1788C16.3503 15.1788 14.7555 16.4374 13.9659 17.5866C13.4656 17.8602 12.4024 18.4387 11.2766 19.0563C10.8467 19.2908 10.4011 19.541 9.97892 19.7677L9.893 19.6738C7.65716 17.2894 3.52165 15.6008 3.69363 12.3956C3.75617 11.2307 4.16269 8.15841 11.6364 4.43723C17.7576 1.38836 22.6592 2.22485 23.5113 4.08544C24.723 6.74343 20.8924 11.6842 14.5289 12.3956C12.1055 12.6692 10.8311 11.7311 10.5107 11.3793C10.1745 11.0118 10.1276 10.9962 10.0025 11.0666C9.79927 11.176 9.92435 11.5044 10.0025 11.6998C10.1901 12.1923 10.9719 13.0679 12.3009 13.5057C13.4656 13.8887 16.3113 14.0998 19.7511 12.7708C23.6052 11.2776 26.615 7.13431 25.7316 3.6711C24.8325 0.14536 18.985 -1.01165 13.4579 0.950574C10.1666 2.12322 6.60179 3.95254 4.03761 6.35254C0.988739 9.19816 0.504047 11.6842 0.707305 12.7161C1.41879 16.3982 6.49234 18.7982 8.52492 20.5728C8.42329 20.6274 8.32948 20.6822 8.24348 20.7291C7.22719 21.2294 3.35748 23.2542 2.38809 25.3962C1.29363 27.8196 2.56008 29.563 3.40438 29.7976C6.01546 30.5246 8.68909 29.2191 10.1353 27.0692C11.5737 24.9194 11.4018 22.1285 10.7373 20.8542L10.7138 20.8073L11.5112 20.3383C12.0272 20.0334 12.5354 19.7519 12.9809 19.5095C12.7308 20.1896 12.5509 20.9949 12.4572 22.1675C12.3477 23.5435 12.9106 25.3258 13.6533 26.0294C13.9816 26.3342 14.3725 26.3421 14.6148 26.3421C15.4748 26.3421 15.8657 25.6306 16.2956 24.7786C16.8272 23.7388 17.2963 22.5349 17.2963 22.5349C17.2963 22.5349 16.71 25.7949 18.3126 25.7949C18.8989 25.7949 19.4852 25.0366 19.751 24.6457V24.6535C19.751 24.6535 19.7666 24.63 19.7979 24.5753C19.8307 24.5268 19.862 24.4773 19.8917 24.4269V24.4112C20.1263 24.0047 20.65 23.0744 21.4318 21.5343C22.4402 19.5487 23.4097 17.0627 23.4097 17.0627C23.4097 17.0627 23.5035 17.6724 23.7927 18.6731C23.9646 19.2673 24.3399 19.9161 24.6291 20.5493C24.3946 20.8777 24.2539 21.0654 24.2539 21.0654L24.2617 21.0732C24.0742 21.3234 23.863 21.5892 23.6442 21.8549C22.8468 22.8087 21.893 23.8954 21.768 24.2081C21.6194 24.5755 21.6507 24.8491 21.9399 25.0681C22.151 25.2244 22.5263 25.2556 22.925 25.2244C23.6442 25.1774 24.1445 24.9977 24.3947 24.8882C24.7856 24.7475 25.2312 24.5364 25.6611 24.2237C26.4429 23.6453 26.9198 22.8244 26.8729 21.7299C26.8494 21.128 26.654 20.5338 26.4116 19.971C26.482 19.8694 26.5524 19.7676 26.6227 19.6583C27.8579 17.8523 28.8116 15.8667 28.8116 15.8667C28.8116 15.8667 28.9054 16.4765 29.1947 17.4772C29.3431 17.9853 29.6403 18.5404 29.9061 19.0877C28.7491 20.0336 28.022 21.1281 27.7719 21.8473C27.3106 23.1763 27.6703 23.7782 28.3504 23.919C28.6552 23.9815 29.0931 23.8408 29.4213 23.7001C29.8278 23.5672 30.3203 23.3404 30.7738 23.0043C31.5556 22.4258 32.3061 21.6206 32.267 20.5339C32.2436 20.0336 32.1107 19.5411 31.9309 19.072C32.9159 18.6655 34.1901 18.431 35.8084 18.6264C39.2872 19.0329 39.9752 21.2062 39.8424 22.1131C39.7095 23.02 38.9824 23.5203 38.74 23.6766C38.4976 23.8251 38.4195 23.8799 38.4429 23.9893C38.4742 24.1536 38.5836 24.1457 38.7947 24.1145C39.084 24.0675 40.624 23.3718 40.6866 21.6989C40.7804 19.5488 38.74 17.2035 35.1204 17.2268V17.2268ZM8.29039 26.2718C7.1412 27.5305 5.52295 28.0073 4.835 27.6008C4.09233 27.1708 4.3815 25.3181 5.79657 23.9813C6.65651 23.1682 7.77443 22.4177 8.50928 21.9565C8.67345 21.8549 8.92362 21.7064 9.22069 21.5265C9.26759 21.4953 9.29886 21.4796 9.29886 21.4796C9.35359 21.4484 9.41613 21.4093 9.47867 21.3702C10.0024 23.2777 9.50212 24.9506 8.29039 26.2718V26.2718ZM16.6943 20.5571C16.2956 21.5343 15.4513 24.0438 14.9432 23.9031C14.5053 23.7858 14.2396 21.8861 14.8571 20.0099C15.1698 19.0639 15.8343 17.9382 16.2252 17.5004C16.8585 16.7968 17.5464 16.5623 17.7184 16.8515C17.9217 17.2268 16.9445 19.9474 16.6943 20.5571ZM23.6285 23.8718C23.4566 23.9579 23.3002 24.0203 23.2298 23.9735C23.1751 23.9423 23.3001 23.825 23.3001 23.825C23.3001 23.825 24.1679 22.8947 24.5119 22.4647C24.7073 22.2146 24.9418 21.9254 25.192 21.597V21.6908C25.1921 22.8164 24.1132 23.5669 23.6285 23.8718ZM28.9757 22.6523C28.8506 22.5585 28.8663 22.2692 29.2884 21.3624C29.4527 21.0028 29.8278 20.4008 30.4767 19.8301C30.5549 20.0646 30.6019 20.2913 30.594 20.5024C30.5862 21.9096 29.5856 22.4334 28.9757 22.6523Z" fill="#CF649A"/>
</svg>
