<svg fill="none" xmlns="http://www.w3.org/2000/svg">
<path d="M19 0H4C1.79086 0 0 1.79086 0 4V8C0 10.2091 1.79086 12 4 12H19C21.2091 12 23 10.2091 23 8V4C23 1.79086 21.2091 0 19 0Z" fill="#F35E84"/>
<path d="M70 0H31C28.7909 0 27 1.79086 27 4V8C27 10.2091 28.7909 12 31 12H70C72.2091 12 74 10.2091 74 8V4C74 1.79086 72.2091 0 70 0Z" fill="#F35E84"/>
<path d="M126 0H82C79.7909 0 78 1.79086 78 4V8C78 10.2091 79.7909 12 82 12H126C128.209 12 130 10.2091 130 8V4C130 1.79086 128.209 0 126 0Z" fill="#F35E84"/>
<path d="M154 0H138C135.791 0 134 1.79086 134 4V8C134 10.2091 135.791 12 138 12H154C156.209 12 158 10.2091 158 8V4C158 1.79086 156.209 0 154 0Z" fill="#F35E84"/>
<path d="M192 0H166C163.791 0 162 1.79086 162 4V8C162 10.2091 163.791 12 166 12H192C194.209 12 196 10.2091 196 8V4C196 1.79086 194.209 0 192 0Z" fill="#F35E84"/>
<path d="M271 0H204C201.791 0 200 1.79086 200 4V8C200 10.2091 201.791 12 204 12H271C273.209 12 275 10.2091 275 8V4C275 1.79086 273.209 0 271 0Z" fill="#F35E84"/>
</svg>
