<svg width="30" height="30" viewBox="0 0 30 30" fill="none" xmlns="http://www.w3.org/2000/svg">
<path d="M29.4348 13.6636L16.3362 0.565762C15.5824 -0.188587 14.3589 -0.188587 13.6041 0.565762L10.8841 3.28573L14.3345 6.73615C15.1363 6.46521 16.0558 6.64697 16.695 7.28612C17.3372 7.92938 17.5176 8.8567 17.2401 9.66109L20.5654 12.9865C21.3699 12.7093 22.2981 12.8886 22.9407 13.5322C23.8387 14.4299 23.8387 15.8848 22.9407 16.7831C22.0424 17.6814 20.5875 17.6814 19.6888 16.7831C19.0133 16.1069 18.8464 15.1149 19.1884 14.2827L16.0873 11.1816L16.087 19.3424C16.3118 19.4535 16.5171 19.6003 16.695 19.7771C17.593 20.6748 17.593 22.1298 16.695 23.0288C15.7967 23.9267 14.3411 23.9267 13.4441 23.0288C12.5461 22.1298 12.5461 20.6749 13.4441 19.7773C13.6593 19.5619 13.9151 19.3914 14.1966 19.2756V11.0388C13.9147 10.9237 13.6588 10.7531 13.4441 10.5371C12.7637 9.85761 12.6001 8.85928 12.9488 8.02383L9.54744 4.62217L0.566026 13.603C-0.188675 14.358 -0.188675 15.5816 0.566026 16.3361L13.6648 29.4342C14.4189 30.1886 15.6421 30.1886 16.3972 29.4342L29.4346 16.3969C30.1891 15.6422 30.1891 14.4179 29.4346 13.6636" fill="#DE4C36"/>
</svg>
