<svg width="330" height="330" viewBox="0 0 330 330" fill="none" xmlns="http://www.w3.org/2000/svg">
<path d="M55.8838 105.996L189.3 147.859L55.8838 105.996Z" stroke="#F9F8FE" stroke-width="67.2" stroke-linecap="round" stroke-linejoin="round"/>
<path d="M286.208 267.006L191.097 314.954C177.088 322.016 165.748 313.786 165.748 296.558V179.59C165.748 162.361 177.088 142.697 191.097 135.635L286.208 87.6878C300.215 80.6258 311.556 88.8559 311.556 106.083V223.052C311.556 240.28 300.215 259.944 286.208 267.006Z" fill="#C0C1D2"/>
<path d="M286.208 267.006L191.097 314.954C177.088 322.016 165.748 313.786 165.748 296.558V179.59C165.748 162.361 177.088 142.697 191.097 135.635L286.208 87.6878C300.215 80.6258 311.556 88.8559 311.556 106.083V223.052C311.556 240.28 300.215 259.944 286.208 267.006Z" stroke="#F9F8FE" stroke-width="7.35" stroke-linecap="round" stroke-linejoin="round"/>
<path d="M203.736 243.179C212.488 238.772 219.622 243.949 219.622 254.703C219.622 265.457 212.488 277.75 203.736 282.156C194.984 286.561 187.901 281.421 187.901 270.667C187.901 259.913 194.984 247.583 203.736 243.179Z" fill="#191919"/>
<path d="M273.35 122.657C282.102 118.252 289.185 123.391 289.185 134.146C289.185 144.9 282.102 157.23 273.35 161.635C264.598 166.041 257.466 160.864 257.466 150.11C257.466 139.357 264.598 127.062 273.35 122.657Z" fill="#191919"/>
<path d="M42.5872 267.455L138.403 315.05C152.515 322.061 163.941 313.789 163.941 296.561V179.593C163.941 162.366 152.515 142.743 138.403 135.732L42.5872 88.1368C28.475 81.1265 17.0498 89.3981 17.0498 106.626V223.594C17.0498 240.821 28.475 260.444 42.5872 267.455Z" fill="#D8DDEB"/>
<path d="M42.5872 267.455L138.403 315.05C152.515 322.061 163.941 313.789 163.941 296.561V179.593C163.941 162.366 152.515 142.743 138.403 135.732L42.5872 88.1368C28.475 81.1265 17.0498 89.3981 17.0498 106.626V223.594C17.0498 240.821 28.475 260.444 42.5872 267.455Z" stroke="#F9F8FE" stroke-width="7.35" stroke-linecap="round" stroke-linejoin="round"/>
<path d="M90.1844 183.256C98.9867 187.635 106.111 199.886 106.111 210.639C106.111 221.393 98.9867 226.615 90.1844 222.236C81.3821 217.856 74.2075 205.52 74.2075 194.766C74.2075 184.012 81.3821 178.877 90.1844 183.256Z" fill="#E72525"/>
<path d="M188.521 14.6922L284.337 62.2882C298.45 69.2984 298.523 80.6867 284.503 87.7421L189.311 135.65C175.291 142.705 152.515 142.744 138.402 135.733L42.5869 88.1372C28.4747 81.127 28.3997 69.7387 42.4203 62.6833L137.614 14.7755C151.634 7.71986 174.408 7.68181 188.521 14.6922Z" fill="#F2F1F8"/>
<path d="M188.521 14.6922L284.337 62.2882C298.45 69.2984 298.523 80.6867 284.503 87.7421L189.311 135.65C175.291 142.705 152.515 142.744 138.402 135.733L42.5869 88.1372C28.4747 81.127 28.3997 69.7387 42.4203 62.6833L137.614 14.7755C151.634 7.71986 174.408 7.68181 188.521 14.6922Z" stroke="#F9F8FE" stroke-width="7.35" stroke-linecap="round" stroke-linejoin="round"/>
<path d="M251.471 69.1593C259.424 73.9507 258.103 81.0581 248.52 85.0342C238.938 89.0103 224.723 88.3495 216.77 83.5583C208.818 78.7671 210.14 71.6596 219.722 67.6835C229.305 63.7074 243.52 64.3682 251.471 69.1593Z" fill="#191919"/>
<g opacity="0.25">
<path opacity="0.25" d="M233.093 71.4537C233.093 71.4537 237.143 71.3912 241.013 72.6069" stroke="white" stroke-width="10.4843" stroke-linecap="round" stroke-linejoin="round"/>
</g>
<path d="M181.597 68.0988C189.549 72.89 188.227 79.9976 178.645 83.9735C169.064 87.9497 154.848 87.2889 146.896 82.4977C138.943 77.7065 140.265 70.599 149.847 66.6229C159.431 62.6468 173.646 63.3076 181.597 68.0988Z" fill="#191919"/>
<g opacity="0.25">
<path opacity="0.25" d="M163.217 70.3941C163.217 70.3941 167.267 70.3316 171.138 71.5473" stroke="white" stroke-width="10.4843" stroke-linecap="round" stroke-linejoin="round"/>
</g>
<path d="M113.521 65.7033C121.473 70.4945 120.152 77.6021 110.569 81.5782C100.987 85.5541 86.7718 84.8933 78.8196 80.1021C70.8673 75.3109 72.1889 68.2035 81.7713 64.2274C91.3537 60.2513 105.569 60.9121 113.521 65.7033Z" fill="#191919"/>
<g opacity="0.25">
<path opacity="0.25" d="M95.1416 67.9996C95.1416 67.9996 99.1913 67.9371 103.062 69.1528" stroke="white" stroke-width="10.4843" stroke-linecap="round" stroke-linejoin="round"/>
</g>
<g opacity="0.25">
<path opacity="0.25" d="M281.101 139.45C281.101 139.45 280.688 143.364 278.383 147.041" stroke="white" stroke-width="7.35" stroke-linecap="round" stroke-linejoin="round"/>
</g>
<g opacity="0.25">
<path opacity="0.25" d="M211.91 258.202C211.91 258.202 211.795 262.116 209.49 265.793" stroke="white" stroke-width="7.35" stroke-linecap="round" stroke-linejoin="round"/>
</g>
<g opacity="0.25">
<path opacity="0.25" d="M83.8447 199.981C83.8447 199.981 83.9645 203.892 86.298 207.563" stroke="white" stroke-width="7.35" stroke-linecap="round" stroke-linejoin="round"/>
</g>
<path d="M208.547 120.714C204.811 122.594 201.372 124.32 198.396 125.819" stroke="white" stroke-width="6.3" stroke-linecap="round" stroke-linejoin="round"/>
<path d="M187.45 131.33C187.296 131.413 187.213 131.448 187.213 131.448C185.569 132.281 183.796 133.007 181.916 133.626" stroke="white" stroke-width="6.3" stroke-linecap="round" stroke-linejoin="round"/>
<path d="M162.9 9.03366C157.163 9.34303 151.048 10.9495 145.311 12.9605C139.564 14.9717 134.209 17.3754 129.985 19.2676C125.392 21.3381 105.756 30.8461 85.0625 41.4252C64.3686 52.0041 42.6273 63.6661 33.8214 70.0445C23.4209 77.5772 19.4701 88.8345 18.0778 100.425C16.6736 112.028 17.8518 123.975 17.697 132.899C17.578 139.207 16.388 161.972 16.0787 185.331C15.7573 208.703 16.3166 232.68 19.72 241.439C23.3018 250.685 29.1566 257.552 36.2848 263.168C43.4128 268.785 51.8021 273.164 60.4892 277.46C68.8072 281.553 89.2036 292.62 110.493 302.533C131.793 312.446 153.987 321.228 165.922 320.751C176.667 320.323 189.52 316.243 197.921 312.314C223.625 300.32 248.258 287.17 273.224 274.592C290.432 265.929 303.664 255.326 308.674 234.68C313.552 214.593 316.6 112.289 310.257 93.1184C304.009 74.2214 285.576 62.8093 268.059 54.0153C251.411 45.6616 187.782 7.71271 162.9 9.03366Z" stroke="#939BAC" stroke-width="10.5" stroke-linecap="round" stroke-linejoin="round"/>
</svg>
