<svg fill="none" xmlns="http://www.w3.org/2000/svg">
<path d="M72 0H4C1.79086 0 0 1.79086 0 4V8C0 10.2091 1.79086 12 4 12H72C74.2091 12 76 10.2091 76 8V4C76 1.79086 74.2091 0 72 0Z" fill="#9FFBCE"/>
<path d="M152 0H85C82.7909 0 81 1.79086 81 4V8C81 10.2091 82.7909 12 85 12H152C154.209 12 156 10.2091 156 8V4C156 1.79086 154.209 0 152 0Z" fill="#9FFBCE"/>
<path d="M171 0H165C162.791 0 161 1.79086 161 4V8C161 10.2091 162.791 12 165 12H171C173.209 12 175 10.2091 175 8V4C175 1.79086 173.209 0 171 0Z" fill="#9FFBCE"/>
<path d="M75 20H4C1.79086 20 0 21.7909 0 24V28C0 30.2091 1.79086 32 4 32H75C77.2091 32 79 30.2091 79 28V24C79 21.7909 77.2091 20 75 20Z" fill="#9FFBCE"/>
<path d="M134 20H88C85.7909 20 84 21.7909 84 24V28C84 30.2091 85.7909 32 88 32H134C136.209 32 138 30.2091 138 28V24C138 21.7909 136.209 20 134 20Z" fill="#9FFBCE"/>
<path d="M38 40H4C1.79086 40 0 41.7909 0 44V48C0 50.2091 1.79086 52 4 52H38C40.2091 52 42 50.2091 42 48V44C42 41.7909 40.2091 40 38 40Z" fill="#9FFBCE"/>
<path d="M115 40H51C48.7909 40 47 41.7909 47 44V48C47 50.2091 48.7909 52 51 52H115C117.209 52 119 50.2091 119 48V44C119 41.7909 117.209 40 115 40Z" fill="#9FFBCE"/>
<path d="M143 40H128C125.791 40 124 41.7909 124 44V48C124 50.2091 125.791 52 128 52H143C145.209 52 147 50.2091 147 48V44C147 41.7909 145.209 40 143 40Z" fill="#9FFBCE"/>
<path d="M31 60H4C1.79086 60 0 61.7909 0 64V68C0 70.2091 1.79086 72 4 72H31C33.2091 72 35 70.2091 35 68V64C35 61.7909 33.2091 60 31 60Z" fill="#9FFBCE"/>
<path d="M13 80H4C1.79086 80 0 81.7909 0 84V88C0 90.2091 1.79086 92 4 92H13C15.2091 92 17 90.2091 17 88V84C17 81.7909 15.2091 80 13 80Z" fill="#9FFBCE"/>
<path d="M58 80H26C23.7909 80 22 81.7909 22 84V88C22 90.2091 23.7909 92 26 92H58C60.2091 92 62 90.2091 62 88V84C62 81.7909 60.2091 80 58 80Z" fill="#9FFBCE"/>
<path d="M71 100H4C1.79086 100 0 101.791 0 104V108C0 110.209 1.79086 112 4 112H71C73.2091 112 75 110.209 75 108V104C75 101.791 73.2091 100 71 100Z" fill="#9FFBCE"/>
<path d="M129 100H84C81.7909 100 80 101.791 80 104V108C80 110.209 81.7909 112 84 112H129C131.209 112 133 110.209 133 108V104C133 101.791 131.209 100 129 100Z" fill="#9FFBCE"/>
<path d="M21 120H4C1.79086 120 0 121.791 0 124V128C0 130.209 1.79086 132 4 132H21C23.2091 132 25 130.209 25 128V124C25 121.791 23.2091 120 21 120Z" fill="#9FFBCE"/>
<path d="M100 120H34C31.7909 120 30 121.791 30 124V128C30 130.209 31.7909 132 34 132H100C102.209 132 104 130.209 104 128V124C104 121.791 102.209 120 100 120Z" fill="#9FFBCE"/>
</svg>
