<svg width="331" height="330" viewBox="0 0 331 330" fill="none" xmlns="http://www.w3.org/2000/svg">
<g clip-path="url(#clip0_1424_2379)">
<path d="M171.194 9C156.746 9 140.905 13.1778 124.542 22.2296C114.62 27.8 132.376 52.5185 140.557 48.3407C141.427 47.9926 142.124 47.4704 142.994 47.1222L137.772 37.7222L148.564 44.5111C212.798 18.4 226.027 99.6926 190.69 130.852C198.002 139.556 212.972 153.307 226.376 156.615C264.15 74.1037 228.116 9.17407 171.194 9Z" fill="#FEAE01"/>
<path d="M209.316 256.708C206.705 258.448 168.931 320.767 165.798 320.767C162.665 320.767 126.283 257.578 123.846 255.663C121.409 253.748 50.5609 237.037 49.5164 234.078C48.6461 231.119 97.2127 176.808 98.2572 173.848C99.3016 170.889 93.3831 98.1262 95.8201 96.3854C98.2572 94.6447 164.928 124.237 168.061 124.237C171.194 124.237 238.387 96.2113 240.824 97.9521C243.261 99.8669 235.776 172.456 236.646 175.415C237.516 178.374 285.039 233.73 283.994 236.689C283.124 239.648 211.928 254.967 209.316 256.708Z" fill="#FEAE01"/>
<path d="M166.494 270.981C163.361 270.981 96.5163 300.052 94.0793 298.311C91.6423 296.57 98.2571 223.807 97.2126 220.848C96.1682 217.889 48.1237 163.404 48.9941 160.444C49.8645 157.485 121.061 141.296 123.498 139.381C125.935 137.641 163.013 74.7998 166.146 74.7998C169.279 74.7998 206.531 137.466 208.968 139.207C211.405 140.948 282.602 156.789 283.472 159.748C284.342 162.707 236.472 217.541 235.427 220.5C234.557 223.459 241.346 296.048 238.909 297.789C236.472 299.703 169.627 270.981 166.494 270.981Z" fill="#ED7806"/>
<path fill-rule="evenodd" clip-rule="evenodd" d="M240.824 201.7C240.824 216.496 236.472 231.118 228.29 243.478C220.109 255.837 208.446 265.411 194.694 271.155C180.942 276.9 165.972 278.466 151.35 275.507C136.728 272.548 123.324 265.585 112.879 254.966C102.435 244.522 95.1238 231.118 92.3386 216.496C89.3794 201.874 90.946 186.903 96.5164 173.152C102.261 159.4 111.835 147.737 124.194 139.381C136.553 131.2 151.002 126.674 165.972 126.674C175.894 126.674 185.468 128.589 194.694 132.418C203.746 136.248 212.102 141.644 219.065 148.607C226.028 155.57 231.598 163.752 235.428 172.803C238.909 182.203 240.824 191.952 240.824 201.7Z" fill="#FEBD4D"/>
<path d="M149.957 222.937C126.283 202.744 145.431 178.374 164.753 178.374C184.075 178.2 201.135 205.181 178.331 222.763C184.772 235.296 196.087 261.407 199.742 268.37C175.72 280.207 148.042 277.77 132.027 268.37C138.99 256.359 148.913 224.329 149.957 222.937Z" fill="#FFFB9D"/>
<path d="M102.957 180.463C117.057 155.397 156.746 126.326 205.139 149.826C175.546 112.226 107.483 135.378 102.957 180.463Z" fill="#FFFB9D"/>
</g>
<defs>
<clipPath id="clip0_1424_2379">
<rect width="235" height="311.767" fill="white" transform="translate(48.9941 9)"/>
</clipPath>
</defs>
</svg>
