<svg width="30" height="30" viewBox="0 0 30 30" fill="none" xmlns="http://www.w3.org/2000/svg">
<path d="M25 0H5C2.23833 0 0 2.23833 0 5V25C0 27.7617 2.23833 30 5 30H25C27.7617 30 30 27.7617 30 25V5C30 2.23833 27.7617 0 25 0Z" fill="#50E6FF"/>
<path d="M25.0003 28.3334H5.00033C3.15949 28.3334 1.66699 26.8409 1.66699 25.0001V5.00008C1.66699 3.15925 3.15949 1.66675 5.00033 1.66675H25.0003C26.8412 1.66675 28.3337 3.15925 28.3337 5.00008V25.0001C28.3337 26.8409 26.8412 28.3334 25.0003 28.3334Z" fill="#092347"/>
<path d="M7.08887 7.8099C7.08887 7.72157 7.15303 7.6474 7.24054 7.6374C7.57387 7.60074 8.50387 7.5249 10.488 7.5249C13.478 7.5249 15.5722 8.71074 15.5722 11.9557C15.5722 14.8824 13.5797 16.5999 10.3647 16.5999C10.1772 16.5999 9.9897 16.5999 9.35137 16.5999V21.5016C9.35137 21.5832 9.2847 21.6499 9.20303 21.6499H7.23803C7.15636 21.6499 7.0897 21.5832 7.0897 21.5016V7.8099L7.08887 7.8099ZM9.35137 14.5391C9.35137 14.5391 10.3405 14.5457 10.5639 14.5457C12.3997 14.5457 13.2347 13.4574 13.2347 11.9991C13.2347 10.6332 12.423 9.56824 10.7264 9.56824C10.0272 9.56824 9.3522 9.60824 9.3522 9.60824V14.5391H9.35137Z" fill="white"/>
<path d="M16.7969 19.1418C16.7969 19.0627 16.8827 19.0135 16.9485 19.0568C17.3685 19.3377 18.221 19.8185 19.541 19.8185C20.4027 19.8185 20.9477 19.4477 20.9477 18.8427C20.9477 18.1727 20.0269 17.6868 19.2669 17.2743C18.511 16.8643 16.8135 16.206 16.8135 14.086C16.8135 12.2068 18.3152 11.0735 20.3602 11.0735C21.1435 11.0735 22.0077 11.1952 22.591 11.4077C22.6869 11.4427 22.7452 11.536 22.7452 11.6385V13.5477C22.7452 13.626 22.6627 13.6768 22.5969 13.6335C22.231 13.3943 21.4244 13.0285 20.3144 13.0285C19.3902 13.0285 18.9835 13.4785 18.9835 13.9368C18.9835 14.7402 20.0535 15.076 21.0135 15.6393C22.511 16.4727 23.2052 17.2868 23.2052 18.5627C23.2052 20.6493 21.6494 21.821 19.5419 21.821C18.4535 21.821 17.4302 21.5835 16.9069 21.2652C16.8344 21.221 16.7977 21.141 16.7977 21.056L16.7969 19.1418Z" fill="white"/>
</svg>
