<svg width="500" height="500" viewBox="0 0 500 500" fill="none" xmlns="http://www.w3.org/2000/svg">
<g clip-path="url(#clip0_1313_1633)">
<path d="M395.833 291.666H104.167C98.4137 291.666 93.75 296.33 93.75 302.083C93.75 307.836 98.4137 312.5 104.167 312.5H395.833C401.586 312.5 406.25 307.836 406.25 302.083C406.25 296.33 401.586 291.666 395.833 291.666Z" fill="#64717C"/>
<path d="M260.417 260.416H239.584C233.831 260.416 229.167 265.08 229.167 270.833V333.333C229.167 339.086 233.831 343.75 239.584 343.75H260.417C266.17 343.75 270.834 339.086 270.834 333.333V270.833C270.834 265.08 266.17 260.416 260.417 260.416Z" fill="url(#paint0_linear_1313_1633)"/>
<path d="M125 458.338C121.532 458.334 118.294 456.606 116.36 453.727C114.426 450.849 114.05 447.197 115.356 443.985L229.94 162.735C232.111 157.409 238.189 154.852 243.515 157.023C248.841 159.194 251.398 165.272 249.227 170.598L134.643 451.848C133.047 455.771 129.235 458.337 125 458.338V458.338Z" fill="#64717C"/>
<path d="M375 458.338C370.766 458.337 366.953 455.771 365.357 451.849L250.773 170.599C248.602 165.273 251.159 159.195 256.485 157.024C261.811 154.852 267.889 157.41 270.06 162.736L384.644 443.986C385.95 447.198 385.574 450.849 383.64 453.727C381.706 456.606 378.468 458.334 375 458.338H375Z" fill="#64717C"/>
<path d="M255.136 156.25L144.74 427.062L125.5 419.073L119.792 375L213.542 140.625L255.136 156.25Z" fill="url(#paint1_linear_1313_1633)"/>
<path d="M244.792 156.25L355.188 427.062L374.427 419.073L380.136 375L286.386 140.625L244.792 156.25Z" fill="url(#paint2_linear_1313_1633)"/>
<path d="M250 31.25C261.506 31.25 270.834 40.5774 270.834 52.0833V104.167H229.167V52.0833C229.167 40.5774 238.494 31.25 250 31.25H250Z" fill="#B31523"/>
<path d="M380.138 375L374.426 419.077L355.187 427.06L249.965 168.935L144.743 427.06L125.505 419.077L119.792 375L213.542 140.625L249.965 154.303L286.388 140.625L380.138 375ZM270.834 52.0833C270.834 40.5774 261.506 31.25 250 31.25C238.494 31.25 229.167 40.5774 229.167 52.0833V104.167H270.834L270.834 52.0833Z" fill="url(#paint3_radial_1313_1633)"/>
<path d="M250 72.9166C221.236 72.9166 197.917 96.2351 197.917 125C197.917 153.765 221.235 177.083 250 177.083C278.765 177.083 302.084 153.765 302.084 125C302.084 96.2352 278.765 72.9166 250 72.9166ZM250 145.833C238.494 145.833 229.167 136.506 229.167 125C229.167 113.494 238.494 104.167 250 104.167C261.506 104.167 270.834 113.494 270.834 125C270.834 136.506 261.506 145.833 250 145.833V145.833Z" fill="url(#paint4_linear_1313_1633)"/>
</g>
<defs>
<linearGradient id="paint0_linear_1313_1633" x1="895.833" y1="887.733" x2="895.833" y2="1315.27" gradientUnits="userSpaceOnUse">
<stop stop-color="#A1AAB3"/>
<stop offset="1" stop-color="#8F979E"/>
</linearGradient>
<linearGradient id="paint1_linear_1313_1633" x1="1972.11" y1="4442.63" x2="3356" y2="12489.5" gradientUnits="userSpaceOnUse">
<stop stop-color="#A1AAB3"/>
<stop offset="1" stop-color="#8F979E"/>
</linearGradient>
<linearGradient id="paint2_linear_1313_1633" x1="3630.42" y1="3524.31" x2="5117.44" y2="12170.7" gradientUnits="userSpaceOnUse">
<stop stop-color="#A1AAB3"/>
<stop offset="1" stop-color="#8F979E"/>
</linearGradient>
<radialGradient id="paint3_radial_1313_1633" cx="0" cy="0" r="1" gradientUnits="userSpaceOnUse" gradientTransform="translate(249.657 126.469) scale(63.6979)">
<stop offset="0.841" stop-opacity="0.2"/>
<stop offset="1" stop-opacity="0"/>
</radialGradient>
<linearGradient id="paint4_linear_1313_1633" x1="225.375" y1="57.3541" x2="285.407" y2="222.271" gradientUnits="userSpaceOnUse">
<stop stop-color="#F44F5A"/>
<stop offset="0.443" stop-color="#EE3D4A"/>
<stop offset="1" stop-color="#E52030"/>
</linearGradient>
<clipPath id="clip0_1313_1633">
<rect width="500" height="500" fill="white"/>
</clipPath>
</defs>
</svg>
