<svg width="100" height="100" viewBox="0 0 100 100" fill="none" xmlns="http://www.w3.org/2000/svg">
<g clip-path="url(#clip0_1434_2623)">
<path d="M20.833 14.583H79.1663C82.6184 14.583 85.4163 17.3809 85.4163 20.833V79.1663C85.4163 82.6184 82.6184 85.4163 79.1663 85.4163H20.833C17.3809 85.4163 14.583 82.6184 14.583 79.1663V20.833C14.583 17.3809 17.3809 14.583 20.833 14.583V14.583Z" fill="url(#paint0_linear_1434_2623)"/>
<g opacity="0.66">
<path opacity="0.66" d="M20.833 14.583H79.1663C82.6184 14.583 85.4163 17.3809 85.4163 20.833V79.1663C85.4163 82.6184 82.6184 85.4163 79.1663 85.4163H20.833C17.3809 85.4163 14.583 82.6184 14.583 79.1663V20.833C14.583 17.3809 17.3809 14.583 20.833 14.583V14.583Z" fill="url(#paint1_linear_1434_2623)"/>
<path opacity="0.66" d="M14.583 79.1663V20.833C14.583 17.3809 17.3809 14.583 20.833 14.583H79.1663C82.6184 14.583 85.4163 17.3809 85.4163 20.833V79.1663C85.4163 82.6184 82.6184 85.4163 79.1663 85.4163H20.833C17.3809 85.4163 14.583 82.6184 14.583 79.1663V79.1663Z" fill="url(#paint2_linear_1434_2623)"/>
<path opacity="0.66" d="M79.1663 85.4163H20.833C17.3809 85.4163 14.583 82.6184 14.583 79.1663V20.833C14.583 17.3809 17.3809 14.583 20.833 14.583H79.1663C82.6184 14.583 85.4163 17.3809 85.4163 20.833V79.1663C85.4163 82.6184 82.6184 85.4163 79.1663 85.4163Z" fill="url(#paint3_linear_1434_2623)"/>
<path opacity="0.66" d="M85.4163 20.833V79.1663C85.4163 82.6184 82.6184 85.4163 79.1663 85.4163H20.833C17.3809 85.4163 14.583 82.6184 14.583 79.1663V20.833C14.583 17.3809 17.3809 14.583 20.833 14.583H79.1663C82.6184 14.583 85.4163 17.3809 85.4163 20.833V20.833Z" fill="url(#paint4_linear_1434_2623)"/>
</g>
<path d="M23.183 71.0146C23.3622 71.3605 23.6018 71.6438 23.9018 71.8563C24.2018 72.073 24.5518 72.2334 24.9539 72.3355C25.356 72.4376 25.7747 72.4917 26.2039 72.4917C26.4976 72.4917 26.808 72.4667 27.1414 72.4188C27.4747 72.3709 27.7893 72.2771 28.0789 72.1376C28.3685 71.998 28.6143 71.8084 28.808 71.5646C29.0039 71.323 29.1018 71.0126 29.1018 70.6376C29.1018 70.2376 28.9726 69.9084 28.7143 69.6584C28.458 69.4084 28.1205 69.2001 27.706 69.0334C27.2893 68.8667 26.8164 68.7209 26.2872 68.5959C25.7601 68.4688 25.2247 68.3313 24.683 68.1792C24.1268 68.0417 23.5872 67.8709 23.058 67.6688C22.531 67.4667 22.0601 67.2063 21.6414 66.8876C21.2247 66.5688 20.8872 66.1688 20.631 65.6896C20.3747 65.2126 20.2455 64.6313 20.2455 63.9501C20.2455 63.1876 20.408 62.523 20.733 61.9605C21.0601 61.398 21.4872 60.9313 22.0143 60.5542C22.5435 60.1792 23.1393 59.9021 23.806 59.723C24.4705 59.5417 25.1393 59.4521 25.806 59.4521C26.583 59.4521 27.3289 59.5376 28.0455 59.7126C28.7601 59.8855 29.3935 60.1667 29.9518 60.5542C30.508 60.9438 30.9476 61.4397 31.2747 62.0438C31.5997 62.648 31.7622 63.3834 31.7622 64.2438H28.5955C28.5664 63.798 28.4726 63.4292 28.3143 63.1396C28.1539 62.848 27.9414 62.6188 27.6768 62.4521C27.4143 62.2855 27.1122 62.1667 26.7705 62.098C26.4289 62.0292 26.058 61.9938 25.656 61.9938C25.3914 61.9938 25.1289 62.023 24.8643 62.0771C24.5997 62.1313 24.3622 62.2292 24.1455 62.3688C23.9289 62.5084 23.7539 62.6813 23.6143 62.8896C23.4747 63.1001 23.4039 63.3626 23.4039 63.6813C23.4039 63.9751 23.458 64.2105 23.5705 64.3896C23.683 64.5709 23.8997 64.7376 24.2268 64.8896C24.5518 65.0417 25.0039 65.1938 25.5789 65.348C26.156 65.5021 26.9101 65.6959 27.8393 65.9313C28.1185 65.9876 28.5018 66.0876 28.9976 66.2355C29.4893 66.3792 29.9809 66.6146 30.4664 66.9334C30.9497 67.2521 31.3726 67.6792 31.7247 68.2126C32.0789 68.748 32.2559 69.4334 32.2559 70.2646C32.2559 70.9459 32.1247 71.5771 31.8622 72.1605C31.5976 72.7438 31.206 73.2459 30.6851 73.6709C30.1643 74.0959 29.5185 74.4251 28.7476 74.6626C27.9768 74.9001 27.083 75.0167 26.0705 75.0167C25.2497 75.0167 24.456 74.9146 23.683 74.7126C22.9143 74.5105 22.233 74.1959 21.6435 73.7646C21.0539 73.3355 20.583 72.7855 20.2372 72.1188C19.8893 71.4542 19.7226 70.6626 19.7372 69.7438H22.9039C22.9101 70.2438 23.0018 70.6667 23.183 71.0146V71.0146Z" fill="url(#paint5_linear_1434_2623)"/>
<path d="M34.0576 64.2105C34.3889 63.2605 34.8701 62.4313 35.4931 61.723C36.116 61.0147 36.8868 60.4605 37.7951 60.0563C38.7035 59.6521 39.7285 59.4521 40.8681 59.4521C42.0222 59.4521 43.0493 59.6542 43.9514 60.0563C44.8535 60.4584 45.6181 61.0146 46.2431 61.723C46.8681 62.4313 47.3472 63.2605 47.6806 64.2105C48.0118 65.1626 48.1785 66.1938 48.1785 67.3042C48.1785 68.3897 48.0118 69.398 47.6806 70.3355C47.3472 71.273 46.866 72.0897 46.2431 72.7834C45.6181 73.4792 44.8535 74.023 43.9514 74.4188C43.0472 74.8147 42.0201 75.0126 40.8681 75.0126C39.7285 75.0126 38.7056 74.8147 37.7951 74.4188C36.8847 74.023 36.116 73.4792 35.4931 72.7834C34.8681 72.0897 34.3889 71.273 34.0576 70.3355C33.7243 69.398 33.5576 68.3876 33.5576 67.3042C33.5556 66.1938 33.7222 65.1626 34.0576 64.2105V64.2105ZM37.0451 69.1292C37.191 69.7188 37.4243 70.2501 37.7431 70.723C38.0618 71.198 38.4806 71.5751 38.9951 71.8584C39.5076 72.1438 40.1326 72.2855 40.8681 72.2855C41.6035 72.2855 42.2285 72.1438 42.7431 71.8584C43.2556 71.5751 43.6722 71.198 43.9931 70.723C44.3118 70.2501 44.5451 69.7209 44.691 69.1292C44.8368 68.5376 44.9097 67.9313 44.9097 67.3063C44.9097 66.6542 44.8368 66.023 44.691 65.4105C44.5451 64.8001 44.3118 64.2542 43.9931 63.7751C43.6743 63.298 43.2556 62.9146 42.7431 62.6292C42.2285 62.3438 41.6035 62.2022 40.8681 62.2022C40.1326 62.2022 39.5076 62.3438 38.9951 62.6292C38.4806 62.9147 38.0639 63.2959 37.7431 63.7751C37.4243 64.2542 37.191 64.8001 37.0451 65.4105C36.8993 66.023 36.8285 66.6542 36.8285 67.3063C36.8285 67.9292 36.8993 68.5376 37.0451 69.1292V69.1292Z" fill="url(#paint6_linear_1434_2623)"/>
<path d="M50.2666 64.2105C50.5979 63.2605 51.0791 62.4313 51.702 61.723C52.3249 61.0147 53.0958 60.4605 54.0041 60.0563C54.9124 59.6521 55.9374 59.4521 57.077 59.4521C58.2312 59.4521 59.2583 59.6542 60.1603 60.0563C61.0624 60.4584 61.827 61.0146 62.452 61.723C63.077 62.4313 63.5562 63.2605 63.8895 64.2105C64.2208 65.1626 64.3874 66.1938 64.3874 67.3042C64.3874 68.3897 64.2208 69.398 63.8895 70.3355C63.5562 71.273 63.0749 72.0897 62.452 72.7834C61.827 73.4792 61.0624 74.023 60.1603 74.4188C59.2562 74.8147 58.2291 75.0126 57.077 75.0126C55.9374 75.0126 54.9145 74.8147 54.0041 74.4188C53.0937 74.023 52.3249 73.4792 51.702 72.7834C51.077 72.0897 50.5979 71.273 50.2666 70.3355C49.9333 69.398 49.7666 68.3876 49.7666 67.3042C49.7666 66.1938 49.9333 65.1626 50.2666 64.2105V64.2105ZM53.2541 69.1292C53.3999 69.7188 53.6333 70.2501 53.952 70.723C54.2708 71.198 54.6895 71.5751 55.2041 71.8584C55.7166 72.1438 56.3416 72.2855 57.077 72.2855C57.8124 72.2855 58.4374 72.1438 58.952 71.8584C59.4645 71.5751 59.8812 71.198 60.202 70.723C60.5208 70.2501 60.7541 69.7209 60.8999 69.1292C61.0458 68.5376 61.1187 67.9313 61.1187 67.3063C61.1187 66.6542 61.0458 66.023 60.8999 65.4105C60.7541 64.8001 60.5208 64.2542 60.202 63.7751C59.8833 63.298 59.4645 62.9146 58.952 62.6292C58.4374 62.3438 57.8124 62.2022 57.077 62.2022C56.3416 62.2022 55.7166 62.3438 55.2041 62.6292C54.6895 62.9147 54.2729 63.2959 53.952 63.7751C53.6333 64.2542 53.3999 64.8001 53.2541 65.4105C53.1083 66.023 53.0374 66.6542 53.0374 67.3063C53.0374 67.9292 53.1083 68.5376 53.2541 69.1292Z" fill="url(#paint7_linear_1434_2623)"/>
<path d="M69.8682 59.8057L76.0765 69.7848H76.1182V59.8057H79.1827V74.6807H75.9119L69.7244 64.7223H69.6807V74.6807H66.6182V59.8057H69.8682Z" fill="url(#paint8_linear_1434_2623)"/>
<path d="M60.1122 23.654L73.2226 36.7644C73.6288 37.1706 73.6288 37.831 73.2226 38.2373L60.1122 51.3477C59.4559 52.0019 58.333 51.5373 58.333 50.6102V24.3894C58.333 23.4623 59.4559 22.9977 60.1122 23.654V23.654Z" fill="url(#paint9_linear_1434_2623)"/>
<path d="M67.0389 33.333H29.166V41.6663H67.0389V33.333Z" fill="url(#paint10_linear_1434_2623)"/>
</g>
<defs>
<linearGradient id="paint0_linear_1434_2623" x1="49.999" y1="14.583" x2="49.999" y2="85.4163" gradientUnits="userSpaceOnUse">
<stop stop-color="#039BE5"/>
<stop offset="1" stop-color="#1E88E5"/>
</linearGradient>
<linearGradient id="paint1_linear_1434_2623" x1="14.5842" y1="49.9997" x2="85.416" y2="49.9997" gradientUnits="userSpaceOnUse">
<stop stop-color="#0D47A1" stop-opacity="0"/>
<stop offset="0.434" stop-color="#0D47A1" stop-opacity="0.016"/>
<stop offset="0.59" stop-color="#0D47A1" stop-opacity="0.072"/>
<stop offset="0.701" stop-color="#0D47A1" stop-opacity="0.1"/>
<stop offset="0.791" stop-color="#0D47A1" stop-opacity="0.15"/>
<stop offset="0.868" stop-color="#0D47A1" stop-opacity="0.3"/>
<stop offset="0.935" stop-color="#0D47A1" stop-opacity="0.7"/>
<stop offset="0.968" stop-color="#0D47A1"/>
<stop offset="1" stop-color="#0D47A1"/>
</linearGradient>
<linearGradient id="paint2_linear_1434_2623" x1="49.9997" y1="85.0459" x2="49.9997" y2="14.2119" gradientUnits="userSpaceOnUse">
<stop stop-color="#0D47A1" stop-opacity="0"/>
<stop offset="0.434" stop-color="#0D47A1" stop-opacity="0.016"/>
<stop offset="0.59" stop-color="#0D47A1" stop-opacity="0.072"/>
<stop offset="0.701" stop-color="#0D47A1" stop-opacity="0.1"/>
<stop offset="0.791" stop-color="#0D47A1" stop-opacity="0.15"/>
<stop offset="0.868" stop-color="#0D47A1" stop-opacity="0.3"/>
<stop offset="0.935" stop-color="#0D47A1" stop-opacity="0.7"/>
<stop offset="0.968" stop-color="#0D47A1"/>
<stop offset="1" stop-color="#0D47A1"/>
</linearGradient>
<linearGradient id="paint3_linear_1434_2623" x1="85.3361" y1="49.9997" x2="14.5043" y2="49.9997" gradientUnits="userSpaceOnUse">
<stop stop-color="#0D47A1" stop-opacity="0"/>
<stop offset="0.434" stop-color="#0D47A1" stop-opacity="0.016"/>
<stop offset="0.59" stop-color="#0D47A1" stop-opacity="0.072"/>
<stop offset="0.701" stop-color="#0D47A1" stop-opacity="0.1"/>
<stop offset="0.791" stop-color="#0D47A1" stop-opacity="0.15"/>
<stop offset="0.868" stop-color="#0D47A1" stop-opacity="0.3"/>
<stop offset="0.935" stop-color="#0D47A1" stop-opacity="0.7"/>
<stop offset="0.968" stop-color="#0D47A1"/>
<stop offset="1" stop-color="#0D47A1"/>
</linearGradient>
<linearGradient id="paint4_linear_1434_2623" x1="49.9997" y1="14.2875" x2="49.9997" y2="85.1193" gradientUnits="userSpaceOnUse">
<stop stop-color="#0D47A1" stop-opacity="0"/>
<stop offset="0.434" stop-color="#0D47A1" stop-opacity="0.016"/>
<stop offset="0.59" stop-color="#0D47A1" stop-opacity="0.072"/>
<stop offset="0.701" stop-color="#0D47A1" stop-opacity="0.1"/>
<stop offset="0.791" stop-color="#0D47A1" stop-opacity="0.15"/>
<stop offset="0.868" stop-color="#0D47A1" stop-opacity="0.3"/>
<stop offset="0.935" stop-color="#0D47A1" stop-opacity="0.7"/>
<stop offset="0.968" stop-color="#0D47A1"/>
<stop offset="1" stop-color="#0D47A1"/>
</linearGradient>
<linearGradient id="paint5_linear_1434_2623" x1="26.5726" y1="19.5251" x2="25.8768" y2="81.3292" gradientUnits="userSpaceOnUse">
<stop stop-color="white"/>
<stop offset="0.325" stop-color="#FBFBFC"/>
<stop offset="0.662" stop-color="#EEEEF4"/>
<stop offset="1" stop-color="#DADAE6"/>
</linearGradient>
<linearGradient id="paint6_linear_1434_2623" x1="41.4035" y1="19.6917" x2="40.7097" y2="81.4959" gradientUnits="userSpaceOnUse">
<stop stop-color="white"/>
<stop offset="0.325" stop-color="#FBFBFC"/>
<stop offset="0.662" stop-color="#EEEEF4"/>
<stop offset="1" stop-color="#DADAE6"/>
</linearGradient>
<linearGradient id="paint7_linear_1434_2623" x1="57.6104" y1="19.873" x2="56.9166" y2="81.6792" gradientUnits="userSpaceOnUse">
<stop stop-color="white"/>
<stop offset="0.325" stop-color="#FBFBFC"/>
<stop offset="0.662" stop-color="#EEEEF4"/>
<stop offset="1" stop-color="#DADAE6"/>
</linearGradient>
<linearGradient id="paint8_linear_1434_2623" x1="73.4307" y1="20.0494" x2="72.7369" y2="81.8557" gradientUnits="userSpaceOnUse">
<stop stop-color="white"/>
<stop offset="0.325" stop-color="#FBFBFC"/>
<stop offset="0.662" stop-color="#EEEEF4"/>
<stop offset="1" stop-color="#DADAE6"/>
</linearGradient>
<linearGradient id="paint9_linear_1434_2623" x1="66.0538" y1="19.9685" x2="65.358" y2="81.7727" gradientUnits="userSpaceOnUse">
<stop stop-color="white"/>
<stop offset="0.325" stop-color="#FBFBFC"/>
<stop offset="0.662" stop-color="#EEEEF4"/>
<stop offset="1" stop-color="#DADAE6"/>
</linearGradient>
<linearGradient id="paint10_linear_1434_2623" x1="173.082" y1="70.8377" x2="170.596" y2="292.31" gradientUnits="userSpaceOnUse">
<stop stop-color="white"/>
<stop offset="0.325" stop-color="#FBFBFC"/>
<stop offset="0.662" stop-color="#EEEEF4"/>
<stop offset="1" stop-color="#DADAE6"/>
</linearGradient>
<clipPath id="clip0_1434_2623">
<rect width="100" height="100" fill="white"/>
</clipPath>
</defs>
</svg>
