<svg width="30" height="30" viewBox="0 0 30 30" fill="none" xmlns="http://www.w3.org/2000/svg">
<path d="M0 15V0H30V30H0" fill="#007ACC"/>
<path d="M6.57715 15.0524V16.2749H10.4772V27.3749H13.2447V16.2749H17.1447V15.0749C17.1447 14.3999 17.1447 13.8524 17.1147 13.8374C17.1147 13.8149 14.7372 13.8074 11.8497 13.8074L6.59965 13.8299V15.0599L6.57715 15.0524V15.0524ZM24.1047 13.7999C24.8697 13.9799 25.4547 14.3249 25.9797 14.8724C26.2572 15.1724 26.6697 15.6974 26.6997 15.8324C26.6997 15.8774 25.4022 16.7549 24.6147 17.2424C24.5847 17.2649 24.4647 17.1374 24.3447 16.9424C23.9547 16.3874 23.5572 16.1474 22.9347 16.1024C22.0347 16.0424 21.4347 16.5149 21.4347 17.3024C21.4347 17.5424 21.4797 17.6774 21.5697 17.8724C21.7722 18.2849 22.1472 18.5324 23.3097 19.0424C25.4547 19.9649 26.3847 20.5724 26.9472 21.4424C27.5847 22.4174 27.7272 23.9474 27.2997 25.0949C26.8197 26.3474 25.6497 27.1949 23.9772 27.4724C23.4522 27.5624 22.2522 27.5474 21.6897 27.4499C20.4897 27.2249 19.3422 26.6249 18.6372 25.8524C18.3597 25.5524 17.8272 24.7499 17.8572 24.6974L18.1422 24.5174L19.2672 23.8649L20.1147 23.3699L20.3097 23.6324C20.5572 24.0224 21.1122 24.5474 21.4347 24.7274C22.4097 25.2299 23.7147 25.1624 24.3597 24.5774C24.6372 24.3224 24.7572 24.0524 24.7572 23.6774C24.7572 23.3324 24.7047 23.1749 24.5322 22.9124C24.2922 22.5824 23.8122 22.3124 22.4622 21.7124C20.9097 21.0524 20.2497 20.6324 19.6347 19.9874C19.2822 19.5974 18.9597 18.9899 18.8097 18.4874C18.6972 18.0524 18.6597 16.9874 18.7647 16.5599C19.0872 15.0599 20.2197 14.0099 21.8397 13.7099C22.3647 13.6049 23.6022 13.6499 24.1197 13.7849L24.1047 13.7999V13.7999Z" fill="white"/>
</svg>
