<svg width="30" height="30" viewBox="0 0 30 30" fill="none" xmlns="http://www.w3.org/2000/svg">
<g clip-path="url(#clip0_1432_2560)">
<path d="M0 15C0 6.71573 6.71573 0 15 0V0C23.2843 0 30 6.71573 30 15V15C30 23.2843 23.2843 30 15 30V30C6.71573 30 0 23.2843 0 15V15Z" fill="url(#paint0_linear_1432_2560)"/>
<path d="M25.0498 15.4989C25.0498 13.7935 24.4725 12.3789 23.4869 11.27C23.5939 11.0301 23.7054 10.7082 23.7608 10.3036C23.8877 9.38072 23.7379 8.82701 23.6109 8.28511C23.4839 7.7432 23.334 7.36225 23.334 7.36225C23.334 7.36225 22.6533 7.29285 22.0767 7.48923C21.5001 7.68562 21.004 7.83549 20.2886 8.26222C19.9541 8.46156 19.6175 8.68009 19.351 8.85728C18.2118 8.54129 16.9589 8.37887 15.6411 8.37887C14.3114 8.37887 13.0475 8.54203 11.9002 8.86023C11.6329 8.6823 11.294 8.46229 10.9574 8.26148C10.242 7.83475 9.74586 7.68488 9.16926 7.48849C8.59266 7.29211 7.91195 7.36151 7.91195 7.36151C7.91195 7.36151 7.76208 7.74247 7.6351 8.28437C7.50811 8.82627 7.35824 9.37999 7.48522 10.3028C7.54207 10.7178 7.65725 11.0456 7.76725 11.287C6.80009 12.3892 6.23309 13.7949 6.23309 15.4982C6.23309 19.9153 8.61923 21.9316 12.967 22.4639C12.4598 22.9999 12.1194 23.6865 12.005 24.4506C11.7193 24.5761 11.39 24.6943 11.0733 24.7415C10.2582 24.8648 9.39665 24.7415 8.98173 24.4957C8.56681 24.2498 8.07437 23.6961 7.70523 23.1572C7.39367 22.7024 6.94406 22.1745 6.53652 21.9884C5.99831 21.7426 5.47487 21.6503 5.18324 21.6961C4.89088 21.7426 4.75282 21.9574 4.8141 22.1117C4.87538 22.2653 5.16774 22.4964 5.47561 22.6655C5.78347 22.8345 6.2604 23.296 6.53726 23.7419C6.84586 24.2395 6.9064 24.5267 7.16776 25.0952C7.35159 25.4953 7.98061 25.9951 8.42875 26.2639C8.8134 26.495 9.58196 26.6264 10.4133 26.664C10.7005 26.6773 11.3789 26.5931 11.9511 26.5119V29.2805C11.9511 29.7523 11.5192 30.1111 11.0718 30.0284C12.5078 30.5112 14.0412 30.7563 15.6411 30.7563C17.2402 30.7563 18.7736 30.5112 20.2111 30.0299C19.7644 30.1118 19.3325 29.753 19.3325 29.2813V24.9962C19.3325 24.015 18.9434 23.1284 18.3188 22.4676C22.6349 21.9493 25.0498 19.981 25.0498 15.4989L25.0498 15.4989ZM6.2198 22.4336C6.1061 22.3753 6.04483 22.2675 6.08322 22.1915C6.12161 22.1154 6.24564 22.1014 6.35934 22.1597C6.47303 22.2181 6.53431 22.3258 6.49592 22.4019C6.45753 22.4779 6.3335 22.492 6.2198 22.4336ZM7.1146 22.991C7.0548 23.056 6.92634 23.0353 6.82741 22.9453C6.72848 22.8552 6.69673 22.729 6.75653 22.664C6.81634 22.599 6.9448 22.6197 7.04373 22.7098C7.14266 22.7998 7.17441 22.9261 7.1146 22.991ZM7.67127 23.9139C7.59597 23.9671 7.46824 23.9176 7.38629 23.8032C7.30434 23.6887 7.29918 23.5521 7.37448 23.499C7.44979 23.4458 7.57751 23.4953 7.65946 23.6097C7.74067 23.7242 7.74658 23.8607 7.67127 23.9139ZM8.47084 24.6086C8.4199 24.6913 8.27519 24.695 8.14821 24.6175C8.02122 24.54 7.95921 24.41 8.01015 24.3273C8.06109 24.2447 8.20579 24.241 8.33278 24.3185C8.45976 24.396 8.52178 24.5259 8.47084 24.6086ZM9.22684 25.2886C9.06959 25.2694 8.95294 25.1712 8.96623 25.0693C8.97878 24.9674 9.11684 24.901 9.27336 24.9202C9.43061 24.9394 9.54726 25.0376 9.53397 25.1395C9.52142 25.2406 9.3841 25.3078 9.22684 25.2886ZM10.4458 25.465C10.2782 25.4554 10.1475 25.3595 10.1541 25.2517C10.1608 25.1439 10.3018 25.0634 10.4694 25.073C10.637 25.0826 10.7676 25.1786 10.761 25.2864C10.7544 25.3949 10.6133 25.4746 10.4458 25.465ZM11.596 25.3499C11.4173 25.3499 11.2726 25.2568 11.2726 25.1424C11.2726 25.028 11.4173 24.935 11.596 24.935C11.7747 24.935 11.9194 25.028 11.9194 25.1424C11.9194 25.2568 11.7739 25.3499 11.596 25.3499Z" fill="white"/>
</g>
<defs>
<linearGradient id="paint0_linear_1432_2560" x1="0" y1="15" x2="30" y2="15" gradientUnits="userSpaceOnUse">
<stop stop-color="#4C4C4C"/>
<stop offset="1" stop-color="#343434"/>
</linearGradient>
<clipPath id="clip0_1432_2560">
<path d="M0 15C0 6.71573 6.71573 0 15 0V0C23.2843 0 30 6.71573 30 15V15C30 23.2843 23.2843 30 15 30V30C6.71573 30 0 23.2843 0 15V15Z" fill="white"/>
</clipPath>
</defs>
</svg>
