<svg width="100" height="101" viewBox="0 0 100 101" fill="none" xmlns="http://www.w3.org/2000/svg">
<path d="M0.604675 51.8413L20.4149 71.6516C21.2211 72.4578 22.5274 72.4578 23.3336 71.6516L27.519 67.4662C28.3252 66.6599 28.3252 65.3537 27.519 64.5475L7.71086 44.7352C6.90462 43.9289 5.59838 43.9289 4.79214 44.7352L0.604681 48.9205C-0.20156 49.7268 -0.20156 51.0351 0.604681 51.8413H0.604675Z" fill="url(#paint0_linear)"/>
<path d="M7.71086 56.0266L27.5211 36.2164C28.3273 35.4102 28.3273 34.1039 27.5211 33.2977L23.3357 29.1123C22.5295 28.3061 21.2232 28.3061 20.417 29.1123L0.604681 48.9204C-0.20156 49.7267 -0.20156 51.0329 0.604681 51.8392L4.79006 56.0245C5.5963 56.8329 6.90461 56.8329 7.71086 56.0266V56.0266Z" fill="url(#paint1_linear)"/>
<path d="M99.395 51.8412L79.5848 71.6514C78.7785 72.4577 77.4723 72.4577 76.666 71.6514L72.4807 67.4661C71.6744 66.6598 71.6744 65.3536 72.4807 64.5473L92.2909 44.7371C93.0971 43.9309 94.4034 43.9309 95.2096 44.7371L99.395 48.9225C100.201 49.7267 100.201 51.035 99.395 51.8412Z" fill="url(#paint2_linear)"/>
<path d="M92.2889 56.0266L72.4787 36.2164C71.6725 35.4102 71.6725 34.1039 72.4787 33.2977L76.6641 29.1123C77.4703 28.3061 78.7766 28.3061 79.5828 29.1123L99.393 48.9225C100.199 49.7288 100.199 51.035 99.393 51.8412L95.2076 56.0266C94.4035 56.8329 93.0952 56.8329 92.2889 56.0266Z" fill="url(#paint3_linear)"/>
<path d="M63.0209 5.58972H55.5001C54.5147 5.58972 53.6627 6.28138 53.4606 7.24595L35.4524 93.2888C35.2483 94.2596 35.9899 95.1721 36.9816 95.1721H44.5023C45.4878 95.1721 46.3398 94.4805 46.5419 93.5159L64.5501 7.47303C64.7521 6.50221 64.0126 5.58972 63.0209 5.58972Z" fill="#0078D4"/>
<defs>
<linearGradient id="paint0_linear" x1="26.5148" y1="70.6453" x2="8.72125" y2="52.8518" gradientUnits="userSpaceOnUse">
<stop offset="0.365" stop-color="#199AE0"/>
<stop offset="0.699" stop-color="#1898DE"/>
<stop offset="0.819" stop-color="#1691D8"/>
<stop offset="0.905" stop-color="#1186CC"/>
<stop offset="0.974" stop-color="#0A75BC"/>
<stop offset="1" stop-color="#076CB3"/>
</linearGradient>
<linearGradient id="paint1_linear" x1="2.83174" y1="53.7996" x2="25.744" y2="30.8873" gradientUnits="userSpaceOnUse">
<stop stop-color="#32BDEF"/>
<stop offset="1" stop-color="#1EA2E4"/>
</linearGradient>
<linearGradient id="paint2_linear" x1="73.4848" y1="70.6452" x2="91.2784" y2="52.8516" gradientUnits="userSpaceOnUse">
<stop offset="0.365" stop-color="#199AE0"/>
<stop offset="0.699" stop-color="#1898DE"/>
<stop offset="0.819" stop-color="#1691D8"/>
<stop offset="0.905" stop-color="#1186CC"/>
<stop offset="0.974" stop-color="#0A75BC"/>
<stop offset="1" stop-color="#076CB3"/>
</linearGradient>
<linearGradient id="paint3_linear" x1="97.168" y1="53.7996" x2="74.2558" y2="30.8873" gradientUnits="userSpaceOnUse">
<stop stop-color="#32BDEF"/>
<stop offset="1" stop-color="#1EA2E4"/>
</linearGradient>
</defs>
</svg>
