<svg width="40" height="40" viewBox="0 0 40 40" fill="none" xmlns="http://www.w3.org/2000/svg">
<path d="M26.5556 0.000568812C25.5608 0.0131366 23.3686 0.241766 21.7413 1.86509C20.0528 3.54946 19.8722 5.79357 19.8739 6.72739C19.7174 7.10166 19.7543 7.52859 19.9727 7.87062C20.191 8.21264 20.5633 8.42654 20.9694 8.44339C20.9694 8.44339 24.1448 8.75945 26.3145 6.59501C28.003 4.91065 28.1836 2.66654 28.1819 1.73272C28.3384 1.35845 28.3015 0.931518 28.0831 0.589491C27.8647 0.247464 27.4925 0.0335649 27.0864 0.0167119C27.0864 0.0167119 26.8872 -0.00362124 26.5556 0.000568812V0.000568812ZM25.5571 2.64803C25.4219 3.37417 25.145 4.25536 24.5571 4.84187C24.0077 5.3899 23.1966 5.66746 22.4986 5.81207C22.6338 5.08593 22.9108 4.20474 23.4987 3.61823C24.0481 3.0702 24.8592 2.79264 25.5571 2.64803V2.64803ZM19.8852 10.0157C16.235 10.0157 13.2568 12.9866 13.2568 16.6279V16.7926C13.2568 18.8865 12.2679 20.8733 10.7049 22.2199C8.76212 23.8824 7.45703 26.118 7.45703 28.6125C7.45703 31.3363 8.9583 33.7658 11.2211 35.4443C13.4839 37.1228 16.5296 38.1176 19.8852 38.1176C23.2408 38.1176 26.2865 37.1228 28.5493 35.4443C30.8121 33.7658 32.3133 31.3363 32.3133 28.6125C32.3133 26.1164 31.007 23.8795 29.0623 22.2167C29.0564 22.2118 29.0504 22.2069 29.0445 22.2021C27.4237 20.8665 26.5135 18.914 26.5135 16.7926V16.6279C26.5135 12.9866 23.5354 10.0157 19.8852 10.0157H19.8852ZM19.8852 12.4953C22.2005 12.4953 24.0279 14.3183 24.0279 16.6279V16.7926C24.0279 19.6303 25.2712 22.3083 27.4618 24.1135L27.444 24.0989C28.9792 25.4116 29.8277 26.976 29.8277 28.6125C29.8277 30.4347 28.8433 32.1378 27.067 33.4555C25.2906 34.7731 22.7437 35.638 19.8852 35.638C17.0267 35.638 14.4798 34.7731 12.7034 33.4555C10.927 32.1378 9.94266 30.4347 9.94266 28.6125C9.94266 26.976 10.7912 25.4116 12.3263 24.0989C12.3274 24.0979 12.3285 24.0968 12.3296 24.0957C14.4121 22.3015 15.7425 19.6579 15.7425 16.7926V16.6279C15.7425 14.3182 17.5699 12.4953 19.8852 12.4953L19.8852 12.4953Z" fill="#F35E84"/>
</svg>
