<svg width="16" height="16" viewBox="0 0 16 16" fill="none" xmlns="http://www.w3.org/2000/svg">
<path d="M15 2H1C0.448242 2 0 1.552 0 1C0 0.447998 0.448242 0 1 0H15C15.5518 0 16 0.447998 16 1C16 1.552 15.5518 2 15 2Z" fill="white"/>
<path d="M15 9H1C0.448242 9 0 8.552 0 8C0 7.448 0.448242 7 1 7H15C15.5518 7 16 7.448 16 8C16 8.552 15.5518 9 15 9Z" fill="white"/>
<path d="M1 16H15C15.5518 16 16 15.552 16 15C16 14.448 15.5518 14 15 14H1C0.448242 14 0 14.448 0 15C0 15.552 0.448242 16 1 16Z" fill="white"/>
</svg>
