<svg width="16" height="16" viewBox="0 0 16 16" fill="none" xmlns="http://www.w3.org/2000/svg">
<g clip-path="url(#clip0)">
<path opacity="0.35" d="M7.99992 14.6668C11.6818 14.6668 14.6666 11.6821 14.6666 8.00017C14.6666 4.31827 11.6818 1.3335 7.99992 1.3335C4.31802 1.3335 1.33325 4.31827 1.33325 8.00017C1.33325 11.6821 4.31802 14.6668 7.99992 14.6668Z" fill="white"/>
<path d="M7.92196 9.31533H7.91796C7.47129 9.31533 7.12663 8.912 7.20329 8.472C7.43663 7.13 8.48129 7.08333 8.48129 6.25C8.48129 6.01867 8.44129 5.50067 7.88396 5.50067C7.58263 5.50067 7.40529 5.69333 7.30196 5.89867C7.16263 6.17667 6.84129 6.31333 6.53529 6.25933C6.07129 6.17667 5.78663 5.67933 5.98329 5.25133C6.26463 4.64 6.84063 4 7.98129 4C9.83196 4 10.08 5.44933 10.08 6.13067C10.08 7.74133 8.88063 7.80133 8.63196 8.72933C8.54196 9.064 8.26863 9.31533 7.92196 9.31533V9.31533ZM8.88329 11.022C8.88329 11.2967 8.79863 11.5287 8.62863 11.7173C8.45796 11.9053 8.23463 12 7.95996 12C7.68396 12 7.46129 11.9053 7.29129 11.7173C7.12129 11.5287 7.03529 11.2967 7.03529 11.022C7.03529 10.7533 7.12129 10.522 7.29129 10.3253C7.46129 10.13 7.68396 10.0327 7.95996 10.0327C8.23463 10.0327 8.45796 10.13 8.62863 10.3253C8.79863 10.522 8.88329 10.754 8.88329 11.022Z" fill="white"/>
</g>
<defs>
<clipPath id="clip0">
<rect width="16" height="16" fill="white"/>
</clipPath>
</defs>
</svg>
