<svg width="24" height="24" viewBox="0 0 24 24" fill="none" xmlns="http://www.w3.org/2000/svg">
<circle opacity="0.35" cx="12" cy="12" r="10" fill="#6E82F9"/>
<path d="M12.3021 11.3778C11.6896 11.64 10.9944 11.9373 10.0935 11.9373C9.71661 11.9366 9.34154 11.8849 8.97852 11.7836L9.60162 18.181C9.62368 18.4484 9.74549 18.6977 9.94286 18.8794C10.1402 19.0612 10.3987 19.162 10.667 19.162C10.667 19.162 11.5505 19.2078 11.8453 19.2078C12.1626 19.2078 13.114 19.162 13.114 19.162C13.3823 19.162 13.6407 19.061 13.8381 18.8793C14.0354 18.6976 14.1572 18.4484 14.1792 18.181L14.8466 11.1116C14.5484 11.0098 14.2474 10.9421 13.908 10.9421C13.3212 10.9419 12.8484 11.144 12.3021 11.3778Z" fill="#6E82F9"/>
<path d="M17.7276 8.05799L17.6337 7.58469C17.5495 7.16004 17.3584 6.75879 16.9225 6.60531C16.7828 6.5562 16.6243 6.53511 16.5171 6.43347C16.41 6.33184 16.3783 6.174 16.3536 6.02763C16.3077 5.75897 16.2646 5.49009 16.2175 5.22191C16.1769 4.99133 16.1448 4.73232 16.039 4.5208C15.9014 4.23678 15.6158 4.07068 15.3317 3.96079C15.1862 3.90646 15.0377 3.8605 14.8869 3.82314C14.1773 3.63593 13.4312 3.5671 12.7012 3.52787C11.825 3.47952 10.9464 3.49409 10.0723 3.57146C9.42167 3.63065 8.73639 3.70223 8.11811 3.92729C7.89213 4.00965 7.65927 4.10853 7.48744 4.28312C7.2766 4.49763 7.20777 4.82937 7.36171 5.09687C7.47115 5.28683 7.65652 5.42104 7.85313 5.50983C8.10923 5.62423 8.37668 5.71128 8.65105 5.76953C9.41501 5.93839 10.2063 6.00468 10.9868 6.03291C11.8518 6.06781 12.7183 6.03952 13.5792 5.94824C13.7921 5.92484 14.0046 5.89677 14.2168 5.86405C14.4666 5.82573 14.627 5.49904 14.5533 5.27145C14.4652 4.99937 14.2284 4.89384 13.9607 4.93491C13.9213 4.94109 13.882 4.94683 13.8426 4.95256L13.8141 4.95669C13.7234 4.96817 13.6327 4.97887 13.542 4.98881C13.3547 5.009 13.1669 5.02552 12.9786 5.03837C12.5569 5.06773 12.1341 5.08127 11.7115 5.08196C11.2963 5.08196 10.8808 5.07025 10.4664 5.04296C10.2774 5.03057 10.0888 5.01481 9.90069 4.99569C9.81512 4.98675 9.72977 4.97735 9.64444 4.96679L9.56321 4.95647L9.54556 4.95395L9.46136 4.94179C9.28929 4.91585 9.11723 4.88604 8.947 4.85001C8.92983 4.8462 8.91445 4.83665 8.90344 4.82292C8.89243 4.8092 8.88643 4.79213 8.88643 4.77454C8.88643 4.75694 8.89243 4.73987 8.90344 4.72615C8.91445 4.71243 8.92983 4.70287 8.947 4.69906H8.95021C9.09773 4.66763 9.24639 4.64079 9.39551 4.61738C9.44523 4.60958 9.49508 4.60194 9.54509 4.59444H9.54647C9.63984 4.58825 9.73368 4.5715 9.82658 4.56049C10.635 4.4764 11.4482 4.44773 12.2605 4.47469C12.6549 4.48616 13.049 4.50933 13.4415 4.54925C13.526 4.55797 13.6099 4.56714 13.6939 4.57747C13.726 4.58137 13.7584 4.58595 13.7907 4.58985L13.8559 4.59926C14.0458 4.62756 14.2348 4.66189 14.4228 4.70227C14.7013 4.76284 15.059 4.78257 15.1828 5.08769C15.2223 5.18451 15.2402 5.29211 15.262 5.39373L15.2897 5.52336C15.2905 5.52568 15.291 5.52807 15.2914 5.53047C15.357 5.83636 15.4227 6.14225 15.4884 6.44815C15.4932 6.47075 15.4934 6.49409 15.4888 6.51673C15.4842 6.53939 15.4749 6.56083 15.4617 6.57976C15.4484 6.59868 15.4314 6.61467 15.4117 6.62672C15.392 6.63877 15.37 6.64663 15.3471 6.64981H15.3453L15.3051 6.65532L15.2654 6.66059C15.1397 6.67696 15.0138 6.69225 14.8878 6.70648C14.6396 6.73477 14.391 6.75924 14.142 6.77989C13.6472 6.82103 13.1514 6.84803 12.6546 6.86088C12.4015 6.8676 12.1485 6.87075 11.8955 6.87028C10.8886 6.86949 9.88252 6.81096 8.88231 6.695C8.77401 6.68216 8.66573 6.66839 8.55744 6.6544C8.64141 6.66519 8.49641 6.64613 8.46705 6.64201C8.39823 6.63237 8.3294 6.62236 8.26057 6.61196C8.02955 6.57731 7.79991 6.53464 7.56933 6.49724C7.29059 6.45136 7.02401 6.47431 6.77187 6.61196C6.56491 6.72521 6.39741 6.89888 6.2917 7.1098C6.18296 7.33463 6.15061 7.57941 6.10197 7.821C6.05333 8.06257 5.97763 8.32251 6.0063 8.57051C6.06802 9.10575 6.4422 9.54072 6.98042 9.638C7.48675 9.72976 7.99583 9.80409 8.50628 9.86741C10.5115 10.113 12.5373 10.1424 14.5487 9.95505C14.7125 9.93976 14.8761 9.92309 15.0394 9.90504C15.0905 9.89944 15.1421 9.90531 15.1906 9.92224C15.239 9.93917 15.2831 9.96673 15.3195 10.0029C15.3559 10.0391 15.3838 10.0829 15.4011 10.1312C15.4184 10.1796 15.4246 10.2311 15.4194 10.2822L15.3684 10.7773C15.2658 11.7777 15.1632 12.7781 15.0606 13.7783C14.9535 14.8288 14.8457 15.8791 14.7373 16.9293C14.7067 17.2252 14.6761 17.5209 14.6455 17.8165C14.6162 18.1077 14.6121 18.408 14.5568 18.6957C14.4696 19.1481 14.1633 19.426 13.7164 19.5276C13.307 19.6208 12.8887 19.6697 12.4688 19.6735C12.0033 19.676 11.5381 19.6553 11.0726 19.6579C10.5756 19.6607 9.967 19.6148 9.58341 19.2449C9.24639 18.9201 9.19981 18.4115 9.15393 17.9716C9.09276 17.3893 9.03212 16.8072 8.972 16.2251L8.63476 12.9882L8.41659 10.8938C8.41291 10.8592 8.40924 10.825 8.4058 10.7901C8.37964 10.5403 8.20276 10.2957 7.92401 10.3084C7.68543 10.3189 7.41425 10.5217 7.44224 10.7901L7.60397 12.3429L7.93847 15.5547C8.03376 16.467 8.12881 17.3795 8.22364 18.2921C8.242 18.4669 8.2592 18.6423 8.27847 18.8171C8.38332 19.7724 9.11287 20.2872 10.0163 20.4321C10.544 20.5171 11.0845 20.5345 11.62 20.5432C12.3064 20.5543 12.9997 20.5807 13.6749 20.4563C14.6754 20.2727 15.426 19.6047 15.5332 18.5684C15.5638 18.2692 15.5943 17.97 15.6249 17.6707C15.7266 16.6808 15.8282 15.6908 15.9296 14.7008L16.2613 11.466L16.4134 9.98351C16.421 9.90999 16.4521 9.84087 16.502 9.78637C16.5519 9.73188 16.618 9.69489 16.6906 9.68089C16.9767 9.62515 17.2501 9.52993 17.4536 9.31221C17.7776 8.96557 17.842 8.51361 17.7276 8.05799ZM6.96573 8.3778C6.97009 8.37573 6.96206 8.41312 6.95862 8.43056C6.95793 8.40417 6.95931 8.38077 6.96573 8.3778ZM6.99349 8.59253C6.99579 8.59092 7.00267 8.60011 7.00978 8.61112C6.999 8.60101 6.99212 8.59345 6.99326 8.59253H6.99349ZM7.0208 8.62855C7.03066 8.64529 7.03594 8.65585 7.0208 8.62855V8.62855ZM7.07563 8.67305H7.077C7.077 8.67467 7.07953 8.67627 7.08044 8.67788C7.07892 8.67611 7.07723 8.67449 7.0754 8.67305H7.07563ZM16.6773 8.60652C16.5745 8.70425 16.4196 8.74968 16.2666 8.7724C14.5506 9.02705 12.8095 9.15599 11.0746 9.09909C9.83301 9.05665 8.60448 8.91876 7.37525 8.74509C7.2548 8.72812 7.12426 8.70609 7.04144 8.61731C6.88544 8.44983 6.96206 8.11259 7.00267 7.91024C7.03984 7.72487 7.11096 7.47779 7.33143 7.4514C7.67556 7.41103 8.0752 7.55624 8.41567 7.60787C8.82556 7.67041 9.23699 7.72051 9.64993 7.75813C11.4123 7.91873 13.2043 7.89372 14.9589 7.6588C15.2787 7.61581 15.5974 7.56588 15.9149 7.50899C16.1978 7.45828 16.5114 7.36308 16.6823 7.65604C16.7996 7.85564 16.8152 8.12268 16.797 8.3482C16.7914 8.44645 16.7485 8.53887 16.677 8.60652H16.6773Z" fill="#6E82F9"/>
</svg>
