<svg width="50" height="50" viewBox="0 0 50 50" fill="none" xmlns="http://www.w3.org/2000/svg">
<g clip-path="url(#clip0_1536_1633)">
<path d="M35.7096 8.97624C35.1695 8.97624 34.6318 9.1792 34.2204 9.59066L20.7194 23.0957C20.3132 23.502 20.3132 24.1624 20.7194 24.5687C20.9236 24.7729 21.1892 24.8698 21.4559 24.8698C21.7226 24.8698 21.9882 24.7729 22.1924 24.5687L35.6893 11.0636C35.6997 11.0553 35.7175 11.0491 35.73 11.0636C36.1362 11.4699 36.7967 11.4699 37.203 11.0636C37.6092 10.6574 37.6092 9.99691 37.203 9.59066C36.7915 9.1792 36.2497 8.97624 35.7096 8.97624V8.97624ZM44.3115 8.99252C43.7649 8.992 43.2172 9.19066 42.8182 9.59066L23.5107 28.8981L15.7796 21.167C14.9567 20.3441 13.62 20.3441 12.797 21.167L9.22038 24.7477C8.82246 25.1456 8.60189 25.6765 8.60189 26.2411C8.60189 26.8056 8.82038 27.3344 9.22038 27.7344L21.8099 40.3239C22.2661 40.7802 22.867 41.0278 23.5107 41.0278C24.1545 41.0278 24.7615 40.7802 25.2157 40.3239L49.3815 16.154C50.2044 15.3311 50.2044 13.9923 49.3815 13.1673L45.8008 9.59066C45.4029 9.19275 44.8581 8.99304 44.3115 8.99252L44.3115 8.99252ZM44.3278 11.0596L47.9085 14.6403V14.681L23.7427 38.8468C23.6343 38.9573 23.3892 38.9573 23.2788 38.8468L10.6893 26.2207L14.3066 22.64L22.7742 31.1076C23.1659 31.4993 23.8576 31.4993 24.2472 31.1076L44.3278 11.0596ZM5.68847 20.5485C5.14811 20.5485 4.60661 20.7555 4.19515 21.167L0.618488 24.7477C0.218488 25.1456 0 25.6765 0 26.2411C0 26.8056 0.218488 27.3365 0.618488 27.7344L13.208 40.3198C13.6643 40.7761 14.2651 41.0278 14.9089 41.0278C15.5526 41.0278 16.1596 40.7761 16.6138 40.3198C17.02 39.9136 17.02 39.2531 16.6138 38.8469C16.2075 38.4406 15.547 38.4406 15.1408 38.8469C15.0325 38.9573 14.7914 38.9573 14.681 38.8469L2.09147 26.2207L5.66813 22.64C5.67854 22.6296 5.69642 22.6296 5.70475 22.64C6.111 23.0462 6.77148 23.0462 7.17773 22.64C7.58398 22.2337 7.58398 21.5733 7.17773 21.167C6.76732 20.7555 6.22884 20.5485 5.68847 20.5485V20.5485Z" fill="#28A745"/>
</g>
<defs>
<clipPath id="clip0_1536_1633">
<rect width="50" height="50" fill="white"/>
</clipPath>
</defs>
</svg>
