<svg width="151" height="65" viewBox="0 0 151 65" fill="none" xmlns="http://www.w3.org/2000/svg">
<path d="M68 0H5C2.23858 0 0 2.23858 0 5V7C0 9.76142 2.23858 12 5 12H68C70.7614 12 73 9.76142 73 7V5C73 2.23858 70.7614 0 68 0Z" fill="#6E82F9"/>
<path d="M146 0H82C79.2386 0 77 2.23858 77 5V7C77 9.76142 79.2386 12 82 12H146C148.761 12 151 9.76142 151 7V5C151 2.23858 148.761 0 146 0Z" fill="#6E82F9"/>
<path d="M46 16H5C2.23858 16 0 18.2386 0 21V23C0 25.7614 2.23858 28 5 28H46C48.7614 28 51 25.7614 51 23V21C51 18.2386 48.7614 16 46 16Z" fill="#6E82F9"/>
<path d="M65 16H60C57.2386 16 55 18.2386 55 21V23C55 25.7614 57.2386 28 60 28H65C67.7614 28 70 25.7614 70 23V21C70 18.2386 67.7614 16 65 16Z" fill="#6E82F9"/>
<path d="M93.5 35H6.8C3.04446 35 0 36.4772 0 42V58C0 63.5228 3.04446 65 6.8 65H93.5C97.2555 65 100.3 64.5228 100.3 59V41.5C100.3 35.9772 97.2555 35 93.5 35Z" fill="#6E82F9"/>
<path d="M47.1504 47H13.1504C10.9413 47 9.15039 48.567 9.15039 50.5C9.15039 52.433 10.9413 54 13.1504 54H47.1504C49.3595 54 51.1504 52.433 51.1504 50.5C51.1504 48.567 49.3595 47 47.1504 47Z" fill="#5665C2"/>
</svg>
