<svg width="27" height="30" viewBox="0 0 27 30" fill="none" xmlns="http://www.w3.org/2000/svg">
<g clip-path="url(#clip0)">
<path d="M12.2847 0.377387C13.0188 -0.0428147 13.975 -0.0447128 14.7085 0.377387C18.3986 2.46247 22.0898 4.54429 25.7792 6.63064C26.4732 7.02152 26.9374 7.79381 26.9303 8.5934V21.1381C26.9355 21.9708 26.4254 22.7615 25.6933 23.1435C22.0154 25.2171 18.3393 27.2933 14.662 29.3668C13.9127 29.7953 12.9373 29.7623 12.2114 29.2987C11.1088 28.6595 10.0042 28.0235 8.9015 27.3849C8.67616 27.2506 8.42214 27.1436 8.26302 26.9251C8.40369 26.7356 8.65518 26.7119 8.85953 26.6292C9.3198 26.4828 9.74253 26.2479 10.1654 26.0199C10.2723 25.9467 10.4028 25.9748 10.5053 26.0402C11.4482 26.5809 12.3828 27.1372 13.3288 27.6727C13.5307 27.7892 13.735 27.6345 13.9075 27.5383C17.5167 25.4985 21.1304 23.4663 24.7389 21.4258C24.8726 21.3615 24.9465 21.2196 24.9357 21.0731C24.9382 16.9349 24.9363 12.7959 24.9369 8.65773C24.9522 8.49154 24.8561 8.33875 24.7058 8.27074C21.0406 6.20664 17.3773 4.13937 13.7128 2.07475C13.6493 2.0311 13.5741 2.00768 13.497 2.00756C13.42 2.00745 13.3447 2.03065 13.2811 2.07411C9.61653 4.13937 5.95387 6.20854 2.28931 8.27253C2.13958 8.34065 2.03909 8.49091 2.05691 8.65773C2.05755 12.7959 2.05691 16.9349 2.05691 21.0738C2.05056 21.1452 2.06625 21.2169 2.10189 21.2792C2.13752 21.3415 2.19137 21.3913 2.25621 21.422C3.23411 21.9766 4.21328 22.5272 5.19181 23.0799C5.74308 23.3766 6.41994 23.5529 7.02731 23.3255C7.56329 23.1333 7.93899 22.5864 7.92876 22.0173C7.93382 17.9032 7.92623 13.7885 7.93256 9.67507C7.91917 9.49243 8.09241 9.34154 8.26998 9.35873C8.73985 9.35557 9.21035 9.3524 9.68021 9.35999C9.87634 9.35557 10.0113 9.55222 9.98706 9.73622C9.98516 13.8763 9.99212 18.0166 9.9839 22.1567C9.98516 23.2601 9.53185 24.4607 8.51124 25.0006C7.25391 25.6519 5.69985 25.5138 4.4577 24.8892C3.38237 24.3525 2.35617 23.7191 1.29992 23.1441C0.565911 22.7642 0.0584005 21.9703 0.0635673 21.1382V8.5934C0.0558698 7.77725 0.538495 6.99094 1.25405 6.60575C4.93136 4.53047 8.60804 2.45361 12.2847 0.377387Z" fill="#8CC84B"/>
<path d="M15.4923 9.06726C17.0961 8.96403 18.8131 9.0061 20.2563 9.7962C21.3737 10.4017 21.9932 11.6724 22.013 12.9138C21.9817 13.0813 21.8067 13.1736 21.6469 13.1621C21.1815 13.1615 20.7161 13.1685 20.2508 13.159C20.0534 13.1666 19.9386 12.9846 19.9139 12.8101C19.7801 12.2161 19.4562 11.6278 18.8971 11.3413C18.0389 10.9116 17.0438 10.9332 16.108 10.9422C15.4248 10.9785 14.6902 11.0376 14.1114 11.4394C13.667 11.7437 13.5321 12.358 13.6907 12.8528C13.8402 13.208 14.2503 13.3226 14.5858 13.4283C16.5186 13.9338 18.5668 13.8835 20.4627 14.5487C21.2476 14.82 22.0155 15.3472 22.2842 16.169C22.6356 17.2705 22.4816 18.5871 21.6979 19.4714C21.0624 20.199 20.1368 20.5951 19.2136 20.8102C17.9855 21.0841 16.7109 21.091 15.4637 20.9694C14.291 20.8357 13.0705 20.5276 12.1652 19.7286C11.391 19.0563 11.0129 18.0089 11.0504 16.998C11.0594 16.8273 11.2293 16.7083 11.3929 16.7223C11.8615 16.7185 12.3301 16.7172 12.7987 16.7229C12.9859 16.7095 13.1246 16.8713 13.1342 17.0477C13.2207 17.6136 13.4334 18.2076 13.9269 18.5431C14.8792 19.1576 16.0743 19.1155 17.1648 19.1327C18.0682 19.0926 19.0824 19.0805 19.8197 18.4833C20.2087 18.1428 20.3239 17.5729 20.2188 17.0827C20.1049 16.6688 19.672 16.476 19.3002 16.3499C17.3921 15.7463 15.3211 15.9653 13.4315 15.2828C12.6643 15.0117 11.9225 14.4991 11.6278 13.711C11.2166 12.5956 11.405 11.2159 12.2708 10.3615C13.115 9.51161 14.3337 9.1843 15.4923 9.06715V9.06726Z" fill="#8CC84B"/>
</g>
<defs>
<clipPath id="clip0">
<rect width="27" height="29.7357" fill="white"/>
</clipPath>
</defs>
</svg>
