<svg width="48" height="48" viewBox="0 0 48 48" fill="none" xmlns="http://www.w3.org/2000/svg">
<g clip-path="url(#clip0_935_1028)">
<path d="M8.5 5C6.0325 5 4 7.0325 4 9.5V30.5C4 32.9675 6.0325 35 8.5 35H17V40H13.5C12.959 39.9923 12.4559 40.2766 12.1832 40.7438C11.9105 41.2111 11.9105 41.7889 12.1832 42.2562C12.4559 42.7234 12.959 43.0076 13.5 43H18.2539C18.4149 43.0264 18.5792 43.0264 18.7402 43H29.2539C29.4149 43.0264 29.5792 43.0264 29.7402 43H34.5C35.041 43.0076 35.5441 42.7234 35.8168 42.2562C36.0895 41.7889 36.0895 41.2111 35.8168 40.7438C35.5441 40.2766 35.041 39.9923 34.5 40H31V35H39.5C41.9675 35 44 32.9675 44 30.5V9.5C44 7.0325 41.9675 5 39.5 5H8.5ZM8.5 8H39.5C40.3465 8 41 8.6535 41 9.5V30.5C41 31.3465 40.3465 32 39.5 32H29.7461C29.5851 31.9735 29.4208 31.9735 29.2598 32H18.7461C18.5851 31.9735 18.4208 31.9735 18.2598 32H8.5C7.6535 32 7 31.3465 7 30.5V9.5C7 8.6535 7.6535 8 8.5 8ZM10.5 12C9.67161 12.0001 9.00008 12.6716 9 13.5V26.5C9.00008 27.3284 9.67161 27.9999 10.5 28H17.5C18.3284 27.9999 18.9999 27.3284 19 26.5V13.5C18.9999 12.6716 18.3284 12.0001 17.5 12H10.5ZM22.5 12C21.6716 12.0001 21.0001 12.6716 21 13.5V26.5C21.0001 27.3284 21.6716 27.9999 22.5 28H37.5C38.3284 27.9999 38.9999 27.3284 39 26.5V13.5C38.9999 12.6716 38.3284 12.0001 37.5 12H22.5ZM12 15H16V25H12V15ZM24 15H36V25H24V15ZM20 35H28V40H20V35Z" fill="url(#paint0_linear_935_1028)"/>
</g>
<defs>
<linearGradient id="paint0_linear_935_1028" x1="4" y1="24.0099" x2="44" y2="24.0099" gradientUnits="userSpaceOnUse">
<stop stop-color="#6E82F9"/>
<stop offset="0.503125" stop-color="#22B9FF"/>
<stop offset="1" stop-color="#A6FFD8"/>
<stop offset="1" stop-color="#9FFBCE"/>
</linearGradient>
<clipPath id="clip0_935_1028">
<rect width="48" height="48" fill="white"/>
</clipPath>
</defs>
</svg>
