<svg width="48" height="48" viewBox="0 0 48 48" fill="none" xmlns="http://www.w3.org/2000/svg">
<g clip-path="url(#clip0_1342_2580)">
<path d="M39.5 34C40.8807 34 42 32.8807 42 31.5C42 30.1193 40.8807 29 39.5 29C38.1193 29 37 30.1193 37 31.5C37 32.8807 38.1193 34 39.5 34Z" fill="#C98E00"/>
<path d="M26.211 41.683L40.68 33.693L38.54 29.191L26 35L26.211 41.683Z" fill="#C98E00"/>
<path d="M45 32.5C45 31.119 43.881 30 42.5 30C42.16 30 41.836 30.069 41.541 30.192L41.54 30.191L41.529 30.196C41.527 30.197 41.525 30.198 41.523 30.199L29 36L27.5 35C28.881 35 30 33.881 30 32.5C30 31.57 29.486 30.768 28.733 30.337L28.737 30.321L15.086 23.455H15.061C14.431 23.169 13.737 23 13 23C12.282 23 11.603 23.157 10.985 23.43H10.963L3 27V40L11.09 36.282L27.001 42.79H27.002C27.309 42.924 27.645 43 28 43C28.435 43 28.838 42.879 29.195 42.683L29.212 42.682L43.681 34.693L43.68 34.691C44.462 34.269 45 33.452 45 32.5L45 32.5Z" fill="url(#paint0_linear_1342_2580)"/>
<path d="M27.5 34C28.3284 34 29 33.3284 29 32.5C29 31.6715 28.3284 31 27.5 31C26.6716 31 26 31.6715 26 32.5C26 33.3284 26.6716 34 27.5 34Z" fill="#FFDE87"/>
<path d="M29 36L27.511 35.002C26.256 34.942 25.269 34.534 17 31.489V35L28.551 39.734C28.551 39.734 27.733 37.451 29 36V36Z" fill="url(#paint1_linear_1342_2580)"/>
<path d="M19 13L25 7H37L43 13L31 25L19 13Z" fill="#1976D2"/>
<path d="M37 13H43L31 25L37 13Z" fill="#0D62AB"/>
<path d="M19 13H25V7L19 13Z" fill="#50E6FF"/>
<path d="M37 13V7H25V13L31 15L37 13Z" fill="#0078D4"/>
<path d="M19 13H25L31 25L19 13Z" fill="#35C1F1"/>
<path d="M25 13L31 7L37 13H25Z" fill="#199BE2"/>
</g>
<defs>
<linearGradient id="paint0_linear_1342_2580" x1="3" y1="33" x2="45" y2="33" gradientUnits="userSpaceOnUse">
<stop stop-color="#FFCF54"/>
<stop offset="0.261" stop-color="#FDCB4D"/>
<stop offset="0.639" stop-color="#F7C13A"/>
<stop offset="1" stop-color="#F0B421"/>
</linearGradient>
<linearGradient id="paint1_linear_1342_2580" x1="22.337" y1="36.368" x2="24.123" y2="33.288" gradientUnits="userSpaceOnUse">
<stop stop-color="#F0B421" stop-opacity="0"/>
<stop offset="0.512" stop-color="#E9AB12" stop-opacity="0.512"/>
<stop offset="1" stop-color="#E09F00"/>
</linearGradient>
<clipPath id="clip0_1342_2580">
<rect width="48" height="48" fill="white"/>
</clipPath>
</defs>
</svg>
