<svg width="48" height="48" viewBox="0 0 48 48" fill="none" xmlns="http://www.w3.org/2000/svg">
<g clip-path="url(#clip0_1340_2302)">
<path d="M38 44H10C8.9 44 8 43.1 8 42V7C8 5.9 8.9 5 10 5H38C39.1 5 40 5.9 40 7V42C40 43.1 39.1 44 38 44Z" fill="url(#paint0_radial_1340_2302)"/>
<path opacity="0.05" d="M37.9996 44H9.99961C9.09961 44 8.39961 43.4 8.09961 42.6L10.5996 37.5C11.0996 36.6 12.0996 36 13.1996 36H34.8996C35.9996 36 36.9996 36.6 37.4996 37.5L39.9996 42.6C39.5996 43.4 38.8996 44 37.9996 44V44Z" fill="black"/>
<path opacity="0.07" d="M37.9998 44H9.99981C9.29981 44 8.5998 43.6 8.2998 43L10.9998 37.8C11.3998 37 12.2998 36.5 13.1998 36.5H34.8998C35.7998 36.5 36.5998 37 37.0998 37.8L39.7998 43C39.3998 43.6 38.6998 44 37.9998 44H37.9998Z" fill="black"/>
<path d="M8.40039 43.2L11.4004 38C11.8004 37.4 12.4004 37 13.1004 37H34.8004C35.5004 37 36.2004 37.4 36.5004 38L39.5004 43.2C39.2004 43.7 38.6004 44 38.0004 44H10.0004C9.40039 44 8.80039 43.7 8.40039 43.2H8.40039Z" fill="#FABB62"/>
<path d="M25 12H23V37H25V12Z" fill="#B14716"/>
<path opacity="0.05" d="M37.9996 5H9.99961C9.09961 5 8.39961 5.6 8.09961 6.4L10.5996 11.5C11.0996 12.4 12.0996 13 13.1996 13H34.8996C35.9996 13 36.9996 12.4 37.4996 11.5L39.9996 6.4C39.5996 5.6 38.8996 5 37.9996 5V5Z" fill="black"/>
<path opacity="0.07" d="M37.9998 5H9.99981C9.29981 5 8.5998 5.4 8.2998 6L10.9998 11.2C11.3998 12 12.2998 12.5 13.1998 12.5H34.8998C35.7998 12.5 36.5998 12 37.0998 11.2L39.6998 6C39.3998 5.4 38.6998 5 37.9998 5H37.9998Z" fill="black"/>
<path d="M8.40039 5.8L11.4004 11C11.8004 11.6 12.4004 12 13.1004 12H34.8004C35.5004 12 36.2004 11.6 36.5004 11L39.5004 5.8C39.2004 5.3 38.6004 5 38.0004 5H10.0004C9.40039 5 8.80039 5.3 8.40039 5.8H8.40039Z" fill="#FABB62"/>
<path d="M24 14C25.1046 14 26 13.1046 26 12C26 10.8954 25.1046 10 24 10C22.8954 10 22 10.8954 22 12C22 13.1046 22.8954 14 24 14Z" fill="#D97218"/>
<path d="M24 39C25.1046 39 26 38.1045 26 37C26 35.8954 25.1046 35 24 35C22.8954 35 22 35.8954 22 37C22 38.1045 22.8954 39 24 39Z" fill="#D97218"/>
</g>
<defs>
<radialGradient id="paint0_radial_1340_2302" cx="0" cy="0" r="1" gradientUnits="userSpaceOnUse" gradientTransform="translate(21.532 23.053) scale(31.078)">
<stop stop-color="#EBA84B"/>
<stop offset="1" stop-color="#D97218"/>
</radialGradient>
<clipPath id="clip0_1340_2302">
<rect width="48" height="48" fill="white"/>
</clipPath>
</defs>
</svg>
