<svg width="31" height="30" viewBox="0 0 31 30" fill="none" xmlns="http://www.w3.org/2000/svg">
<path d="M25.3206 30H5.44862C2.43569 30 0 27.5643 0 24.5514V5.44862C0 2.43569 2.43569 0 5.44862 0H25.3206C28.3335 0 30.7692 2.43569 30.7692 5.44862V24.5514C30.7692 27.5643 28.3335 30 25.3206 30Z" fill="#FF26BE"/>
<path d="M24.833 28.7175H5.93577C3.37207 28.7175 1.28223 26.6277 1.28223 24.064V5.93601C1.28223 3.37232 3.37207 1.28247 5.93577 1.28247H24.8207C27.3979 1.28247 29.4742 3.37232 29.4742 5.93601V24.0517C29.4865 26.6277 27.3967 28.7175 24.833 28.7175Z" fill="#2E001F"/>
<path d="M12.1664 14.0381L15.7566 20.9353C15.8206 21.0374 15.7824 21.1408 15.679 21.1408H13.4477C13.3061 21.1408 13.2421 21.1027 13.1781 20.9747C12.3572 19.2824 11.524 17.5901 10.6649 15.7697H10.639C9.86981 17.4879 9.02304 19.2959 8.20335 20.9882C8.13935 21.0904 8.07535 21.1297 7.97196 21.1297H5.85873C5.73073 21.1297 5.71719 21.0276 5.78242 20.9501L9.29504 14.2571L5.89812 7.4879C5.82058 7.38575 5.89812 7.30821 5.97442 7.30821H8.17996C8.30796 7.30821 8.35965 7.33405 8.41012 7.44974C9.2175 9.14205 10.0384 10.8861 10.8077 12.5907H10.8335C11.5769 10.8984 12.3978 9.14205 13.1929 7.46205C13.2569 7.3599 13.295 7.2959 13.4243 7.2959H15.4883C15.5904 7.2959 15.6298 7.37344 15.5658 7.47559L12.1664 14.0381ZM16.3855 16.1279C16.3855 13.1408 18.3732 10.8073 21.5264 10.8073C21.796 10.8073 21.9363 10.8073 22.1935 10.8331V7.43621C22.1935 7.35867 22.2575 7.30821 22.3215 7.30821H24.3473C24.4495 7.30821 24.4753 7.34636 24.4753 7.41036V19.1802C24.4753 19.5261 24.4753 19.9617 24.5393 20.4368C24.5393 20.5144 24.5135 20.539 24.4372 20.5784C23.3603 21.0916 22.2317 21.3217 21.1547 21.3217C18.372 21.3328 16.3843 19.6159 16.3855 16.1279ZM22.1923 12.8467C22.0126 12.7691 21.7566 12.7187 21.4489 12.7187C19.8329 12.7187 18.7055 13.9617 18.7055 16.027C18.7055 18.3864 19.86 19.3353 21.3086 19.3353C21.6163 19.3353 21.9498 19.2971 22.1935 19.1937V12.8467H22.1923Z" fill="#FFD9F2"/>
</svg>
