<svg width="24" height="24" viewBox="0 0 24 24" fill="none" xmlns="http://www.w3.org/2000/svg">
<g clip-path="url(#clip0_1340_2451)">
<path opacity="0.35" d="M12 22C17.5229 22 22 17.5229 22 12C22 6.47716 17.5229 2 12 2C6.47716 2 2 6.47716 2 12C2 17.5229 6.47716 22 12 22Z" fill="#6E82F9"/>
<path d="M12 2C6.477 2 2 6.477 2 12C2 17.523 6.477 22 12 22C17.523 22 22 17.523 22 12C22 6.477 17.523 2 12 2V2ZM19.98 11.597C17.994 11.014 16.204 10.944 14.613 11.211C14.419 10.78 14.22 10.362 14.016 9.957C15.697 9.226 17.185 8.232 18.143 6.883C19.22 8.174 19.89 9.81 19.98 11.597V11.597ZM16.657 5.508C15.941 6.664 14.626 7.536 13.065 8.191C12.108 6.543 11.136 5.19 10.335 4.177C10.873 4.063 11.429 4 12 4C13.738 4 15.344 4.563 16.657 5.508ZM8.343 4.893C9.109 5.816 10.124 7.165 11.138 8.862C8.742 9.555 6.139 9.865 4.273 9.961C4.856 7.754 6.355 5.92 8.343 4.893H8.343ZM4 12C4 11.991 4.001 11.983 4.001 11.974C5.635 11.903 8.982 11.638 12.129 10.655C12.307 11.003 12.481 11.361 12.652 11.73C9.301 12.96 7.056 15.593 5.937 17.206C4.733 15.805 4 13.988 4 12L4 12ZM7.422 18.551C8.309 17.181 10.306 14.634 13.43 13.559C14.111 15.342 14.647 17.318 14.92 19.441C14.013 19.797 13.031 20 12 20C10.297 20 8.72 19.461 7.422 18.551H7.422ZM16.798 18.387C16.496 16.5 15.996 14.74 15.394 13.117C16.717 12.97 18.196 13.099 19.831 13.638C19.427 15.569 18.32 17.24 16.798 18.387Z" fill="#6E82F9"/>
</g>
<defs>
<clipPath id="clip0_1340_2451">
<rect width="24" height="24" fill="white"/>
</clipPath>
</defs>
</svg>
